<svg width="50.000000" height="50.000000" viewBox="0 0 50 50" fill="none" xmlns="http://www.w3.org/2000/svg" xmlns:xlink="http://www.w3.org/1999/xlink">
	<desc>
			Created with Pixso.
	</desc>
	<defs>
		<clipPath id="clip15_733">
			<rect id="adres" width="50.000000" height="50.000000" fill="white" fill-opacity="0"/>
		</clipPath>
	</defs>
	<rect id="adres" width="50.000000" height="50.000000" fill="#FFFFFF" fill-opacity="0"/>
	<g clip-path="url(#clip15_733)">
		<g opacity="0.200000">
			<circle id="Ellipse 9" cx="25.000000" cy="25.000000" r="24.000000" stroke="#B1B1B1" stroke-opacity="1.000000" stroke-width="2.000000"/>
		</g>
		<path id="Vector" d="M24.8 14C22.46 14 20.22 14.92 18.57 16.57C16.92 18.22 16 20.46 16 22.8C16 28.74 23.75 35.45 24.08 35.73C24.28 35.9 24.53 36 24.8 36C25.06 36 25.31 35.9 25.51 35.73C25.9 35.45 33.59 28.74 33.59 22.8C33.59 20.46 32.67 18.22 31.02 16.57C29.37 14.92 27.13 14 24.8 14ZM24.8 33.41C22.45 31.21 18.19 26.47 18.19 22.8C18.19 21.04 18.89 19.37 20.13 18.13C21.37 16.89 23.04 16.2 24.8 16.2C26.55 16.2 28.22 16.89 29.46 18.13C30.7 19.37 31.4 21.04 31.4 22.8C31.4 26.47 27.14 31.22 24.8 33.41ZM24.8 18.39C23.92 18.39 23.07 18.65 22.35 19.14C21.63 19.62 21.06 20.31 20.73 21.11C20.4 21.92 20.31 22.8 20.48 23.65C20.65 24.51 21.07 25.29 21.68 25.91C22.3 26.52 23.08 26.94 23.94 27.11C24.79 27.28 25.67 27.19 26.48 26.86C27.28 26.53 27.97 25.96 28.45 25.24C28.94 24.52 29.19 23.67 29.19 22.8C29.19 21.63 28.73 20.51 27.91 19.68C27.08 18.86 25.96 18.39 24.8 18.39ZM24.8 25C24.36 25 23.93 24.87 23.57 24.62C23.21 24.38 22.93 24.04 22.76 23.64C22.6 23.24 22.55 22.79 22.64 22.37C22.72 21.94 22.93 21.55 23.24 21.24C23.55 20.93 23.94 20.72 24.37 20.64C24.79 20.55 25.24 20.6 25.64 20.76C26.04 20.93 26.38 21.21 26.62 21.57C26.87 21.93 27 22.36 27 22.8C27 23.38 26.76 23.94 26.35 24.35C25.94 24.76 25.38 25 24.8 25Z" fill="#B1B1B1" fill-opacity="1.000000" fill-rule="nonzero"/>
	</g>
</svg>
