<svg width="24.000000" height="24.000000" viewBox="0 0 24 24" fill="none" xmlns="http://www.w3.org/2000/svg" xmlns:xlink="http://www.w3.org/1999/xlink">
	<desc>
			Created with Pixso.
	</desc>
	<defs>
		<clipPath id="clip15_6817">
			<rect width="24.000000" height="24.000000" fill="white" fill-opacity="0"/>
		</clipPath>
	</defs>
	<rect width="24.000000" height="24.000000" fill="#FFFFFF" fill-opacity="0"/>
	<g clip-path="url(#clip15_6817)">
		<path d="M22 9.64C22.09 9.14 21.69 8.54 21.19 8.54L15.5 7.74L12.9 2.54C12.8 2.34 12.69 2.24 12.5 2.14C12 1.84 11.4 2.04 11.09 2.54L8.59 7.74L2.9 8.54C2.59 8.54 2.4 8.64 2.3 8.84C1.9 9.24 1.9 9.84 2.3 10.24L6.4 14.24L5.4 19.94C5.4 20.14 5.4 20.34 5.5 20.54C5.8 21.04 6.4 21.24 6.9 20.94L12 18.24L17.09 20.94C17.19 21.04 17.4 21.04 17.59 21.04C17.69 21.04 17.69 21.04 17.8 21.04C18.3 20.94 18.69 20.44 18.59 19.84L17.59 14.14L21.69 10.14C21.9 10.04 22 9.84 22 9.64Z" fill="#FFBC57" fill-opacity="1.000000" fill-rule="nonzero"/>
	</g>
</svg>
