<svg width="50.000000" height="50.000000" viewBox="0 0 50 50" fill="none" xmlns="http://www.w3.org/2000/svg" xmlns:xlink="http://www.w3.org/1999/xlink">
	<desc>
			Created with Pixso.
	</desc>
	<defs>
		<clipPath id="clip15_728">
			<rect id="calendar" width="50.000000" height="50.000000" fill="white" fill-opacity="0"/>
		</clipPath>
	</defs>
	<rect id="calendar" width="50.000000" height="50.000000" fill="#FFFFFF" fill-opacity="0"/>
	<g clip-path="url(#clip15_728)">
		<g opacity="0.200000">
			<circle id="Ellipse 9" cx="25.000000" cy="25.000000" r="24.000000" stroke="#B1B1B1" stroke-opacity="1.000000" stroke-width="2.000000"/>
		</g>
		<path id="Vector" d="M32.69 16.2L30.5 16.2L30.5 15.1C30.5 14.8 30.38 14.52 30.17 14.32C29.97 14.11 29.69 14 29.4 14C29.1 14 28.82 14.11 28.62 14.32C28.41 14.52 28.3 14.8 28.3 15.1L28.3 16.2L21.69 16.2L21.69 15.1C21.69 14.8 21.58 14.52 21.37 14.32C21.17 14.11 20.89 14 20.59 14C20.3 14 20.02 14.11 19.82 14.32C19.61 14.52 19.5 14.8 19.5 15.1L19.5 16.2L17.3 16.2C16.42 16.2 15.58 16.54 14.96 17.16C14.34 17.78 14 18.62 14 19.5L14 32.7C14 33.57 14.34 34.41 14.96 35.03C15.58 35.65 16.42 36 17.3 36L32.69 36C33.57 36 34.41 35.65 35.03 35.03C35.65 34.41 36 33.57 36 32.7L36 19.5C36 18.62 35.65 17.78 35.03 17.16C34.41 16.54 33.57 16.2 32.69 16.2ZM33.8 32.7C33.8 32.99 33.68 33.27 33.47 33.47C33.27 33.68 32.99 33.8 32.69 33.8L17.3 33.8C17 33.8 16.72 33.68 16.52 33.47C16.31 33.27 16.19 32.99 16.19 32.7L16.19 25L33.8 25L33.8 32.7ZM33.8 22.8L16.19 22.8L16.19 19.5C16.19 19.2 16.31 18.92 16.52 18.72C16.72 18.51 17 18.39 17.3 18.39L19.5 18.39L19.5 19.5C19.5 19.79 19.61 20.07 19.82 20.27C20.02 20.48 20.3 20.6 20.59 20.6C20.89 20.6 21.17 20.48 21.37 20.27C21.58 20.07 21.69 19.79 21.69 19.5L21.69 18.39L28.3 18.39L28.3 19.5C28.3 19.79 28.41 20.07 28.62 20.27C28.82 20.48 29.1 20.6 29.4 20.6C29.69 20.6 29.97 20.48 30.17 20.27C30.38 20.07 30.5 19.79 30.5 19.5L30.5 18.39L32.69 18.39C32.99 18.39 33.27 18.51 33.47 18.72C33.68 18.92 33.8 19.2 33.8 19.5L33.8 22.8Z" fill="#B1B1B1" fill-opacity="1.000000" fill-rule="nonzero"/>
	</g>
</svg>
