<svg width="40.000000" height="40.000000" viewBox="0 0 40 40" fill="none" xmlns="http://www.w3.org/2000/svg" xmlns:xlink="http://www.w3.org/1999/xlink">
	<desc>
			Created with Pixso.
	</desc>
	<defs/>
	<path id="facebook" d="M20 0C8.96 0 0 8.95 0 20C0 31.04 8.96 40 20 40C31.03 40 40 31.04 40 20C40 8.95 31.03 0 20 0ZM25.43 12.15L22.72 12.15C22.24 12.15 21.59 12.8 21.59 13.12L21.59 16L25.43 16C25.27 18.08 24.96 20.15 24.96 20.15L21.59 20.15L21.59 32.32L16.48 32.32L16.48 20.15L14.08 20.15L14.08 16L16.48 16L16.48 12.63C16.48 12 16.32 8 21.59 8L25.27 8L25.27 12.15L25.43 12.15Z" fill="#1778D0" fill-opacity="1.000000" fill-rule="nonzero"/>
</svg>
