<svg width="40.000000" height="40.000000" viewBox="0 0 40 40" fill="none" xmlns="http://www.w3.org/2000/svg" xmlns:xlink="http://www.w3.org/1999/xlink">
	<desc>
			Created with Pixso.
	</desc>
	<defs/>
	<circle cx="20.000000" cy="20.000000" r="17.000000" fill="#FFFFFF" fill-opacity="1.000000"/>
	<path d="M27.67 11.36C28 11.67 28.16 12.15 28.16 12.63C28.16 13.12 28 13.6 27.67 13.91C27.35 14.08 26.88 14.39 26.56 14.39C26.08 14.39 25.59 14.24 25.27 13.91C24.96 13.6 24.8 13.12 24.8 12.63C24.8 12.15 24.96 11.67 25.27 11.36C25.59 11.04 26.08 10.87 26.56 10.87C26.88 10.87 27.35 11.04 27.67 11.36ZM20 13.76C16.48 13.76 13.75 16.63 13.75 20C13.75 23.36 16.64 26.24 20 26.24C23.51 26.24 26.24 23.36 26.24 20C26.24 16.63 23.51 13.76 20 13.76ZM40 20C40 31.04 31.03 40 20 40C8.96 40 0 31.04 0 20C0 8.95 8.96 0 20 0C31.03 0 40 8.95 40 20ZM31.83 16.32C31.83 14.08 31.03 12.15 29.43 10.56C27.83 8.95 25.91 8.15 23.67 8.15L16.16 8.15C13.91 8.15 12 8.95 10.4 10.56C8.8 12.15 8 14.08 8 16.32L8 23.84C8 26.08 8.8 28 10.4 29.6C12 31.2 13.91 32 16.16 32L23.67 32C25.91 32 27.83 31.2 29.43 29.6C31.03 28 31.83 26.08 31.83 23.84L31.83 16.32Z" fill="#AF24D1" fill-opacity="1.000000" fill-rule="nonzero"/>
</svg>
