<svg width="24.000000" height="23.000000" viewBox="0 0 24 23" fill="none" xmlns="http://www.w3.org/2000/svg" xmlns:xlink="http://www.w3.org/1999/xlink">
	<desc>
			Created with Pixso.
	</desc>
	<defs/>
	<path id="Vector" d="M20.49 2.51C15.8 -2.17 8.19 -2.17 3.5 2.51C-1.17 7.19 -1.17 14.8 3.5 19.48C5.85 21.82 8.92 22.99 12 22.99C15.07 22.99 18.14 21.82 20.49 19.48C25.16 14.8 25.16 7.19 20.49 2.51ZM7.72 4.64C8.17 4.2 8.76 3.95 9.38 3.95C10.01 3.95 10.6 4.2 11.05 4.64C11.49 5.09 11.73 5.68 11.73 6.3C11.73 6.93 11.49 7.52 11.05 7.97C10.6 8.41 10.01 8.65 9.38 8.65C8.76 8.65 8.17 8.41 7.72 7.97C7.28 7.52 7.04 6.93 7.04 6.3C7.04 5.68 7.28 5.09 7.72 4.64ZM8.12 15.98C7.97 16.13 7.76 16.21 7.57 16.21C7.36 16.21 7.16 16.13 7.01 15.98C6.71 15.67 6.71 15.18 7.01 14.87L15.87 6.01C16.18 5.71 16.67 5.71 16.98 6.01C17.28 6.32 17.28 6.81 16.98 7.12L8.12 15.98ZM16.79 16.83C16.34 17.28 15.75 17.52 15.13 17.52C14.5 17.52 13.91 17.28 13.47 16.83C13.02 16.39 12.78 15.8 12.78 15.17C12.78 14.54 13.02 13.95 13.47 13.51C13.91 13.07 14.5 12.82 15.13 12.82C15.75 12.82 16.34 13.07 16.79 13.51C17.23 13.95 17.48 14.54 17.48 15.17C17.48 15.8 17.23 16.39 16.79 16.83Z" fill="#FFBC57" fill-opacity="1.000000" fill-rule="nonzero"/>
</svg>
