<svg width="40.000000" height="40.000000" viewBox="0 0 40 40" fill="none" xmlns="http://www.w3.org/2000/svg" xmlns:xlink="http://www.w3.org/1999/xlink">
	<desc>
			Created with Pixso.
	</desc>
	<defs>
		<clipPath id="clip195_5668">
			<rect id="question" width="40.000000" height="40.000000" fill="white" fill-opacity="0"/>
		</clipPath>
	</defs>
	<rect id="question" width="40.000000" height="40.000000" fill="#FFFFFF" fill-opacity="0"/>
	<g clip-path="url(#clip195_5668)">
		<path id="Vector" d="M18.81 25.48C18.74 25.56 18.67 25.64 18.61 25.73C18.55 25.82 18.5 25.92 18.46 26.03C18.41 26.12 18.38 26.22 18.36 26.33C18.35 26.44 18.35 26.55 18.36 26.66C18.35 26.88 18.4 27.1 18.49 27.3C18.57 27.5 18.69 27.69 18.84 27.85C19 28 19.19 28.12 19.39 28.2C19.59 28.28 19.81 28.33 20.03 28.33C20.25 28.33 20.46 28.28 20.66 28.2C20.87 28.12 21.06 28 21.21 27.85C21.37 27.69 21.49 27.5 21.56 27.3C21.63 27.09 21.67 26.88 21.66 26.66C21.66 26.44 21.62 26.23 21.54 26.02C21.45 25.82 21.33 25.63 21.18 25.48C21.02 25.32 20.84 25.2 20.64 25.11C20.43 25.03 20.21 24.99 19.99 24.99C19.77 24.99 19.56 25.03 19.35 25.11C19.15 25.2 18.97 25.32 18.81 25.48ZM19.99 3.33C16.7 3.33 13.48 4.31 10.73 6.14C7.99 7.97 5.86 10.57 4.6 13.62C3.33 16.66 3 20.01 3.65 23.25C4.29 26.48 5.88 29.45 8.21 31.78C10.54 34.11 13.51 35.7 16.74 36.34C19.98 36.98 23.33 36.65 26.37 35.39C29.42 34.13 32.02 32 33.85 29.25C35.68 26.51 36.66 23.29 36.66 20C36.66 17.81 36.23 15.64 35.39 13.62C34.55 11.59 33.33 9.76 31.78 8.21C30.23 6.66 28.39 5.43 26.37 4.6C24.35 3.76 22.18 3.33 19.99 3.33ZM19.99 33.33C17.36 33.33 14.78 32.55 12.59 31.08C10.39 29.62 8.68 27.53 7.67 25.1C6.67 22.66 6.4 19.98 6.92 17.39C7.43 14.81 8.7 12.43 10.57 10.57C12.43 8.7 14.81 7.43 17.39 6.92C19.98 6.4 22.66 6.67 25.1 7.68C27.53 8.69 29.61 10.39 31.08 12.59C32.55 14.78 33.33 17.36 33.33 20C33.33 23.53 31.92 26.92 29.42 29.42C26.92 31.92 23.53 33.33 19.99 33.33ZM19.99 11.66C19.12 11.66 18.25 11.89 17.49 12.33C16.73 12.77 16.1 13.4 15.66 14.16C15.54 14.35 15.46 14.56 15.42 14.79C15.39 15.01 15.4 15.23 15.45 15.45C15.5 15.67 15.6 15.88 15.73 16.06C15.87 16.24 16.04 16.39 16.23 16.5C16.43 16.61 16.64 16.68 16.87 16.71C17.09 16.74 17.32 16.72 17.53 16.66C17.75 16.59 17.95 16.49 18.12 16.35C18.3 16.2 18.44 16.03 18.54 15.83C18.69 15.57 18.9 15.36 19.16 15.22C19.41 15.07 19.7 14.99 19.99 15C20.44 15 20.86 15.17 21.17 15.48C21.49 15.8 21.66 16.22 21.66 16.66C21.66 17.1 21.49 17.53 21.17 17.84C20.86 18.15 20.44 18.33 19.99 18.33C19.55 18.33 19.13 18.5 18.82 18.82C18.5 19.13 18.33 19.55 18.33 20L18.33 21.66C18.33 22.1 18.5 22.53 18.82 22.84C19.13 23.15 19.55 23.33 19.99 23.33C20.44 23.33 20.86 23.15 21.17 22.84C21.49 22.53 21.66 22.1 21.66 21.66L21.66 21.36C22.76 20.96 23.69 20.19 24.28 19.17C24.87 18.16 25.08 16.97 24.88 15.81C24.68 14.66 24.08 13.61 23.19 12.85C22.3 12.09 21.17 11.67 19.99 11.66Z" fill="#FFBC57" fill-opacity="1.000000" fill-rule="nonzero"/>
	</g>
</svg>
