<svg width="50.000000" height="50.000000" viewBox="0 0 50 50" fill="none" xmlns="http://www.w3.org/2000/svg" xmlns:xlink="http://www.w3.org/1999/xlink">
	<desc>
			Created with Pixso.
	</desc>
	<defs>
		<clipPath id="clip15_738">
			<rect id="tel" width="50.000000" height="50.000000" fill="white" fill-opacity="0"/>
		</clipPath>
	</defs>
	<rect id="tel" width="50.000000" height="50.000000" fill="#FFFFFF" fill-opacity="0"/>
	<g clip-path="url(#clip15_738)">
		<g opacity="0.200000">
			<circle id="Ellipse 9" cx="25.000000" cy="25.000000" r="24.000000" stroke="#B1B1B1" stroke-opacity="1.000000" stroke-width="2.000000"/>
		</g>
		<path id="Vector" d="M31.4 26C31.18 26 30.95 25.92 30.73 25.87C30.29 25.78 29.85 25.65 29.42 25.49C28.96 25.32 28.45 25.33 27.99 25.51C27.53 25.69 27.16 26.04 26.94 26.49L26.72 26.95C25.75 26.39 24.85 25.72 24.05 24.95C23.28 24.14 22.6 23.25 22.05 22.28L22.51 22.07C22.96 21.85 23.3 21.47 23.49 21.02C23.67 20.56 23.68 20.05 23.51 19.59C23.35 19.15 23.22 18.71 23.12 18.27C23.07 18.04 23.03 17.82 23 17.6C22.88 16.89 22.51 16.25 21.96 15.8C21.41 15.34 20.72 15.09 20 15.11L16.99 15.11C16.57 15.1 16.15 15.19 15.77 15.37C15.38 15.54 15.03 15.79 14.75 16.11C14.47 16.43 14.25 16.81 14.12 17.23C14 17.64 13.96 18.08 14.02 18.51C14.57 22.67 16.47 26.53 19.43 29.51C22.4 32.47 26.27 34.37 30.43 34.91C30.56 34.92 30.69 34.92 30.82 34.91C31.56 34.92 32.27 34.65 32.82 34.15C33.14 33.87 33.39 33.53 33.56 33.14C33.74 32.76 33.82 32.34 33.82 31.91L33.82 28.91C33.82 28.22 33.57 27.56 33.13 27.02C32.69 26.49 32.08 26.13 31.4 26ZM31.89 32C31.89 32.13 31.86 32.27 31.81 32.4C31.75 32.53 31.67 32.64 31.56 32.74C31.45 32.83 31.32 32.91 31.18 32.95C31.04 33 30.89 33.01 30.74 32.99C27.01 32.5 23.54 30.8 20.87 28.14C18.2 25.47 16.49 21.99 15.99 18.25C15.97 18.1 15.98 17.95 16.03 17.81C16.07 17.66 16.14 17.53 16.24 17.42C16.34 17.32 16.45 17.24 16.58 17.18C16.71 17.12 16.85 17.09 16.99 17.1L19.99 17.1C20.22 17.09 20.45 17.16 20.63 17.31C20.82 17.45 20.94 17.65 20.99 17.87C20.99 18.14 21.08 18.42 21.14 18.7C21.26 19.22 21.41 19.73 21.6 20.24L20.2 20.89C19.96 21.01 19.77 21.21 19.68 21.46C19.58 21.7 19.58 21.97 19.68 22.22C21.12 25.3 23.6 27.78 26.68 29.22C26.93 29.32 27.2 29.32 27.44 29.22C27.69 29.12 27.89 28.94 28 28.7L28.63 27.3C29.15 27.48 29.68 27.64 30.21 27.76C30.47 27.82 30.75 27.87 31.02 27.9C31.25 27.96 31.45 28.08 31.59 28.27C31.73 28.45 31.81 28.67 31.8 28.9L31.89 32ZM25.99 15C25.76 15 25.52 15 25.29 15C25.03 15.02 24.78 15.14 24.61 15.35C24.44 15.55 24.35 15.81 24.38 16.08C24.4 16.35 24.53 16.59 24.73 16.76C24.93 16.93 25.2 17.02 25.46 17L25.99 17C27.58 17 29.11 17.63 30.24 18.75C31.36 19.88 31.99 21.4 31.99 23C31.99 23.17 31.99 23.35 31.99 23.53C31.97 23.79 32.05 24.05 32.22 24.25C32.4 24.46 32.64 24.58 32.9 24.61L32.98 24.61C33.23 24.61 33.48 24.51 33.66 24.34C33.84 24.18 33.96 23.94 33.98 23.7C33.98 23.47 33.98 23.23 33.98 23C33.98 20.87 33.14 18.84 31.64 17.34C30.15 15.84 28.11 15 25.99 15ZM27.99 23C27.99 23.26 28.1 23.51 28.29 23.7C28.47 23.89 28.73 24 28.99 24C29.26 24 29.51 23.89 29.7 23.7C29.89 23.51 29.99 23.26 29.99 23C29.99 21.93 29.57 20.92 28.82 20.17C28.07 19.42 27.05 19 25.99 19C25.73 19 25.47 19.1 25.29 19.29C25.1 19.48 24.99 19.73 24.99 20C24.99 20.26 25.1 20.51 25.29 20.7C25.47 20.89 25.73 21 25.99 21C26.52 21 27.03 21.21 27.41 21.58C27.78 21.96 27.99 22.46 27.99 23Z" fill="#B1B1B1" fill-opacity="1.000000" fill-rule="nonzero"/>
	</g>
</svg>
