<svg width="40.000000" height="40.000000" viewBox="0 0 40 40" fill="none" xmlns="http://www.w3.org/2000/svg" xmlns:xlink="http://www.w3.org/1999/xlink">
	<desc>
			Created with Pixso.
	</desc>
	<defs/>
	<path id="Vector" d="M20 0C8.95 0 0 8.95 0 20C0 31.04 8.95 40 20 40C31.04 40 40 31.04 40 20C40 8.95 31.04 0 20 0Z" fill="#40B3E0" fill-opacity="1.000000" fill-rule="nonzero"/>
	<path id="Vector" d="M29.73 11.5L26.16 29.51C26.16 29.51 25.66 30.76 24.28 30.16L16.04 23.84L13.04 22.39L8 20.69C8 20.69 7.22 20.42 7.15 19.82C7.07 19.22 8.02 18.89 8.02 18.89L28.08 11.02C28.08 11.02 29.73 10.3 29.73 11.5Z" fill="#FFFFFF" fill-opacity="1.000000" fill-rule="nonzero"/>
	<path id="Vector" d="M15.4 29.31C15.4 29.31 15.16 29.29 14.86 28.34C14.56 27.39 13.04 22.39 13.04 22.39L25.16 14.7C25.16 14.7 25.85 14.27 25.83 14.7C25.83 14.7 25.95 14.77 25.58 15.12C25.21 15.47 16.06 23.69 16.06 23.69L15.4 29.31Z" fill="#D2E5F1" fill-opacity="1.000000" fill-rule="nonzero"/>
	<path id="Vector" d="M19.2 26.26L15.94 29.24C15.94 29.24 15.68 29.43 15.4 29.31L16.03 23.79L19.2 26.26Z" fill="#B5CFE4" fill-opacity="1.000000" fill-rule="nonzero"/>
</svg>
