<svg width="40.000000" height="40.000000" viewBox="0 0 40 40" fill="none" xmlns="http://www.w3.org/2000/svg" xmlns:xlink="http://www.w3.org/1999/xlink">
	<desc>
			Created with Pixso.
	</desc>
	<defs>
		<clipPath id="clip15_815">
			<rect width="40.000000" height="40.000000" fill="white" fill-opacity="0"/>
		</clipPath>
	</defs>
	<g clip-path="url(#clip15_815)">
		<path d="M40 20C40 31.04 31.04 40 20 40C8.95 40 0 31.04 0 20C0 8.95 8.95 0 20 0C31.04 0 40 8.95 40 20Z" fill="#6F3FAA" fill-opacity="1.000000" fill-rule="evenodd"/>
		<path d="M30.58 14.05L30.57 14.03C30.03 11.86 27.62 9.55 25.41 9.06L25.39 9.06C21.81 8.38 18.18 8.38 14.6 9.06L14.58 9.06C12.36 9.55 9.96 11.86 9.42 14.03L9.41 14.05C8.75 17.07 8.75 20.13 9.41 23.15L9.42 23.17C9.93 25.24 12.16 27.45 14.29 28.06L14.29 30.47C14.29 31.34 15.36 31.77 15.96 31.14L18.4 28.6C18.93 28.63 19.46 28.65 20 28.65C21.8 28.65 23.6 28.48 25.39 28.14L25.41 28.13C27.62 27.65 30.03 25.33 30.57 23.17L30.58 23.15C31.24 20.13 31.24 17.07 30.58 14.05ZM28.64 22.71C28.28 24.12 26.45 25.87 25 26.19C23.1 26.56 21.18 26.71 19.26 26.66C19.23 26.66 19.19 26.67 19.16 26.7C18.89 26.98 17.38 28.53 17.38 28.53L15.48 30.48C15.34 30.62 15.1 30.52 15.1 30.32L15.1 26.33C15.1 26.26 15.05 26.21 14.99 26.19C14.99 26.19 14.99 26.19 14.99 26.19C13.53 25.87 11.7 24.12 11.35 22.71C10.75 19.98 10.75 17.22 11.35 14.49C11.7 13.08 13.53 11.33 14.99 11C18.31 10.37 21.68 10.37 25 11C26.46 11.33 28.28 13.08 28.64 14.49C29.24 17.22 29.24 19.98 28.64 22.71Z" fill="#FFFFFF" fill-opacity="1.000000" fill-rule="nonzero"/>
		<path d="M23.16 24.55C22.93 24.48 22.72 24.44 22.52 24.36C20.47 23.51 18.59 22.41 17.09 20.73C16.25 19.77 15.58 18.69 15.02 17.55C14.75 17.01 14.53 16.45 14.3 15.89C14.09 15.38 14.4 14.85 14.72 14.47C15.02 14.1 15.41 13.83 15.84 13.62C16.17 13.47 16.5 13.56 16.74 13.84C17.26 14.44 17.74 15.08 18.13 15.78C18.36 16.21 18.3 16.74 17.87 17.04C17.76 17.11 17.66 17.19 17.57 17.27C17.48 17.34 17.4 17.41 17.34 17.51C17.23 17.68 17.23 17.89 17.3 18.08C17.83 19.55 18.73 20.69 20.21 21.3C20.44 21.4 20.68 21.51 20.95 21.48C21.41 21.43 21.55 20.93 21.87 20.67C22.18 20.41 22.58 20.41 22.92 20.62C23.26 20.83 23.58 21.06 23.91 21.29C24.22 21.52 24.54 21.74 24.83 22C25.12 22.25 25.21 22.57 25.05 22.91C24.76 23.53 24.34 24.04 23.73 24.37C23.56 24.46 23.35 24.49 23.16 24.55Z" fill="#FFFFFF" fill-opacity="1.000000" fill-rule="nonzero"/>
		<path d="M20 12.92C22.68 12.99 24.88 14.77 25.35 17.42C25.44 17.87 25.46 18.34 25.5 18.79C25.51 18.99 25.41 19.17 25.2 19.17C24.98 19.18 24.89 19 24.87 18.8C24.84 18.42 24.83 18.04 24.77 17.66C24.5 15.66 22.9 14.01 20.92 13.66C20.62 13.6 20.31 13.59 20.01 13.56C19.82 13.54 19.57 13.53 19.52 13.29C19.49 13.09 19.66 12.93 19.85 12.92C19.9 12.92 19.95 12.92 20 12.92Z" fill="#FFFFFF" fill-opacity="1.000000" fill-rule="nonzero"/>
		<path d="M24.08 18.2C24.07 18.23 24.07 18.31 24.05 18.39C23.98 18.65 23.57 18.69 23.48 18.42C23.45 18.34 23.44 18.24 23.44 18.16C23.44 17.59 23.32 17.02 23.03 16.53C22.74 16.02 22.29 15.59 21.76 15.34C21.44 15.18 21.1 15.08 20.75 15.03C20.59 15 20.44 14.98 20.29 14.96C20.1 14.94 20 14.82 20.01 14.64C20.02 14.46 20.15 14.34 20.33 14.35C20.95 14.39 21.54 14.52 22.09 14.81C23.2 15.4 23.83 16.33 24.02 17.57C24.03 17.62 24.04 17.68 24.05 17.74C24.06 17.88 24.07 18.02 24.08 18.2Z" fill="#FFFFFF" fill-opacity="1.000000" fill-rule="nonzero"/>
		<path d="M22.41 18.13C22.18 18.14 22.06 18.01 22.04 17.81C22.02 17.67 22.01 17.52 21.98 17.38C21.91 17.11 21.76 16.85 21.53 16.68C21.42 16.6 21.3 16.55 21.17 16.51C21 16.46 20.83 16.47 20.67 16.43C20.49 16.39 20.39 16.25 20.42 16.08C20.45 15.93 20.59 15.81 20.76 15.82C21.8 15.89 22.54 16.43 22.65 17.66C22.66 17.74 22.66 17.83 22.65 17.92C22.61 18.06 22.51 18.13 22.41 18.13Z" fill="#FFFFFF" fill-opacity="1.000000" fill-rule="nonzero"/>
		<path d="" fill="#FFFFFF" fill-opacity="1.000000" fill-rule="nonzero"/>
		<path d="M20.01 12.92C20.01 12.92 20 12.92 20 12.92C20 12.92 20 12.92 20.01 12.92Z" fill="#FFFFFF" fill-opacity="1.000000" fill-rule="nonzero"/>
		<path d="M20 12.92C20 12.92 20 12.92 20.01 12.92C20.16 12.92 22.58 12.99 20 12.92Z" fill="#FFFFFF" fill-opacity="1.000000" fill-rule="nonzero"/>
		<path d="" fill="#FFFFFF" fill-opacity="1.000000" fill-rule="nonzero"/>
		<path d="M22.41 18.13C22.41 18.13 22.41 18.13 22.42 18.13C22.41 18.13 22.39 18.13 22.38 18.13C22.39 18.13 22.4 18.13 22.41 18.13Z" fill="#FFFFFF" fill-opacity="1.000000" fill-rule="nonzero"/>
		<path d="M22.41 18.13C22.4 18.13 22.39 18.13 22.38 18.13C22.33 18.13 22.28 18.14 22.41 18.13Z" fill="#FFFFFF" fill-opacity="1.000000" fill-rule="nonzero"/>
		<path d="M22.42 18.13C22.41 18.13 22.41 18.13 22.41 18.13C22.43 18.13 22.43 18.13 22.42 18.13Z" fill="#FFFFFF" fill-opacity="1.000000" fill-rule="nonzero"/>
	</g>
</svg>
