<svg width="40.000000" height="40.000000" viewBox="0 0 40 40" fill="none" xmlns="http://www.w3.org/2000/svg" xmlns:xlink="http://www.w3.org/1999/xlink">
	<desc>
			Created with Pixso.
	</desc>
	<defs>
		<clipPath id="clip15_792">
			<rect width="40.000000" height="40.000000" fill="white" fill-opacity="0"/>
		</clipPath>
	</defs>
	<g clip-path="url(#clip15_792)">
		<path d="M40 20C40 31.04 31.04 40 20 40C8.95 40 0 31.04 0 20C0 8.95 8.95 0 20 0C31.04 0 40 8.95 40 20Z" fill="#75B73B" fill-opacity="1.000000" fill-rule="evenodd"/>
		<path d="M19.44 8.47C13.34 8.76 8.53 13.83 8.55 19.94C8.55 21.8 9 23.55 9.79 25.1L8.58 31C8.51 31.32 8.8 31.6 9.12 31.52L14.9 30.15C16.38 30.89 18.05 31.32 19.82 31.35C26.05 31.44 31.24 26.5 31.44 20.27C31.65 13.59 26.14 8.15 19.44 8.47ZM26.33 26.24C24.64 27.93 22.39 28.87 20 28.87C18.59 28.87 17.25 28.55 16.01 27.93L15.2 27.53L11.66 28.37L12.4 24.75L12.01 23.97C11.36 22.7 11.03 21.34 11.03 19.9C11.03 17.51 11.96 15.26 13.66 13.56C15.33 11.89 17.62 10.94 20 10.94C22.39 10.94 24.64 11.87 26.33 13.56C28.03 15.26 28.96 17.51 28.96 19.9C28.96 22.27 28.01 24.56 26.33 26.24Z" fill="#FFFFFF" fill-opacity="1.000000" fill-rule="nonzero"/>
		<path d="M25.55 22.38L23.33 21.75C23.04 21.66 22.73 21.75 22.52 21.96L21.97 22.52C21.75 22.75 21.4 22.82 21.09 22.7C20.05 22.28 17.84 20.31 17.28 19.33C17.11 19.05 17.14 18.7 17.34 18.44L17.81 17.83C18 17.59 18.04 17.26 17.91 16.99L16.98 14.88C16.76 14.37 16.11 14.22 15.69 14.58C15.07 15.1 14.34 15.9 14.25 16.78C14.09 18.33 14.76 20.29 17.28 22.64C20.19 25.36 22.52 25.72 24.04 25.35C24.9 25.14 25.59 24.31 26.02 23.62C26.32 23.16 26.08 22.54 25.55 22.38Z" fill="#FFFFFF" fill-opacity="1.000000" fill-rule="nonzero"/>
	</g>
</svg>
