<svg width="250.000000" height="42.000000" viewBox="0 0 250 42" fill="none" xmlns="http://www.w3.org/2000/svg" xmlns:xlink="http://www.w3.org/1999/xlink">
	<desc>
			Created with Pixso.
	</desc>
	<defs/>
	<path id="Vector" d="M98.52 32.52L94.89 32.52L94.89 30.65L104.03 30.65L104.03 32.52L100.4 32.52L100.4 41.75L98.4 41.75L98.4 32.52L98.52 32.52ZM113.05 41.75L106.42 41.75L106.42 30.65L112.8 30.65L112.8 32.52L108.3 32.52L108.3 35.27L112.3 35.27L112.3 37.13L108.3 37.13L108.3 40L112.93 40L112.93 41.75L113.05 41.75ZM122.7 30.65L124.96 30.65L121.2 36.01L125.08 41.62L122.83 41.62L119.94 37.51L117.07 41.62L114.81 41.62L118.69 36.01L114.94 30.65L117.19 30.65L119.94 34.64L122.7 30.65ZM136.48 41.75L134.48 41.75L134.48 37.01L129.47 37.01L129.47 41.75L127.46 41.75L127.46 30.65L129.47 30.65L129.47 35.14L134.6 35.14L134.6 30.65L136.48 30.65L136.48 41.75ZM139.37 36.26C139.37 34.64 139.87 33.27 141 32.15C142.12 31.03 143.5 30.53 145.13 30.53C146.76 30.53 148.14 31.03 149.26 32.15C150.39 33.27 150.89 34.64 150.89 36.26C150.89 37.88 150.39 39.25 149.26 40.37C148.14 41.5 146.76 42 145.13 42C143.5 42 142.12 41.5 141 40.37C139.87 39.25 139.37 37.88 139.37 36.26ZM141.37 36.26C141.37 37.38 141.75 38.26 142.37 39C143 39.75 144 40.13 145 40.13C146.13 40.13 147.01 39.75 147.76 39C148.39 38.26 148.76 37.38 148.76 36.26C148.76 35.14 148.39 34.14 147.63 33.52C146.88 32.77 146 32.4 145 32.4C143.87 32.4 143 32.77 142.37 33.52C141.75 34.14 141.37 35.14 141.37 36.26ZM161.92 41.75L160.03 41.75L160.03 32.52L156.78 32.52L156.53 34.64C156.4 35.89 156.28 37.01 156.03 37.88C155.78 38.75 155.65 39.5 155.4 40C155.15 40.5 154.9 41 154.52 41.25C154.15 41.5 153.9 41.75 153.52 41.75C153.14 41.87 152.77 41.87 152.27 41.75L152.27 39.88C152.52 39.88 152.64 39.88 152.89 39.88C153.02 39.88 153.27 39.63 153.4 39.38C153.65 39.13 153.77 38.75 153.9 38.26C154.27 37.13 154.52 35.39 154.77 32.9L154.9 30.65L161.92 30.65L161.92 41.75ZM164.8 36.26C164.8 34.64 165.3 33.27 166.43 32.15C167.55 31.03 168.93 30.53 170.56 30.53C172.19 30.53 173.57 31.03 174.69 32.15C175.82 33.27 176.32 34.64 176.32 36.26C176.32 37.88 175.82 39.25 174.69 40.37C173.57 41.5 172.19 42 170.56 42C168.93 42 167.55 41.5 166.43 40.37C165.3 39.25 164.8 37.88 164.8 36.26ZM166.93 36.26C166.93 37.38 167.3 38.26 167.93 39C168.55 39.75 169.56 40.13 170.56 40.13C171.69 40.13 172.57 39.75 173.32 39C173.94 38.26 174.32 37.38 174.32 36.26C174.32 35.14 173.94 34.14 173.19 33.52C172.44 32.77 171.56 32.4 170.56 32.4C169.43 32.4 168.55 32.77 167.93 33.52C167.18 34.14 166.93 35.14 166.93 36.26ZM181.21 41.75L179.2 41.75L179.2 30.65L185.47 30.65L185.47 32.52L181.21 32.52L181.21 41.75ZM190.1 41.75L188.1 41.75L188.1 30.65L190.1 30.65L190.1 41.75ZM192.98 28.78C192.98 28.54 193.11 28.29 193.24 28.04C193.49 27.91 193.74 27.79 193.99 27.79C194.24 27.79 194.49 27.91 194.74 28.04C194.99 28.16 194.99 28.41 194.99 28.78C194.99 29.16 194.86 29.41 194.74 29.53C194.61 29.66 194.36 29.78 193.99 29.78C193.74 29.78 193.49 29.66 193.24 29.53C193.11 29.28 192.98 29.03 192.98 28.78ZM196.24 41.75L194.24 41.75L194.24 30.65L196.24 30.65L196.24 41.75ZM195.62 28.78C195.62 28.54 195.74 28.29 195.87 28.04C196.12 27.91 196.37 27.79 196.62 27.79C196.87 27.79 197.12 27.91 197.37 28.04C197.62 28.29 197.62 28.41 197.62 28.78C197.62 29.16 197.5 29.41 197.37 29.53C197.25 29.78 197 29.78 196.62 29.78C196.24 29.78 195.99 29.66 195.87 29.53C195.74 29.28 195.62 29.03 195.62 28.78ZM211.9 39.25L212.66 40.75C212.28 41.12 211.78 41.37 211.15 41.62C210.52 41.87 209.77 42 209.15 42C207.39 42 206.02 41.5 205.01 40.37C204.01 39.38 203.38 38.01 203.38 36.26C203.38 34.64 203.89 33.27 204.89 32.15C205.89 31.03 207.27 30.53 209.02 30.53C210.4 30.53 211.53 30.9 212.41 31.65L211.53 33.15C210.78 32.65 209.9 32.4 209.02 32.4C208.02 32.4 207.14 32.77 206.39 33.4C205.77 34.14 205.39 35.02 205.39 36.26C205.39 37.38 205.77 38.38 206.39 39.13C207.14 39.88 208.02 40.25 209.15 40.25C210.27 40.13 211.15 39.88 211.9 39.25ZM224.18 41.75L222.3 41.75L222.3 37.01L217.16 37.01L217.16 41.75L215.16 41.75L215.16 30.65L217.16 30.65L217.16 35.14L222.3 35.14L222.3 30.65L224.18 30.65L224.18 41.75ZM235.08 30.65L237.09 30.65L233.33 39.13C232.95 40 232.45 40.62 232.07 41.12C231.57 41.5 231.07 41.75 230.32 41.75C229.57 41.75 229.19 41.62 228.82 41.25L229.44 39.63C229.69 39.75 229.94 39.88 230.32 39.88C230.82 39.88 231.19 39.63 231.45 39.13L231.57 38.75L226.69 30.65L228.94 30.65L232.57 36.89L235.08 30.65Z" fill="#535353" fill-opacity="1.000000" fill-rule="nonzero"/>
	<path id="Vector" d="M92.64 11.71L103.41 24.8L96.52 24.8L87.88 13.95L87.88 24.8L82.49 24.8L82.49 0.24L87.88 0.24L87.88 10.21L96.15 0.24L102.79 0.24L92.64 11.71ZM202.51 5.35L210.03 5.35L210.03 24.8L215.41 24.8L215.41 5.35L222.93 5.35L222.93 0.24L202.39 0.24L202.39 5.35L202.51 5.35ZM118.95 14.95L126.59 24.8L120.08 24.8L113.69 16.07L111.68 16.07L111.68 24.8L106.3 24.8L106.3 0.24L106.92 0.24C108.05 0.24 109.3 0.24 110.68 0.24C112.06 0.24 113.19 0.24 114.06 0.24C121.58 0.24 123.21 4.48 123.21 8.1C123.21 9.97 122.71 11.59 121.71 12.83C120.83 13.7 119.95 14.45 118.95 14.95ZM112.31 5.35C112.06 5.35 111.93 5.35 111.68 5.35L111.68 10.96L113.69 10.96C114.82 10.96 115.82 10.71 116.57 10.09C117.19 9.59 117.57 8.84 117.57 7.97C117.57 6.72 117.19 5.23 113.81 5.23C113.69 5.23 113.56 5.23 113.31 5.23C113.06 5.35 112.68 5.35 112.31 5.35ZM193.87 0.24L204.27 24.8L198.5 24.8L196.12 18.81L186.98 18.81L184.6 24.8L179.09 24.8L189.35 0.24L193.87 0.24ZM191.49 7.72L188.98 13.7L193.99 13.7L191.49 7.72ZM249.49 12.58C249.49 16.2 248.24 19.31 245.86 21.68C243.48 24.05 240.35 25.29 236.71 25.29C233.08 25.29 229.95 24.17 227.57 21.81C225.19 19.44 223.93 16.45 223.93 12.71C223.93 9.22 225.19 6.1 227.57 3.73C229.95 1.37 233.08 0.12 236.71 0.12C240.35 0.12 243.48 1.24 245.86 3.61C248.24 5.73 249.49 8.84 249.49 12.58ZM241.98 17.94C243.35 16.45 243.98 14.7 243.98 12.46C243.98 10.21 243.35 8.47 241.85 6.97C240.47 5.6 238.72 4.86 236.71 4.86C234.58 4.86 232.95 5.6 231.58 6.97C230.2 8.35 229.57 10.21 229.57 12.46C229.57 14.7 230.2 16.45 231.58 17.82C232.95 19.31 234.58 19.94 236.71 19.94C238.97 20.06 240.6 19.44 241.98 17.94ZM176.08 0.24L169.81 16.45L163.3 0.24L157.53 0.24L167.68 24.8L171.69 24.8L181.59 0.24L176.08 0.24Z" fill="#535353" fill-opacity="1.000000" fill-rule="nonzero"/>
	<path id="XMLID_1_" d="M153.1 2.49C151.59 0.99 149.58 0.12 147.45 0.12C145.31 0.12 143.3 0.99 141.8 2.49L141.42 2.86L140.92 2.36C139.41 0.87 137.4 0 135.27 0C133.13 0 131.12 0.87 129.61 2.36C128.1 3.86 127.23 5.86 127.23 7.98C127.23 10.1 128.1 12.09 129.61 13.59L140.54 24.44C140.79 24.69 141.04 24.81 141.42 24.81C141.8 24.81 142.05 24.69 142.3 24.44L153.23 13.59C154.73 12.09 155.61 10.1 155.61 7.98C155.61 5.86 154.73 3.99 153.1 2.49Z" fill="#00B5FF" fill-opacity="1.000000" fill-rule="nonzero"/>
	<mask id="mask2_1079" mask-type="alpha" maskUnits="userSpaceOnUse" x="127.230469" y="0.000000" width="28.382812" height="24.818481">
		<path id="XMLID_1_" d="M153.1 2.49C151.59 0.99 149.58 0.12 147.45 0.12C145.31 0.12 143.3 0.99 141.8 2.49L141.42 2.86L140.92 2.36C139.41 0.87 137.4 0 135.27 0C133.13 0 131.12 0.87 129.61 2.36C128.1 3.86 127.23 5.86 127.23 7.98C127.23 10.1 128.1 12.09 129.61 13.59L140.54 24.44C140.79 24.69 141.04 24.81 141.42 24.81C141.8 24.81 142.05 24.69 142.3 24.44L153.23 13.59C154.73 12.09 155.61 10.1 155.61 7.98C155.61 5.86 154.73 3.99 153.1 2.49Z" fill="#00B5FF" fill-opacity="1.000000" fill-rule="nonzero"/>
	</mask>
	<g mask="url(#mask2_1079)">
		<rect id="Rectangle 1" x="126.292969" y="10.322716" width="30.067518" height="15.084416" fill="#FFBC00" fill-opacity="1.000000"/>
	</g>
	<path id="Vector" d="M7.23 14.4L7.23 40.8C7.23 41.52 6.75 42 6.02 42L1.2 42C0.48 42 0 41.52 0 40.8L0 14.4C0 13.68 0.48 13.2 1.2 13.2L6.02 13.2C6.75 13.2 7.23 13.8 7.23 14.4ZM72.79 13.2L67.97 13.2C67.24 13.2 66.76 13.68 66.76 14.4L66.76 40.8C66.76 41.52 67.24 42 67.97 42L72.79 42C73.51 42 74 41.52 74 40.8L74 14.4C74 13.8 73.51 13.2 72.79 13.2Z" fill="#FFBC57" fill-opacity="1.000000" fill-rule="nonzero"/>
	<path id="Vector" d="M64.35 21.6L64.35 28.8C64.35 29.52 63.87 30 63.14 30L10.85 30C10.12 30 9.64 29.52 9.64 28.8L9.64 21.6C9.64 20.88 10.12 20.4 10.85 20.4L63.14 20.4C63.87 20.4 64.35 20.88 64.35 21.6ZM10.85 18L25.06 18C25.78 18 26.27 17.52 26.27 16.79L26.27 1.2C26.27 0.48 25.78 0 25.06 0L10.85 0C10.12 0 9.64 0.48 9.64 1.2L9.64 16.79C9.64 17.52 10.12 18 10.85 18ZM29.89 18L44.1 18C44.82 18 45.31 17.52 45.31 16.79L45.31 1.2C45.31 0.48 44.82 0 44.1 0L29.89 0C29.16 0 28.68 0.48 28.68 1.2L28.68 16.79C28.68 17.52 29.16 18 29.89 18ZM63.14 0L48.92 0C48.2 0 47.72 0.48 47.72 1.2L47.72 16.79C47.72 17.52 48.2 18 48.92 18L63.14 18C63.87 18 64.35 17.52 64.35 16.79L64.35 1.2C64.35 0.48 63.87 0 63.14 0ZM63.14 32.4L10.85 32.4C10.12 32.4 9.64 32.88 9.64 33.59L9.64 40.8C9.64 41.52 10.12 42 10.85 42L17.83 42C18.55 42 19.03 41.52 19.03 40.8L19.03 39.59L54.95 39.59L54.95 40.8C54.95 41.52 55.44 42 56.16 42L63.14 42C63.87 42 64.35 41.52 64.35 40.8L64.35 33.59C64.35 32.88 63.87 32.4 63.14 32.4Z" fill="#FFBC57" fill-opacity="1.000000" fill-rule="nonzero"/>
</svg>
