<svg width="50.000000" height="50.000000" viewBox="0 0 50 50" fill="none" xmlns="http://www.w3.org/2000/svg" xmlns:xlink="http://www.w3.org/1999/xlink">
	<desc>
			Created with Pixso.
	</desc>
	<defs>
		<clipPath id="clip42_110">
			<rect width="50.000000" height="50.000000" fill="white" fill-opacity="0"/>
		</clipPath>
	</defs>
	<rect width="50.000000" height="50.000000" fill="#FFFFFF" fill-opacity="0"/>
	<g clip-path="url(#clip42_110)">
		<circle cx="25.000000" cy="25.000000" r="24.000000" stroke="#FFBC57" stroke-opacity="1.000000" stroke-width="2.000000"/>
		<path d="M35.56 16.43C34.18 15.05 32.36 14.21 30.42 14.06C28.48 13.91 26.55 14.45 24.98 15.6C23.33 14.37 21.27 13.82 19.23 14.04C17.19 14.27 15.3 15.26 13.96 16.82C12.62 18.38 11.92 20.39 12 22.44C12.08 24.5 12.94 26.45 14.4 27.89L22.45 35.96C23.12 36.62 24.03 37 24.98 37C25.92 37 26.83 36.62 27.51 35.96L35.56 27.89C37.07 26.37 37.92 24.31 37.92 22.16C37.92 20.02 37.07 17.95 35.56 16.43ZM33.73 26.1L25.68 34.16C25.59 34.25 25.48 34.32 25.36 34.37C25.24 34.42 25.11 34.45 24.98 34.45C24.85 34.45 24.72 34.42 24.6 34.37C24.48 34.32 24.37 34.25 24.28 34.16L16.22 26.07C15.21 25.03 14.64 23.63 14.64 22.18C14.64 20.72 15.21 19.33 16.22 18.29C17.26 17.26 18.66 16.69 20.11 16.69C21.57 16.69 22.97 17.26 24 18.29C24.13 18.41 24.27 18.5 24.43 18.57C24.58 18.64 24.75 18.67 24.93 18.67C25.1 18.67 25.27 18.64 25.42 18.57C25.58 18.5 25.73 18.41 25.85 18.29C26.88 17.26 28.28 16.69 29.74 16.69C31.19 16.69 32.59 17.26 33.63 18.29C34.66 19.31 35.25 20.7 35.26 22.15C35.28 23.61 34.73 25.01 33.73 26.07L33.73 26.1Z" fill="#535353" fill-opacity="1.000000" fill-rule="nonzero"/>
	</g>
</svg>
