<svg width="30.000000" height="30.000000" viewBox="0 0 30 30" fill="none" xmlns="http://www.w3.org/2000/svg" xmlns:xlink="http://www.w3.org/1999/xlink">
	<desc>
			Created with Pixso.
	</desc>
	<defs>
		<clipPath id="clip47_271">
			<rect id="whatsapp" width="30.000000" height="30.000000" fill="white" fill-opacity="0"/>
		</clipPath>
	</defs>
	<g clip-path="url(#clip47_271)">
		<path id="Vector" d="M30 15C30 23.28 23.28 30 15 30C6.71 30 0 23.28 0 15C0 6.71 6.71 0 15 0C23.28 0 30 6.71 30 15Z" fill="#75B73B" fill-opacity="1.000000" fill-rule="evenodd"/>
		<path id="Vector" d="M14.58 6.35C10 6.57 6.4 10.37 6.41 14.95C6.41 16.35 6.75 17.66 7.34 18.82L6.43 23.25C6.38 23.49 6.6 23.7 6.84 23.64L11.17 22.61C12.29 23.17 13.54 23.49 14.86 23.51C19.53 23.58 23.43 19.87 23.58 15.2C23.73 10.19 19.6 6.11 14.58 6.35ZM19.75 19.68C18.48 20.95 16.79 21.65 15 21.65C13.94 21.65 12.94 21.41 12 20.95L11.4 20.65L8.74 21.28L9.3 18.56L9 17.98C8.52 17.03 8.27 16 8.27 14.92C8.27 13.13 8.97 11.44 10.24 10.17C11.5 8.91 13.22 8.2 15 8.2C16.79 8.2 18.48 8.9 19.75 10.17C21.02 11.44 21.72 13.13 21.72 14.92C21.72 16.7 21.01 18.42 19.75 19.68Z" fill="#FFFFFF" fill-opacity="1.000000" fill-rule="nonzero"/>
		<path id="Vector" d="M19.16 16.79L17.5 16.31C17.28 16.25 17.04 16.31 16.89 16.47L16.48 16.89C16.31 17.06 16.05 17.12 15.82 17.02C15.03 16.71 13.38 15.23 12.96 14.5C12.83 14.29 12.85 14.02 13 13.83L13.36 13.37C13.5 13.19 13.53 12.95 13.44 12.74L12.74 11.16C12.57 10.78 12.08 10.67 11.77 10.93C11.3 11.33 10.75 11.92 10.69 12.58C10.57 13.75 11.07 15.22 12.96 16.98C15.14 19.02 16.89 19.29 18.03 19.01C18.67 18.86 19.19 18.23 19.51 17.72C19.74 17.37 19.56 16.9 19.16 16.79Z" fill="#FFFFFF" fill-opacity="1.000000" fill-rule="nonzero"/>
	</g>
</svg>
