<svg width="40.000000" height="40.000000" viewBox="0 0 40 40" fill="none" xmlns="http://www.w3.org/2000/svg" xmlns:xlink="http://www.w3.org/1999/xlink">
	<desc>
			Created with Pixso.
	</desc>
	<defs>
		<clipPath id="clip159_3373">
			<rect id="location " width="40.000000" height="40.000000" fill="white" fill-opacity="0"/>
		</clipPath>
	</defs>
	<rect id="location " width="40.000000" height="40.000000" fill="#FFFFFF" fill-opacity="0"/>
	<g clip-path="url(#clip159_3373)">
		<path id="Vector" d="M34.09 16.04C33.86 13.61 33 11.28 31.6 9.27C30.19 7.27 28.29 5.66 26.09 4.61C23.88 3.56 21.43 3.1 18.99 3.27C16.55 3.44 14.2 4.24 12.16 5.59C10.41 6.77 8.94 8.31 7.86 10.12C6.77 11.92 6.1 13.95 5.89 16.04C5.69 18.13 5.95 20.23 6.66 22.2C7.37 24.17 8.51 25.95 10 27.43L18.83 36.28C18.98 36.43 19.17 36.56 19.37 36.64C19.57 36.73 19.79 36.77 20.01 36.77C20.23 36.77 20.45 36.73 20.65 36.64C20.85 36.56 21.04 36.43 21.19 36.28L30 27.43C31.48 25.95 32.62 24.17 33.33 22.2C34.04 20.23 34.3 18.13 34.09 16.04ZM27.66 25.08L20 32.75L12.33 25.08C11.2 23.95 10.33 22.58 9.79 21.08C9.25 19.57 9.06 17.97 9.21 16.38C9.37 14.76 9.88 13.2 10.71 11.81C11.55 10.42 12.68 9.23 14.03 8.33C15.8 7.15 17.87 6.53 20 6.53C22.12 6.53 24.19 7.15 25.96 8.33C27.31 9.23 28.44 10.41 29.27 11.8C30.1 13.18 30.62 14.74 30.78 16.35C30.94 17.94 30.74 19.55 30.2 21.06C29.66 22.57 28.8 23.94 27.66 25.08ZM20 10C18.51 10 17.06 10.43 15.83 11.26C14.59 12.08 13.63 13.25 13.07 14.62C12.5 16 12.35 17.5 12.64 18.96C12.93 20.41 13.64 21.75 14.69 22.8C15.74 23.85 17.08 24.56 18.53 24.85C19.99 25.14 21.49 24.99 22.86 24.42C24.24 23.86 25.41 22.9 26.23 21.66C27.05 20.43 27.5 18.98 27.5 17.5C27.49 15.51 26.7 13.6 25.29 12.2C23.89 10.79 21.98 10 20 10ZM20 21.66C19.17 21.66 18.36 21.42 17.68 20.96C17 20.5 16.46 19.85 16.15 19.09C15.83 18.33 15.75 17.49 15.91 16.68C16.07 15.87 16.47 15.13 17.05 14.55C17.63 13.97 18.37 13.57 19.18 13.41C19.99 13.25 20.83 13.33 21.59 13.65C22.35 13.96 23 14.49 23.46 15.18C23.92 15.87 24.16 16.67 24.16 17.5C24.16 18.6 23.72 19.66 22.94 20.44C22.16 21.22 21.1 21.66 20 21.66Z" fill="#B1B1B1" fill-opacity="1.000000" fill-rule="nonzero"/>
	</g>
</svg>
