<svg width="60.000000" height="60.000000" viewBox="0 0 60 60" fill="none" xmlns="http://www.w3.org/2000/svg" xmlns:xlink="http://www.w3.org/1999/xlink">
	<desc>
			Created with Pixso.
	</desc>
	<defs>
		<clipPath id="clip79_559">
			<rect id="arrow-right" width="60.000000" height="60.000000" fill="white" fill-opacity="0"/>
		</clipPath>
	</defs>
	<g clip-path="url(#clip79_559)">
		<circle id="Ellipse 3" cx="30.000000" cy="30.000000" r="30.000000" fill="#FFFFFF" fill-opacity="1.000000"/>
		<path id="Vector" d="M37.02 28.89L28.56 20.44C28.42 20.3 28.25 20.19 28.07 20.11C27.89 20.03 27.69 20 27.49 20C27.3 20 27.1 20.03 26.92 20.11C26.73 20.19 26.57 20.3 26.43 20.44C26.15 20.72 26 21.1 26 21.49C26 21.89 26.15 22.27 26.43 22.55L33.84 30.03L26.43 37.44C26.15 37.72 26 38.1 26 38.49C26 38.89 26.15 39.27 26.43 39.55C26.57 39.69 26.73 39.8 26.92 39.88C27.1 39.95 27.29 39.99 27.49 40C27.69 39.99 27.89 39.95 28.07 39.88C28.25 39.8 28.42 39.69 28.56 39.55L37.02 31.09C37.18 30.95 37.3 30.78 37.38 30.59C37.46 30.4 37.51 30.2 37.51 29.99C37.51 29.79 37.46 29.58 37.38 29.39C37.3 29.2 37.18 29.03 37.02 28.89Z" fill="#FFBC57" fill-opacity="1.000000" fill-rule="nonzero"/>
	</g>
</svg>
