<svg width="11.000000" height="11.000000" viewBox="0 0 11 11" fill="none" xmlns="http://www.w3.org/2000/svg" xmlns:xlink="http://www.w3.org/1999/xlink">
	<desc>
			Created with Pixso.
	</desc>
	<defs/>
	<path id="Vector" d="M9.93 -0.17C9.84 -0.38 9.66 -0.56 9.45 -0.65C9.34 -0.69 9.22 -0.72 9.11 -0.72L0.18 -0.72C-0.06 -0.72 -0.29 -0.63 -0.45 -0.46C-0.62 -0.29 -0.71 -0.06 -0.71 0.17C-0.71 0.41 -0.62 0.64 -0.45 0.8C-0.29 0.97 -0.06 1.07 0.18 1.07L6.96 1.07L-0.46 8.47C-0.54 8.55 -0.61 8.65 -0.65 8.76C-0.7 8.87 -0.72 8.98 -0.72 9.1C-0.72 9.22 -0.7 9.34 -0.65 9.45C-0.61 9.55 -0.54 9.65 -0.46 9.74C-0.37 9.82 -0.27 9.89 -0.16 9.93C-0.06 9.98 0.06 10 0.18 10C0.3 10 0.41 9.98 0.52 9.93C0.63 9.89 0.73 9.82 0.81 9.74L8.21 2.33L8.21 9.1C8.21 9.34 8.31 9.57 8.48 9.73C8.64 9.9 8.87 9.99 9.11 9.99C9.34 9.99 9.57 9.9 9.74 9.73C9.91 9.57 10 9.34 10 9.1L10 0.17C10 0.06 9.97 -0.06 9.93 -0.17Z" fill="#FFBC57" fill-opacity="1.000000" fill-rule="nonzero"/>
</svg>
