<svg width="24.000000" height="24.000000" viewBox="0 0 24 24" fill="none" xmlns="http://www.w3.org/2000/svg" xmlns:xlink="http://www.w3.org/1999/xlink">
	<desc>
			Created with Pixso.
	</desc>
	<defs>
		<clipPath id="clip78_536">
			<rect id="arrow" width="24.000000" height="24.000000" transform="translate(24.000000 0.000000) rotate(90.000000)" fill="white" fill-opacity="0"/>
		</clipPath>
	</defs>
	<rect id="arrow" width="24.000000" height="24.000000" transform="translate(24.000000 0.000000) rotate(90.000000)" fill="#FFFFFF" fill-opacity="0"/>
	<g clip-path="url(#clip78_536)">
		<path id="Vector" d="M12.71 14.83L16.95 10.59C17.04 10.49 17.11 10.38 17.16 10.26C17.21 10.14 17.24 10.01 17.24 9.88C17.24 9.74 17.21 9.61 17.16 9.49C17.11 9.37 17.04 9.26 16.95 9.17C16.76 8.98 16.5 8.87 16.24 8.87C15.98 8.87 15.72 8.98 15.54 9.17L12 12.71L8.45 9.17C8.27 8.98 8.01 8.87 7.75 8.87C7.49 8.87 7.23 8.98 7.05 9.17C6.95 9.26 6.88 9.37 6.83 9.49C6.78 9.61 6.75 9.74 6.76 9.88C6.75 10.01 6.78 10.14 6.83 10.26C6.88 10.38 6.95 10.49 7.05 10.59L11.29 14.83C11.38 14.92 11.49 14.99 11.61 15.04C11.73 15.09 11.86 15.12 12 15.12C12.13 15.12 12.26 15.09 12.38 15.04C12.5 14.99 12.61 14.92 12.71 14.83Z" fill="#535353" fill-opacity="1.000000" fill-rule="nonzero"/>
	</g>
</svg>
