<svg width="24.000000" height="24.000000" viewBox="0 0 24 24" fill="none" xmlns="http://www.w3.org/2000/svg" xmlns:xlink="http://www.w3.org/1999/xlink">
	<desc>
			Created with Pixso.
	</desc>
	<defs>
		<clipPath id="clip34_1171">
			<rect id="check" width="24.000000" height="24.000000" transform="translate(-0.250000 0.000000)" fill="white" fill-opacity="0"/>
		</clipPath>
	</defs>
	<rect id="check" width="24.000000" height="24.000000" transform="translate(-0.250000 0.000000)" fill="#FFFFFF" fill-opacity="0"/>
	<g clip-path="url(#clip34_1171)">
		<path id="Vector" d="M14.47 8.79L10.18 13.09L8.53 11.43C8.44 11.33 8.33 11.25 8.2 11.19C8.08 11.13 7.94 11.09 7.8 11.09C7.67 11.08 7.53 11.1 7.4 11.15C7.27 11.2 7.16 11.28 7.06 11.38C6.96 11.48 6.88 11.59 6.83 11.72C6.78 11.85 6.76 11.99 6.77 12.12C6.77 12.26 6.81 12.4 6.87 12.52C6.93 12.65 7.01 12.76 7.12 12.85L9.46 15.21C9.56 15.3 9.67 15.37 9.79 15.42C9.91 15.47 10.04 15.5 10.18 15.5C10.44 15.49 10.69 15.39 10.88 15.21L15.88 10.21C15.97 10.11 16.04 10 16.09 9.88C16.14 9.76 16.17 9.63 16.17 9.5C16.17 9.36 16.14 9.23 16.09 9.11C16.04 8.99 15.97 8.88 15.88 8.79C15.69 8.6 15.43 8.49 15.17 8.49C14.91 8.49 14.65 8.6 14.47 8.79ZM11.75 2C9.77 2 7.83 2.58 6.19 3.68C4.54 4.78 3.26 6.34 2.51 8.17C1.75 10 1.55 12.01 1.94 13.95C2.32 15.89 3.28 17.67 4.67 19.07C6.07 20.46 7.85 21.42 9.79 21.8C11.73 22.19 13.74 21.99 15.57 21.23C17.4 20.48 18.96 19.2 20.06 17.55C21.16 15.91 21.75 13.97 21.75 12C21.75 10.68 21.49 9.38 20.98 8.17C20.48 6.95 19.74 5.85 18.82 4.92C17.89 4 16.79 3.26 15.57 2.76C14.36 2.25 13.06 2 11.75 2ZM11.75 20C10.16 20 8.62 19.53 7.3 18.65C5.98 17.77 4.96 16.52 4.35 15.06C3.75 13.59 3.59 11.99 3.9 10.43C4.21 8.88 4.97 7.46 6.09 6.34C7.21 5.22 8.63 4.46 10.18 4.15C11.74 3.84 13.34 4 14.81 4.6C16.27 5.21 17.52 6.23 18.4 7.55C19.28 8.87 19.75 10.41 19.75 12C19.75 14.12 18.9 16.15 17.4 17.65C15.9 19.15 13.87 20 11.75 20Z" fill="#82B09D" fill-opacity="1.000000" fill-rule="nonzero"/>
	</g>
</svg>
