<svg width="50.000000" height="50.000000" viewBox="0 0 50 50" fill="none" xmlns="http://www.w3.org/2000/svg" xmlns:xlink="http://www.w3.org/1999/xlink">
	<desc>
			Created with Pixso.
	</desc>
	<defs>
		<clipPath id="clip42_193">
			<rect id="icon-tel" width="50.000000" height="50.000000" fill="white" fill-opacity="0"/>
		</clipPath>
	</defs>
	<rect id="icon-tel" width="50.000000" height="50.000000" fill="#FFFFFF" fill-opacity="0"/>
	<g clip-path="url(#clip42_193)">
		<circle id="Ellipse 2" cx="25.000000" cy="25.000000" r="25.000000" fill="#F8F8F8" fill-opacity="1.000000"/>
		<path id="Vector" d="M33.09 26.69C32.83 26.69 32.57 26.61 32.31 26.55C31.8 26.44 31.29 26.29 30.8 26.1C30.27 25.91 29.68 25.92 29.15 26.13C28.62 26.34 28.19 26.74 27.94 27.26L27.69 27.79C26.56 27.15 25.53 26.38 24.6 25.48C23.71 24.55 22.93 23.52 22.3 22.4L22.83 22.16C23.34 21.9 23.74 21.47 23.95 20.95C24.16 20.42 24.18 19.83 23.98 19.29C23.8 18.8 23.65 18.29 23.53 17.77C23.47 17.52 23.43 17.25 23.39 17C23.25 16.18 22.83 15.45 22.19 14.92C21.56 14.39 20.75 14.11 19.93 14.12L16.45 14.12C15.97 14.12 15.48 14.22 15.04 14.42C14.59 14.62 14.19 14.91 13.87 15.28C13.54 15.65 13.29 16.09 13.14 16.57C13 17.05 12.96 17.55 13.03 18.05C13.65 22.85 15.85 27.31 19.27 30.74C22.7 34.16 27.16 36.36 31.97 36.99C32.12 37 32.27 37 32.42 36.99C33.27 36.99 34.09 36.68 34.73 36.11C35.09 35.78 35.38 35.39 35.58 34.94C35.78 34.49 35.88 34.01 35.88 33.52L35.88 30.06C35.87 29.26 35.59 28.49 35.08 27.88C34.57 27.26 33.87 26.85 33.09 26.69ZM33.65 33.62C33.65 33.78 33.62 33.94 33.55 34.08C33.49 34.23 33.39 34.36 33.27 34.47C33.14 34.59 32.99 34.67 32.83 34.72C32.67 34.77 32.49 34.78 32.33 34.76C28.02 34.2 24.02 32.23 20.93 29.17C17.85 26.09 15.87 22.07 15.3 17.75C15.28 17.58 15.29 17.4 15.34 17.24C15.39 17.08 15.47 16.93 15.59 16.8C15.7 16.68 15.83 16.58 15.98 16.52C16.13 16.45 16.29 16.42 16.45 16.42L19.92 16.42C20.18 16.41 20.45 16.5 20.66 16.66C20.87 16.83 21.01 17.06 21.07 17.32C21.07 17.63 21.18 17.95 21.24 18.27C21.38 18.87 21.56 19.46 21.78 20.04L20.16 20.8C19.88 20.93 19.67 21.16 19.56 21.45C19.44 21.73 19.44 22.05 19.56 22.33C21.22 25.89 24.08 28.75 27.64 30.41C27.92 30.52 28.24 30.52 28.52 30.41C28.8 30.3 29.04 30.09 29.16 29.81L29.89 28.19C30.49 28.41 31.09 28.59 31.71 28.72C32.01 28.79 32.34 28.85 32.65 28.9C32.91 28.95 33.14 29.1 33.3 29.31C33.47 29.52 33.55 29.78 33.55 30.05L33.65 33.62ZM26.84 14C26.58 14 26.3 14 26.03 14C25.73 14.02 25.45 14.17 25.25 14.4C25.05 14.64 24.95 14.94 24.98 15.25C25 15.55 25.15 15.84 25.39 16.03C25.62 16.23 25.92 16.33 26.23 16.3L26.84 16.3C28.68 16.3 30.44 17.03 31.74 18.33C33.04 19.63 33.77 21.39 33.77 23.23C33.77 23.44 33.77 23.63 33.77 23.84C33.74 24.14 33.84 24.45 34.04 24.68C34.23 24.91 34.51 25.06 34.82 25.09L34.91 25.09C35.2 25.09 35.48 24.98 35.69 24.79C35.91 24.59 36.04 24.32 36.06 24.04C36.06 23.77 36.06 23.49 36.06 23.23C36.06 20.78 35.09 18.43 33.36 16.7C31.64 14.97 29.29 14 26.84 14ZM29.15 23.23C29.15 23.53 29.27 23.83 29.49 24.04C29.71 24.26 30 24.38 30.31 24.38C30.61 24.38 30.9 24.26 31.12 24.04C31.34 23.83 31.46 23.53 31.46 23.23C31.46 22 30.97 20.83 30.11 19.96C29.24 19.1 28.07 18.61 26.84 18.61C26.54 18.61 26.24 18.73 26.03 18.95C25.81 19.17 25.69 19.46 25.69 19.77C25.69 20.07 25.81 20.37 26.03 20.58C26.24 20.8 26.54 20.92 26.84 20.92C27.45 20.92 28.04 21.16 28.47 21.6C28.91 22.03 29.15 22.62 29.15 23.23Z" fill="#535353" fill-opacity="1.000000" fill-rule="nonzero"/>
	</g>
</svg>
