<svg width="250.000000" height="50.000000" viewBox="0 0 250 50" fill="none" xmlns="http://www.w3.org/2000/svg" xmlns:xlink="http://www.w3.org/1999/xlink">
	<desc>
			Created with Pixso.
	</desc>
	<defs>
		<clipPath id="clip10_3">
			<rect id="logo-header" width="250.000000" height="50.000000" fill="white" fill-opacity="0"/>
		</clipPath>
	</defs>
	<rect id="logo-header" width="250.000000" height="50.000000" fill="#FFFFFF" fill-opacity="0"/>
	<g clip-path="url(#clip10_3)">
		<path id="Vector" d="M98.52 36.52L94.89 36.52L94.89 34.65L104.03 34.65L104.03 36.52L100.4 36.52L100.4 45.75L98.4 45.75L98.4 36.52L98.52 36.52ZM113.05 45.75L106.41 45.75L106.41 34.65L112.8 34.65L112.8 36.52L108.29 36.52L108.29 39.27L112.3 39.27L112.3 41.13L108.29 41.13L108.29 44L112.93 44L112.93 45.75L113.05 45.75ZM122.7 34.65L124.96 34.65L121.2 40.01L125.08 45.62L122.83 45.62L119.94 41.51L117.06 45.62L114.81 45.62L118.69 40.01L114.93 34.65L117.19 34.65L119.94 38.64L122.7 34.65ZM136.48 45.75L134.48 45.75L134.48 41.01L129.47 41.01L129.47 45.75L127.46 45.75L127.46 34.65L129.47 34.65L129.47 39.14L134.6 39.14L134.6 34.65L136.48 34.65L136.48 45.75ZM139.36 40.26C139.36 38.64 139.86 37.27 140.99 36.15C142.12 35.03 143.5 34.53 145.13 34.53C146.75 34.53 148.13 35.03 149.26 36.15C150.39 37.27 150.89 38.64 150.89 40.26C150.89 41.88 150.39 43.25 149.26 44.37C148.13 45.5 146.75 46 145.13 46C143.5 46 142.12 45.5 140.99 44.37C139.86 43.25 139.36 41.88 139.36 40.26ZM141.37 40.26C141.37 41.38 141.74 42.26 142.37 43C143 43.75 144 44.13 145 44.13C146.13 44.13 147 43.75 147.76 43C148.38 42.26 148.76 41.38 148.76 40.26C148.76 39.14 148.38 38.14 147.63 37.52C146.88 36.77 146 36.4 145 36.4C143.87 36.4 143 36.77 142.37 37.52C141.74 38.14 141.37 39.14 141.37 40.26ZM161.91 45.75L160.03 45.75L160.03 36.52L156.78 36.52L156.53 38.64C156.4 39.89 156.28 41.01 156.03 41.88C155.77 42.75 155.65 43.5 155.4 44C155.15 44.5 154.9 45 154.52 45.25C154.15 45.5 153.89 45.75 153.52 45.75C153.14 45.87 152.77 45.87 152.27 45.75L152.27 43.88C152.52 43.88 152.64 43.88 152.89 43.88C153.02 43.88 153.27 43.63 153.39 43.38C153.64 43.13 153.77 42.75 153.89 42.26C154.27 41.13 154.52 39.39 154.77 36.9L154.9 34.65L161.91 34.65L161.91 45.75ZM164.8 40.26C164.8 38.64 165.3 37.27 166.42 36.15C167.55 35.03 168.93 34.53 170.56 34.53C172.19 34.53 173.56 35.03 174.69 36.15C175.82 37.27 176.32 38.64 176.32 40.26C176.32 41.88 175.82 43.25 174.69 44.37C173.56 45.5 172.19 46 170.56 46C168.93 46 167.55 45.5 166.42 44.37C165.3 43.25 164.8 41.88 164.8 40.26ZM166.92 40.26C166.92 41.38 167.3 42.26 167.93 43C168.55 43.75 169.56 44.13 170.56 44.13C171.69 44.13 172.56 43.75 173.31 43C173.94 42.26 174.32 41.38 174.32 40.26C174.32 39.14 173.94 38.14 173.19 37.52C172.44 36.77 171.56 36.4 170.56 36.4C169.43 36.4 168.55 36.77 167.93 37.52C167.18 38.14 166.92 39.14 166.92 40.26ZM181.21 45.75L179.2 45.75L179.2 34.65L185.47 34.65L185.47 36.52L181.21 36.52L181.21 45.75ZM190.1 45.75L188.1 45.75L188.1 34.65L190.1 34.65L190.1 45.75ZM192.98 32.78C192.98 32.54 193.11 32.29 193.23 32.04C193.48 31.91 193.74 31.79 193.99 31.79C194.24 31.79 194.49 31.91 194.74 32.04C194.99 32.16 194.99 32.41 194.99 32.78C194.99 33.16 194.86 33.41 194.74 33.53C194.61 33.66 194.36 33.78 193.99 33.78C193.74 33.78 193.48 33.66 193.23 33.53C193.11 33.28 192.98 33.03 192.98 32.78ZM196.24 45.75L194.24 45.75L194.24 34.65L196.24 34.65L196.24 45.75ZM195.61 32.78C195.61 32.54 195.74 32.29 195.87 32.04C196.12 31.91 196.37 31.79 196.62 31.79C196.87 31.79 197.12 31.91 197.37 32.04C197.62 32.29 197.62 32.41 197.62 32.78C197.62 33.16 197.49 33.41 197.37 33.53C197.24 33.78 196.99 33.78 196.62 33.78C196.24 33.78 195.99 33.66 195.87 33.53C195.74 33.28 195.61 33.03 195.61 32.78ZM211.9 43.25L212.65 44.75C212.28 45.12 211.78 45.37 211.15 45.62C210.52 45.87 209.77 46 209.14 46C207.39 46 206.01 45.5 205.01 44.37C204.01 43.38 203.38 42.01 203.38 40.26C203.38 38.64 203.88 37.27 204.89 36.15C205.89 35.03 207.27 34.53 209.02 34.53C210.4 34.53 211.53 34.9 212.4 35.65L211.53 37.15C210.77 36.65 209.9 36.4 209.02 36.4C208.02 36.4 207.14 36.77 206.39 37.4C205.76 38.14 205.39 39.02 205.39 40.26C205.39 41.38 205.76 42.38 206.39 43.13C207.14 43.88 208.02 44.25 209.14 44.25C210.27 44.13 211.15 43.88 211.9 43.25ZM224.18 45.75L222.3 45.75L222.3 41.01L217.16 41.01L217.16 45.75L215.16 45.75L215.16 34.65L217.16 34.65L217.16 39.14L222.3 39.14L222.3 34.65L224.18 34.65L224.18 45.75ZM235.08 34.65L237.08 34.65L233.32 43.13C232.95 44 232.45 44.62 232.07 45.12C231.57 45.5 231.07 45.75 230.32 45.75C229.57 45.75 229.19 45.62 228.81 45.25L229.44 43.63C229.69 43.75 229.94 43.88 230.32 43.88C230.82 43.88 231.19 43.63 231.44 43.13L231.57 42.75L226.68 34.65L228.94 34.65L232.57 40.89L235.08 34.65Z" fill="#535353" fill-opacity="1.000000" fill-rule="nonzero"/>
		<path id="Vector" d="M92.64 15.71L103.41 28.8L96.52 28.8L87.88 17.95L87.88 28.8L82.49 28.8L82.49 4.24L87.88 4.24L87.88 14.21L96.15 4.24L102.79 4.24L92.64 15.71ZM202.51 9.35L210.03 9.35L210.03 28.8L215.42 28.8L215.42 9.35L222.93 9.35L222.93 4.24L202.39 4.24L202.39 9.35L202.51 9.35ZM118.95 18.95L126.59 28.8L120.08 28.8L113.69 20.07L111.68 20.07L111.68 28.8L106.3 28.8L106.3 4.24L106.92 4.24C108.05 4.24 109.3 4.24 110.68 4.24C112.06 4.24 113.19 4.24 114.06 4.24C121.58 4.24 123.21 8.48 123.21 12.1C123.21 13.97 122.71 15.59 121.71 16.83C120.83 17.7 119.95 18.45 118.95 18.95ZM112.31 9.35C112.06 9.35 111.93 9.35 111.68 9.35L111.68 14.96L113.69 14.96C114.82 14.96 115.82 14.71 116.57 14.09C117.2 13.59 117.57 12.84 117.57 11.97C117.57 10.73 117.2 9.23 113.81 9.23C113.69 9.23 113.56 9.23 113.31 9.23C113.06 9.35 112.69 9.35 112.31 9.35ZM193.87 4.24L204.27 28.8L198.5 28.8L196.12 22.81L186.98 22.81L184.6 28.8L179.08 28.8L189.36 4.24L193.87 4.24ZM191.49 11.72L188.98 17.7L193.99 17.7L191.49 11.72ZM249.49 16.58C249.49 20.2 248.24 23.31 245.86 25.68C243.48 28.05 240.35 29.29 236.71 29.29C233.08 29.29 229.95 28.17 227.57 25.81C225.19 23.44 223.94 20.45 223.94 16.71C223.94 13.22 225.19 10.1 227.57 7.73C229.95 5.37 233.08 4.12 236.71 4.12C240.35 4.12 243.48 5.24 245.86 7.61C248.24 9.73 249.49 12.84 249.49 16.58ZM241.98 21.94C243.35 20.45 243.98 18.7 243.98 16.46C243.98 14.21 243.35 12.47 241.85 10.97C240.47 9.6 238.72 8.86 236.71 8.86C234.58 8.86 232.96 9.6 231.58 10.97C230.2 12.35 229.57 14.21 229.57 16.46C229.57 18.7 230.2 20.45 231.58 21.82C232.96 23.31 234.58 23.94 236.71 23.94C238.97 24.06 240.6 23.44 241.98 21.94ZM176.08 4.24L169.81 20.45L163.3 4.24L157.54 4.24L167.68 28.8L171.69 28.8L181.59 4.24L176.08 4.24Z" fill="#535353" fill-opacity="1.000000" fill-rule="nonzero"/>
		<path id="XMLID_1_" d="M153.1 6.49C151.59 4.99 149.58 4.12 147.45 4.12C145.31 4.12 143.3 4.99 141.79 6.49L141.42 6.86L140.91 6.36C139.41 4.87 137.4 4 135.26 4C133.13 4 131.12 4.87 129.61 6.36C128.1 7.86 127.22 9.86 127.22 11.98C127.22 14.1 128.1 16.09 129.61 17.59L140.54 28.44C140.79 28.69 141.04 28.81 141.42 28.81C141.79 28.81 142.05 28.69 142.3 28.44L153.22 17.59C154.73 16.09 155.61 14.1 155.61 11.98C155.61 9.86 154.73 7.99 153.1 6.49Z" fill="#00B5FF" fill-opacity="1.000000" fill-rule="nonzero"/>
		<mask id="mask10_12" mask-type="alpha" maskUnits="userSpaceOnUse" x="127.229492" y="4.000000" width="28.384521" height="24.818481">
			<path id="XMLID_1_" d="M153.1 6.49C151.59 4.99 149.58 4.12 147.45 4.12C145.31 4.12 143.3 4.99 141.79 6.49L141.42 6.86L140.91 6.36C139.41 4.87 137.4 4 135.26 4C133.13 4 131.12 4.87 129.61 6.36C128.1 7.86 127.22 9.86 127.22 11.98C127.22 14.1 128.1 16.09 129.61 17.59L140.54 28.44C140.79 28.69 141.04 28.81 141.42 28.81C141.79 28.81 142.05 28.69 142.3 28.44L153.22 17.59C154.73 16.09 155.61 14.1 155.61 11.98C155.61 9.86 154.73 7.99 153.1 6.49Z" fill="#00B5FF" fill-opacity="1.000000" fill-rule="nonzero"/>
		</mask>
		<g mask="url(#mask10_12)">
			<rect id="Rectangle 1" x="126.293457" y="14.322716" width="30.067518" height="15.084416" fill="#FFBC00" fill-opacity="1.000000"/>
		</g>
		<path id="Vector" d="M7.23 18.4L7.23 44.8C7.23 45.52 6.75 46 6.02 46L1.2 46C0.48 46 0 45.52 0 44.8L0 18.4C0 17.68 0.48 17.2 1.2 17.2L6.02 17.2C6.75 17.2 7.23 17.79 7.23 18.4ZM72.79 17.2L67.97 17.2C67.24 17.2 66.76 17.68 66.76 18.4L66.76 44.8C66.76 45.52 67.24 46 67.97 46L72.79 46C73.51 46 74 45.52 74 44.8L74 18.4C74 17.79 73.51 17.2 72.79 17.2Z" fill="#FFBC57" fill-opacity="1.000000" fill-rule="nonzero"/>
		<path id="Vector" d="M64.35 25.6L64.35 32.8C64.35 33.52 63.87 34 63.14 34L10.85 34C10.12 34 9.64 33.52 9.64 32.8L9.64 25.6C9.64 24.88 10.12 24.4 10.85 24.4L63.14 24.4C63.87 24.4 64.35 24.88 64.35 25.6ZM10.85 22L25.06 22C25.79 22 26.27 21.52 26.27 20.8L26.27 5.2C26.27 4.48 25.79 4 25.06 4L10.85 4C10.12 4 9.64 4.48 9.64 5.2L9.64 20.8C9.64 21.52 10.12 22 10.85 22ZM29.89 22L44.1 22C44.83 22 45.31 21.52 45.31 20.8L45.31 5.2C45.31 4.48 44.83 4 44.1 4L29.89 4C29.16 4 28.68 4.48 28.68 5.2L28.68 20.8C28.68 21.52 29.16 22 29.89 22ZM63.14 4L48.93 4C48.2 4 47.72 4.48 47.72 5.2L47.72 20.8C47.72 21.52 48.2 22 48.93 22L63.14 22C63.87 22 64.35 21.52 64.35 20.8L64.35 5.2C64.35 4.48 63.87 4 63.14 4ZM63.14 36.4L10.85 36.4C10.12 36.4 9.64 36.88 9.64 37.59L9.64 44.8C9.64 45.52 10.12 46 10.85 46L17.83 46C18.55 46 19.03 45.52 19.03 44.8L19.03 43.6L54.96 43.6L54.96 44.8C54.96 45.52 55.44 46 56.16 46L63.14 46C63.87 46 64.35 45.52 64.35 44.8L64.35 37.59C64.35 36.88 63.87 36.4 63.14 36.4Z" fill="#FFBC57" fill-opacity="1.000000" fill-rule="nonzero"/>
	</g>
</svg>
