<svg width="24.000000" height="24.000000" viewBox="0 0 24 24" fill="none" xmlns="http://www.w3.org/2000/svg" xmlns:xlink="http://www.w3.org/1999/xlink">
	<desc>
			Created with Pixso.
	</desc>
	<defs>
		<clipPath id="clip42_196">
			<rect id="poisk" width="24.000000" height="24.000000" fill="white" fill-opacity="0"/>
		</clipPath>
	</defs>
	<rect id="poisk" width="24.000000" height="24.000000" fill="#FFFFFF" fill-opacity="0"/>
	<g clip-path="url(#clip42_196)">
		<path id="Vector" d="M22.67 22.06L18.41 17.82C20.06 15.76 20.86 13.14 20.65 10.5C20.43 7.86 19.21 5.4 17.24 3.64C15.27 1.87 12.7 0.93 10.06 1C7.41 1.07 4.9 2.15 3.02 4.03C1.15 5.9 0.07 8.42 0 11.06C-0.07 13.71 0.87 16.28 2.64 18.26C4.4 20.23 6.85 21.45 9.49 21.66C12.13 21.88 14.75 21.08 16.81 19.42L21.04 23.65C21.15 23.76 21.27 23.85 21.41 23.91C21.55 23.96 21.7 24 21.86 24C22.01 24 22.16 23.96 22.3 23.91C22.44 23.85 22.57 23.76 22.67 23.65C22.88 23.44 23 23.15 23 22.86C23 22.56 22.88 22.27 22.67 22.06ZM10.36 19.42C8.77 19.42 7.22 18.95 5.89 18.07C4.57 17.18 3.54 15.92 2.93 14.45C2.32 12.98 2.16 11.36 2.47 9.8C2.78 8.24 3.55 6.8 4.67 5.68C5.8 4.55 7.23 3.78 8.79 3.47C10.35 3.16 11.97 3.32 13.44 3.93C14.91 4.54 16.17 5.57 17.05 6.9C17.94 8.22 18.41 9.78 18.41 11.37C18.41 13.51 17.56 15.55 16.05 17.06C14.54 18.57 12.5 19.42 10.36 19.42Z" fill="#535353" fill-opacity="1.000000" fill-rule="nonzero"/>
	</g>
</svg>
