<svg width="30.000000" height="30.000000" viewBox="0 0 30 30" fill="none" xmlns="http://www.w3.org/2000/svg" xmlns:xlink="http://www.w3.org/1999/xlink">
	<desc>
			Created with Pixso.
	</desc>
	<defs>
		<clipPath id="clip47_276">
			<rect id="telegram" width="30.000000" height="30.000000" fill="white" fill-opacity="0"/>
		</clipPath>
	</defs>
	<g clip-path="url(#clip47_276)">
		<path id="Vector" d="M15 0C6.71 0 0 6.71 0 15C0 23.28 6.71 30 15 30C23.28 30 30 23.28 30 15C30 6.71 23.28 0 15 0Z" fill="#40B3E0" fill-opacity="1.000000" fill-rule="nonzero"/>
		<path id="Vector" d="M22.29 8.62L19.61 22.13C19.61 22.13 19.24 23.07 18.21 22.62L12.03 17.88L9.78 16.79L5.99 15.52C5.99 15.52 5.41 15.31 5.36 14.86C5.3 14.41 6.01 14.17 6.01 14.17L21.06 8.27C21.06 8.27 22.29 7.72 22.29 8.62Z" fill="#FFFFFF" fill-opacity="1.000000" fill-rule="nonzero"/>
		<path id="Vector" d="M11.55 21.98C11.55 21.98 11.37 21.96 11.15 21.25C10.92 20.54 9.78 16.79 9.78 16.79L18.87 11.02C18.87 11.02 19.39 10.7 19.37 11.02C19.37 11.02 19.46 11.08 19.18 11.34C18.9 11.6 12.05 17.77 12.05 17.77L11.55 21.98Z" fill="#D2E5F1" fill-opacity="1.000000" fill-rule="nonzero"/>
		<path id="Vector" d="M14.4 19.7L11.95 21.93C11.95 21.93 11.76 22.07 11.55 21.98L12.02 17.84L14.4 19.7Z" fill="#B5CFE4" fill-opacity="1.000000" fill-rule="nonzero"/>
	</g>
</svg>
