<svg width="79.000000" height="70.000000" viewBox="0 0 79 70" fill="none" xmlns="http://www.w3.org/2000/svg" xmlns:xlink="http://www.w3.org/1999/xlink">
	<desc>
			Created with Pixso.
	</desc>
	<defs/>
	<g opacity="0.200000">
		<path id="Polygon 2" d="M36.15 50.29L35.04 55.83L0 27.05L5.72 25.3L37.95 15.41L43.54 13.7L36.15 50.29ZM31.66 46.6L10.22 28.99L36.86 20.82L31.66 46.6Z" fill="#FFFFFF" fill-opacity="1.000000" fill-rule="evenodd"/>
		<path id="Polygon 3" d="M54.09 53.65L52.97 59.19L17.93 30.41L23.65 28.65L55.88 18.77L61.47 17.05L54.09 53.65ZM49.59 49.96L28.15 32.35L54.79 24.18L49.59 49.96Z" fill="#FFFFFF" fill-opacity="1.000000" fill-rule="evenodd"/>
		<path id="Polygon 4" d="M36.15 63.72L35.04 69.26L0 40.48L5.72 38.72L37.95 28.83L43.54 27.12L36.15 63.72ZM31.66 60.02L10.22 42.41L36.86 34.24L31.66 60.02Z" fill="#FFFFFF" fill-opacity="1.000000" fill-rule="evenodd"/>
	</g>
</svg>
