<svg width="24.000000" height="24.000000" viewBox="0 0 24 24" fill="none" xmlns="http://www.w3.org/2000/svg" xmlns:xlink="http://www.w3.org/1999/xlink">
	<desc>
			Created with Pixso.
	</desc>
	<defs>
		<clipPath id="clip223_18947">
			<rect id="arrow" width="24.000000" height="24.000000" fill="white" fill-opacity="0"/>
		</clipPath>
	</defs>
	<rect id="arrow" width="24.000000" height="24.000000" fill="#FFFFFF" fill-opacity="0"/>
	<g clip-path="url(#clip223_18947)">
		<path id="Vector" d="M14.83 11.29L10.59 7.05C10.49 6.95 10.38 6.88 10.26 6.83C10.14 6.78 10.01 6.75 9.87 6.75C9.74 6.75 9.61 6.78 9.49 6.83C9.37 6.88 9.26 6.95 9.16 7.05C8.98 7.23 8.87 7.49 8.87 7.75C8.87 8.01 8.98 8.27 9.16 8.46L12.71 12L9.16 15.54C8.98 15.72 8.87 15.98 8.87 16.24C8.87 16.5 8.98 16.76 9.16 16.95C9.26 17.04 9.37 17.11 9.49 17.16C9.61 17.21 9.74 17.24 9.87 17.24C10.01 17.24 10.14 17.21 10.26 17.16C10.38 17.11 10.49 17.04 10.59 16.95L14.83 12.71C14.92 12.61 14.99 12.5 15.04 12.38C15.09 12.26 15.12 12.13 15.12 12C15.12 11.86 15.09 11.73 15.04 11.61C14.99 11.49 14.92 11.38 14.83 11.29Z" fill="#2B2929" fill-opacity="1.000000" fill-rule="nonzero"/>
	</g>
</svg>
