<svg width="24.000000" height="23.000000" viewBox="0 0 24 23" fill="none" xmlns="http://www.w3.org/2000/svg" xmlns:xlink="http://www.w3.org/1999/xlink">
	<desc>
			Created with Pixso.
	</desc>
	<defs/>
	<path id="Vector" d="M20.09 12.69C19.83 12.69 19.57 12.61 19.31 12.55C18.8 12.44 18.29 12.29 17.8 12.1C17.27 11.91 16.68 11.92 16.15 12.13C15.62 12.34 15.19 12.74 14.94 13.26L14.69 13.79C13.56 13.15 12.53 12.38 11.6 11.48C10.71 10.55 9.93 9.52 9.3 8.4L9.83 8.16C10.34 7.9 10.74 7.47 10.95 6.95C11.16 6.42 11.18 5.83 10.98 5.29C10.8 4.8 10.65 4.29 10.53 3.77C10.47 3.52 10.43 3.25 10.39 3C10.25 2.18 9.83 1.45 9.19 0.92C8.56 0.39 7.75 0.11 6.93 0.12L3.45 0.12C2.97 0.12 2.48 0.22 2.04 0.42C1.59 0.62 1.19 0.91 0.87 1.28C0.54 1.65 0.29 2.09 0.14 2.57C0 3.05 -0.04 3.55 0.03 4.05C0.65 8.85 2.85 13.31 6.27 16.74C9.7 20.16 14.16 22.36 18.97 22.99C19.12 23 19.27 23 19.42 22.99C20.27 22.99 21.09 22.68 21.73 22.11C22.09 21.78 22.38 21.39 22.58 20.94C22.78 20.49 22.88 20.01 22.88 19.52L22.88 16.06C22.87 15.26 22.59 14.49 22.08 13.88C21.57 13.26 20.87 12.85 20.09 12.69ZM20.65 19.62C20.65 19.78 20.62 19.94 20.55 20.08C20.49 20.23 20.39 20.36 20.27 20.47C20.14 20.59 19.99 20.67 19.83 20.72C19.67 20.77 19.49 20.78 19.33 20.76C15.02 20.2 11.02 18.23 7.93 15.17C4.85 12.09 2.87 8.07 2.3 3.75C2.28 3.58 2.29 3.4 2.34 3.24C2.39 3.08 2.47 2.93 2.59 2.8C2.7 2.68 2.83 2.58 2.98 2.52C3.13 2.45 3.29 2.42 3.45 2.42L6.92 2.42C7.18 2.41 7.45 2.5 7.66 2.66C7.87 2.83 8.01 3.06 8.07 3.32C8.07 3.63 8.18 3.95 8.24 4.27C8.38 4.87 8.56 5.46 8.78 6.04L7.16 6.8C6.88 6.93 6.67 7.16 6.56 7.45C6.44 7.73 6.44 8.05 6.56 8.33C8.22 11.89 11.08 14.75 14.64 16.41C14.92 16.52 15.24 16.52 15.52 16.41C15.8 16.3 16.04 16.09 16.16 15.81L16.89 14.19C17.49 14.41 18.09 14.59 18.71 14.72C19.01 14.79 19.34 14.85 19.65 14.9C19.91 14.95 20.14 15.1 20.3 15.31C20.47 15.52 20.55 15.78 20.55 16.05L20.65 19.62ZM13.84 0C13.58 0 13.3 0 13.03 0C12.73 0.02 12.45 0.17 12.25 0.4C12.05 0.64 11.95 0.94 11.98 1.25C12 1.55 12.15 1.84 12.39 2.03C12.62 2.23 12.92 2.33 13.23 2.3L13.84 2.3C15.68 2.3 17.44 3.03 18.74 4.33C20.04 5.63 20.77 7.39 20.77 9.23C20.77 9.44 20.77 9.63 20.77 9.84C20.74 10.14 20.84 10.45 21.04 10.68C21.23 10.91 21.51 11.06 21.82 11.09L21.91 11.09C22.2 11.09 22.48 10.98 22.69 10.79C22.91 10.59 23.04 10.32 23.06 10.04C23.06 9.77 23.06 9.49 23.06 9.23C23.06 6.78 22.09 4.43 20.36 2.7C18.64 0.97 16.29 0 13.84 0ZM16.15 9.23C16.15 9.53 16.27 9.83 16.49 10.04C16.71 10.26 17 10.38 17.31 10.38C17.61 10.38 17.9 10.26 18.12 10.04C18.34 9.83 18.46 9.53 18.46 9.23C18.46 8 17.97 6.83 17.11 5.96C16.24 5.1 15.07 4.61 13.84 4.61C13.54 4.61 13.24 4.73 13.03 4.95C12.81 5.17 12.69 5.46 12.69 5.77C12.69 6.07 12.81 6.37 13.03 6.58C13.24 6.8 13.54 6.92 13.84 6.92C14.45 6.92 15.04 7.16 15.47 7.6C15.91 8.03 16.15 8.62 16.15 9.23Z" fill="#535353" fill-opacity="1.000000" fill-rule="nonzero"/>
</svg>
