<svg width="40.000000" height="40.000000" viewBox="0 0 40 40" fill="none" xmlns="http://www.w3.org/2000/svg" xmlns:xlink="http://www.w3.org/1999/xlink">
	<desc>
			Created with Pixso.
	</desc>
	<defs>
		<clipPath id="clip2014_9641">
			<rect width="40.000000" height="40.000000" fill="white" fill-opacity="0"/>
		</clipPath>
	</defs>
	<rect width="40.000000" height="40.000000" fill="#FFFFFF" fill-opacity="0"/>
	<g clip-path="url(#clip2014_9641)">
		<path d="M10.51 16.66C11.28 16.66 11.97 15.98 11.97 15.2C11.97 14.43 11.28 13.74 10.51 13.74C9.73 13.74 9.05 14.43 9.05 15.2C9.05 15.98 9.73 16.66 10.51 16.66Z" fill="#2B2929" fill-opacity="1.000000" fill-rule="nonzero"/>
		<path d="M10.51 25.33C11.28 25.33 11.97 24.64 11.97 23.87C11.97 23.09 11.28 22.41 10.51 22.41C9.73 22.41 9.05 23.09 9.05 23.87C9.05 24.64 9.73 25.33 10.51 25.33Z" fill="#2B2929" fill-opacity="1.000000" fill-rule="nonzero"/>
		<path d="M29.39 16.66C30.16 16.66 30.85 15.98 30.85 15.2C30.85 14.43 30.16 13.74 29.39 13.74C28.61 13.74 27.93 14.43 27.93 15.2C27.93 15.98 28.61 16.66 29.39 16.66Z" fill="#2B2929" fill-opacity="1.000000" fill-rule="nonzero"/>
		<path d="M39.9 2.07C39.9 1.48 39.41 1 38.83 1L1.07 1C0.48 1 0 1.48 0 2.07L0 10.73L0 10.82L0 28.34C0 28.93 0.48 29.41 1.07 29.41L7 29.41L5.45 38.46C5.45 38.76 5.45 39.05 5.64 39.24C5.83 39.44 6.03 39.63 6.32 39.63L6.52 39.63C7 39.63 7.49 39.24 7.59 38.76L9.14 29.32L30.85 29.32L32.4 38.76C32.5 39.24 32.89 39.63 33.47 39.63L33.67 39.63C34.25 39.54 34.64 38.95 34.54 38.46L32.99 29.41L38.92 29.41C39.51 29.41 40 28.93 40 28.34L40 10.92L40 10.82L39.9 2.07ZM37.85 20.65L37.85 27.27L21.02 27.27L21.02 20.65L37.85 20.65ZM37.85 11.9L37.85 18.51L21.02 18.51L21.02 11.9L37.85 11.9ZM37.85 3.04L37.85 9.66L21.02 9.66L21.02 3.04L37.85 3.04ZM18.88 20.65L18.88 27.27L2.04 27.27L2.04 20.65L18.88 20.65ZM18.88 11.9L18.88 18.51L2.04 18.51L2.04 11.9L18.88 11.9ZM18.88 3.04L18.88 9.66L2.04 9.66L2.04 3.04L18.88 3.04Z" fill="#2B2929" fill-opacity="1.000000" fill-rule="nonzero"/>
		<path d="M10.51 7.81C11.28 7.81 11.97 7.13 11.97 6.35C11.97 5.57 11.28 4.89 10.51 4.89C9.73 4.89 9.05 5.57 9.05 6.35C9.05 7.13 9.73 7.81 10.51 7.81Z" fill="#2B2929" fill-opacity="1.000000" fill-rule="nonzero"/>
		<path d="M29.39 7.81C30.16 7.81 30.85 7.13 30.85 6.35C30.85 5.57 30.16 4.99 29.39 4.99C28.61 4.99 27.93 5.67 27.93 6.45C27.93 7.22 28.61 7.81 29.39 7.81Z" fill="#2B2929" fill-opacity="1.000000" fill-rule="nonzero"/>
		<path d="M29.39 25.33C30.16 25.33 30.85 24.64 30.85 23.87C30.85 23.09 30.16 22.41 29.39 22.41C28.61 22.41 27.93 23.09 27.93 23.87C27.93 24.64 28.61 25.33 29.39 25.33Z" fill="#2B2929" fill-opacity="1.000000" fill-rule="nonzero"/>
	</g>
</svg>
