<svg width="50.000000" height="50.000000" viewBox="0 0 50 50" fill="none" xmlns="http://www.w3.org/2000/svg" xmlns:xlink="http://www.w3.org/1999/xlink">
	<desc>
			Created with Pixso.
	</desc>
	<defs>
		<clipPath id="clip42_104">
			<rect width="50.000000" height="50.000000" fill="white" fill-opacity="0"/>
		</clipPath>
	</defs>
	<rect width="50.000000" height="50.000000" fill="#FFFFFF" fill-opacity="0"/>
	<g clip-path="url(#clip42_104)">
		<circle cx="25.000000" cy="25.000000" r="24.000000" stroke="#FFBC57" stroke-opacity="1.000000" stroke-width="2.000000"/>
		<path d="M27.99 33.01C28.32 33.01 28.64 32.88 28.88 32.65C29.11 32.41 29.25 32.1 29.25 31.77L29.25 29.27C29.25 28.94 29.11 28.63 28.88 28.39C28.64 28.16 28.32 28.03 27.99 28.03C27.66 28.03 27.34 28.16 27.1 28.39C26.87 28.63 26.74 28.94 26.74 29.27L26.74 31.77C26.74 32.1 26.87 32.41 27.1 32.65C27.34 32.88 27.66 33.01 27.99 33.01ZM22.97 33.01C23.31 33.01 23.63 32.88 23.86 32.65C24.1 32.41 24.23 32.1 24.23 31.77L24.23 29.27C24.23 28.94 24.1 28.63 23.86 28.39C23.63 28.16 23.31 28.03 22.97 28.03C22.64 28.03 22.32 28.16 22.09 28.39C21.85 28.63 21.72 28.94 21.72 29.27L21.72 31.77C21.72 32.1 21.85 32.41 22.09 32.65C22.32 32.88 22.64 33.01 22.97 33.01ZM34.26 18.06L32.53 18.06L30.36 13.76C30.3 13.6 30.2 13.46 30.07 13.34C29.95 13.22 29.8 13.13 29.64 13.07C29.48 13.01 29.31 12.99 29.13 13C28.96 13.01 28.79 13.05 28.64 13.13C28.48 13.21 28.35 13.31 28.24 13.45C28.13 13.58 28.05 13.73 28 13.9C27.95 14.06 27.94 14.23 27.96 14.4C27.98 14.57 28.04 14.74 28.13 14.88L29.72 18.06L21.24 18.06L22.84 14.88C22.96 14.59 22.96 14.27 22.85 13.97C22.74 13.68 22.53 13.43 22.24 13.29C21.96 13.15 21.63 13.12 21.33 13.21C21.03 13.29 20.77 13.49 20.6 13.76L18.43 18.06L16.7 18.06C15.81 18.07 14.96 18.4 14.29 18.98C13.62 19.55 13.18 20.35 13.04 21.22C12.9 22.09 13.08 22.98 13.54 23.73C14 24.48 14.71 25.05 15.55 25.34L16.48 34.63C16.57 35.56 17.01 36.41 17.7 37.04C18.4 37.66 19.3 38 20.24 38L30.75 38C31.69 38 32.59 37.66 33.29 37.04C33.98 36.41 34.42 35.56 34.52 34.63L35.44 25.34C36.29 25.05 37 24.48 37.46 23.72C37.91 22.97 38.09 22.08 37.95 21.2C37.81 20.33 37.36 19.54 36.68 18.96C36.01 18.39 35.15 18.07 34.26 18.06ZM31.99 34.38C31.96 34.69 31.82 34.98 31.58 35.18C31.35 35.39 31.05 35.5 30.74 35.5L20.23 35.5C19.91 35.5 19.61 35.39 19.38 35.18C19.15 34.98 19 34.69 18.97 34.38L18.08 25.54L32.88 25.54L31.99 34.38ZM34.26 23.04L16.7 23.04C16.37 23.04 16.05 22.91 15.81 22.68C15.58 22.45 15.45 22.13 15.45 21.8C15.45 21.47 15.58 21.15 15.81 20.92C16.05 20.68 16.37 20.55 16.7 20.55L34.26 20.55C34.6 20.55 34.92 20.68 35.15 20.92C35.39 21.15 35.52 21.47 35.52 21.8C35.52 22.13 35.39 22.45 35.15 22.68C34.92 22.91 34.6 23.04 34.26 23.04Z" fill="#535353" fill-opacity="1.000000" fill-rule="nonzero"/>
	</g>
</svg>
