<svg width="40.000000" height="40.000000" viewBox="0 0 40 40" fill="none" xmlns="http://www.w3.org/2000/svg" xmlns:xlink="http://www.w3.org/1999/xlink">
	<desc>
			Created with Pixso.
	</desc>
	<defs>
		<clipPath id="clip2014_9691">
			<rect width="40.000000" height="40.000000" fill="white" fill-opacity="0"/>
		</clipPath>
	</defs>
	<rect width="40.000000" height="40.000000" fill="#FFFFFF" fill-opacity="0"/>
	<g clip-path="url(#clip2014_9691)">
		<path d="M14.6 26.04L7.39 26.04C6.31 26.04 5.53 26.92 5.53 27.9L5.53 32.09C5.53 33.17 6.41 33.95 7.39 33.95L14.6 33.95C15.68 33.95 16.46 33.07 16.46 32.09L16.46 27.9C16.56 26.82 15.68 26.04 14.6 26.04ZM14.7 32.09L7.39 32.09L7.39 27.9L14.7 27.9L14.7 32.09Z" fill="#2B2929" fill-opacity="1.000000" fill-rule="nonzero"/>
		<path d="M35.87 20.87L29.92 20.87L30.31 20.48C30.6 20.09 30.6 19.51 30.21 19.12C29.82 18.82 29.24 18.82 28.85 19.21L27.87 20.29L27.87 16.58C27.87 16.09 27.48 15.6 26.9 15.6C26.41 15.6 25.92 16 25.92 16.58L25.92 20.29L24.95 19.21C24.75 19.02 24.56 18.92 24.26 18.92C23.97 18.92 23.78 19.02 23.58 19.12C23.19 19.51 23.19 20.09 23.48 20.48L23.78 20.87L3.97 20.87C3.48 20.87 3 21.26 3 21.85L3 39.02C3 39.51 3.39 40 3.97 40L35.97 40C36.46 40 36.95 39.6 36.95 39.02L36.95 21.75C36.85 21.26 36.46 20.87 35.87 20.87ZM26.12 22.73L26.12 38.14L19.09 38.14L19.09 22.73L26.12 22.73ZM27.97 38.14L27.97 22.73L35 22.73L35 38.14L27.97 38.14ZM4.85 38.14L4.85 22.73L17.14 22.73L17.14 38.14L4.85 38.14Z" fill="#2B2929" fill-opacity="1.000000" fill-rule="nonzero"/>
		<path d="M35.87 0L18.12 0C17.63 0 17.14 0.39 17.14 0.97L17.14 5.85C16.95 5.65 16.75 5.56 16.46 5.56L13.92 5.56L13.92 0.97C13.92 0.48 13.53 0 12.95 0L9.04 0C8.56 0 8.07 0.39 8.07 0.97L8.07 5.56L5.53 5.56C5.14 5.56 4.75 5.85 4.65 6.14L3.09 10.73C2.99 10.92 2.99 11.31 3.19 11.51C3.39 11.8 3.68 11.9 3.97 11.9L35.97 11.9C36.46 11.9 36.95 11.51 36.95 10.92L36.95 0.97C36.85 0.39 36.46 0 35.87 0ZM18.99 10.04L18.99 1.85L26.02 1.85L26.02 10.04L18.99 10.04ZM27.97 10.04L27.97 1.85L34.99 1.85L34.99 10.04L27.97 10.04ZM10.02 6.43L10.02 1.85L12.07 1.85L12.07 6.43C12.07 6.92 12.46 7.41 13.04 7.41L15.87 7.41L16.85 10.04L5.24 10.04L6.21 7.41L9.04 7.41C9.53 7.41 10.02 7.02 10.02 6.43Z" fill="#2B2929" fill-opacity="1.000000" fill-rule="nonzero"/>
		<path d="M15.39 23.21C14.7 23.21 14.12 23.8 14.12 24.48C14.12 25.17 14.7 25.75 15.39 25.75C16.07 25.75 16.65 25.17 16.65 24.48C16.56 23.8 16.07 23.21 15.39 23.21Z" fill="#2B2929" fill-opacity="1.000000" fill-rule="nonzero"/>
		<path d="M24.46 25.65C25.14 25.65 25.73 25.07 25.73 24.39C25.73 23.7 25.14 23.12 24.46 23.12C23.78 23.12 23.19 23.7 23.19 24.39C23.19 25.17 23.78 25.65 24.46 25.65Z" fill="#2B2929" fill-opacity="1.000000" fill-rule="nonzero"/>
		<path d="M29.63 23.21C28.95 23.21 28.36 23.8 28.36 24.48C28.36 25.17 28.95 25.75 29.63 25.75C30.31 25.75 30.9 25.17 30.9 24.48C30.8 23.8 30.31 23.21 29.63 23.21Z" fill="#2B2929" fill-opacity="1.000000" fill-rule="nonzero"/>
		<path d="M24.46 6.92C23.78 6.92 23.19 7.51 23.19 8.19C23.19 8.87 23.78 9.46 24.46 9.46C25.14 9.46 25.73 8.87 25.73 8.19C25.63 7.51 25.14 6.92 24.46 6.92Z" fill="#2B2929" fill-opacity="1.000000" fill-rule="nonzero"/>
		<path d="M29.63 6.92C28.95 6.92 28.36 7.51 28.36 8.19C28.36 8.87 28.95 9.46 29.63 9.46C30.31 9.46 30.9 8.87 30.9 8.19C30.8 7.51 30.31 6.92 29.63 6.92Z" fill="#2B2929" fill-opacity="1.000000" fill-rule="nonzero"/>
		<path d="M12.46 25.65C13.14 25.65 13.73 25.07 13.73 24.39C13.73 23.7 13.14 23.12 12.46 23.12C11.78 23.12 11.19 23.7 11.19 24.39C11.19 25.17 11.78 25.65 12.46 25.65Z" fill="#2B2929" fill-opacity="1.000000" fill-rule="nonzero"/>
		<path d="M9.53 25.65C10.21 25.65 10.8 25.07 10.8 24.39C10.8 23.7 10.21 23.12 9.53 23.12C8.85 23.12 8.26 23.7 8.26 24.39C8.36 25.17 8.85 25.65 9.53 25.65Z" fill="#2B2929" fill-opacity="1.000000" fill-rule="nonzero"/>
		<path d="M6.7 25.65C7.39 25.65 7.97 25.07 7.97 24.39C7.97 23.7 7.39 23.12 6.7 23.12C6.02 23.12 5.43 23.7 5.43 24.39C5.43 25.17 6.02 25.65 6.7 25.65Z" fill="#2B2929" fill-opacity="1.000000" fill-rule="nonzero"/>
	</g>
</svg>
