<svg width="40.000000" height="40.000000" viewBox="0 0 40 40" fill="none" xmlns="http://www.w3.org/2000/svg" xmlns:xlink="http://www.w3.org/1999/xlink">
	<desc>
			Created with Pixso.
	</desc>
	<defs>
		<clipPath id="clip2014_9609">
			<rect width="40.000000" height="40.000000" fill="white" fill-opacity="0"/>
		</clipPath>
	</defs>
	<rect width="40.000000" height="40.000000" fill="#FFFFFF" fill-opacity="0"/>
	<g clip-path="url(#clip2014_9609)">
		<path d="M39.02 23.09L38.04 23.09L38.04 6.12C38.04 5.63 37.65 5.14 37.07 5.14C36.48 5.14 36.09 5.53 36.09 6.12L36.09 6.6C25.56 4.46 14.14 4.46 3.6 6.6L3.6 6.12C3.6 5.63 3.21 5.14 2.63 5.14C2.14 5.14 1.65 5.53 1.65 6.12L1.65 23L0.97 23C0.48 23 0 23.39 0 23.97L0 27.97C0 28.46 0.39 28.95 0.97 28.95L3.6 28.95L2.82 33.53C2.82 33.82 2.82 34.02 3.02 34.21C3.12 34.41 3.41 34.51 3.6 34.6L3.8 34.6C4.29 34.6 4.68 34.31 4.68 33.82L5.46 28.95L34.63 28.95L35.41 33.82C35.51 34.31 35.9 34.6 36.29 34.6L36.48 34.6C36.97 34.51 37.36 34.02 37.26 33.53L36.48 28.95L39.02 28.95C39.51 28.95 40 28.56 40 27.97L40 23.97C40 23.48 39.6 23.09 39.02 23.09ZM33.85 17.82L33.85 16.75C33.85 15 32.39 13.53 30.63 13.53L23.21 13.53C21.46 13.53 20 15 20 16.75L20 17.73L19.9 17.73L19.9 16.75C19.9 15 18.43 13.53 16.68 13.53L9.36 13.53C7.6 13.53 6.14 15 6.14 16.75L6.14 17.82C4.78 18.21 3.8 19.48 3.8 20.85L3.8 23L3.8 8.56C14.24 6.31 25.85 6.31 36.29 8.56L36.29 23L36.29 20.85C36.19 19.39 35.21 18.12 33.85 17.82ZM8 17.63L8 16.65C8 15.97 8.58 15.29 9.36 15.29L16.78 15.29C17.46 15.29 18.14 15.87 18.14 16.65L18.14 17.63L8 17.63ZM21.95 17.63L21.95 16.65C21.95 15.97 22.53 15.29 23.31 15.29L30.73 15.29C31.41 15.29 32.09 15.87 32.09 16.65L32.09 17.63L21.95 17.63ZM5.65 20.85C5.65 20.17 6.24 19.48 7.02 19.48L33.17 19.48C33.85 19.48 34.53 20.07 34.53 20.85L34.53 23L5.65 23L5.65 20.85ZM38.14 24.95L38.14 27.09L1.85 27.09L1.85 24.95L38.14 24.95Z" fill="#2B2929" fill-opacity="1.000000" fill-rule="nonzero"/>
	</g>
</svg>
