<svg width="40.000000" height="40.000000" viewBox="0 0 40 40" fill="none" xmlns="http://www.w3.org/2000/svg" xmlns:xlink="http://www.w3.org/1999/xlink">
	<desc>
			Created with Pixso.
	</desc>
	<defs>
		<clipPath id="clip2014_9615">
			<rect width="40.000000" height="40.000000" fill="white" fill-opacity="0"/>
		</clipPath>
	</defs>
	<rect width="40.000000" height="40.000000" fill="#FFFFFF" fill-opacity="0"/>
	<g clip-path="url(#clip2014_9615)">
		<path d="M30.36 0L8.7 0C6.65 0 5 1.65 5 3.7L5 36.39C5 38.34 6.65 40 8.7 40L30.36 40C32.41 40 34.07 38.34 34.07 36.29L34.07 3.7C34.07 1.65 32.41 0 30.36 0ZM32.12 3.7L32.12 36.39C32.12 37.36 31.34 38.14 30.36 38.14L8.7 38.14C7.73 38.14 6.95 37.36 6.95 36.39L6.95 3.7C6.95 2.73 7.73 1.95 8.7 1.95L30.36 1.95C31.34 1.95 32.12 2.73 32.12 3.7Z" fill="#2B2929" fill-opacity="1.000000" fill-rule="nonzero"/>
		<path d="M29.19 32.78L31.14 29.85C31.24 29.65 31.34 29.36 31.24 29.07C31.14 28.78 31.04 28.58 30.85 28.48C30.36 28.19 29.78 28.29 29.48 28.78L28.02 31.02L24.9 26.34L28.02 21.65L29.48 23.9C29.78 24.29 30.36 24.48 30.85 24.19C31.34 23.9 31.43 23.31 31.14 22.82L29.19 19.9L31.14 16.97C31.34 16.78 31.34 16.58 31.34 16.29C31.24 16 31.14 15.8 30.95 15.7C30.46 15.41 29.87 15.51 29.58 16L28.12 18.24L25 13.56L28.12 8.87L29.58 11.12C29.87 11.51 30.46 11.7 30.95 11.41C31.14 11.31 31.34 11.02 31.34 10.82C31.43 10.53 31.34 10.34 31.24 10.04L29.29 7.12L31.24 4.19C31.53 3.7 31.43 3.12 30.95 2.82C30.75 2.73 30.46 2.63 30.17 2.73C29.87 2.82 29.68 2.92 29.58 3.12L28.12 5.36L26.65 3.12C26.56 2.92 26.26 2.73 26.07 2.73C25.78 2.73 25.58 2.73 25.29 2.82C24.8 3.12 24.7 3.7 25 4.19L26.95 7.12L23.82 11.8L20.7 7.12L22.65 4.19C22.95 3.7 22.85 3.12 22.36 2.82C22.17 2.73 21.87 2.63 21.58 2.73C21.29 2.82 21.09 2.92 21 3.12L19.53 5.36L18.07 3.12C17.78 2.63 17.19 2.53 16.7 2.82C16.21 3.12 16.12 3.7 16.41 4.19L18.36 7.12L15.24 11.8L12.21 7.21L14.17 4.29C14.46 3.8 14.36 3.21 13.87 2.92C13.68 2.73 13.39 2.63 13.09 2.73C12.9 2.73 12.7 2.92 12.51 3.12L11.04 5.46L9.48 3.12C9.19 2.73 8.6 2.53 8.12 2.82C7.73 3.21 7.53 3.8 7.82 4.19L9.78 7.12L7.82 10.04C7.53 10.53 7.63 11.12 8.12 11.41C8.51 11.7 9.19 11.6 9.48 11.12L10.95 8.87L14.07 13.56L10.95 18.24L9.48 16C9.19 15.51 8.6 15.41 8.12 15.7C7.63 16 7.53 16.58 7.82 17.07L9.78 20L7.82 22.92C7.53 23.41 7.63 24 8.12 24.29C8.51 24.58 9.19 24.48 9.48 24L10.95 21.75L14.07 26.43L10.95 31.12L9.48 28.87C9.19 28.39 8.6 28.29 8.12 28.58C7.92 28.68 7.73 28.97 7.73 29.17C7.63 29.46 7.73 29.65 7.82 29.95L9.78 32.87L7.82 35.8C7.53 36.29 7.63 36.87 8.12 37.17C8.51 37.46 9.19 37.36 9.48 36.87L10.95 34.63L12.41 36.87C12.7 37.26 13.29 37.46 13.78 37.17C14.26 36.87 14.36 36.29 14.07 35.8L12.12 32.87L15.24 28.19L18.36 32.87L16.41 35.8C16.12 36.29 16.21 36.87 16.7 37.17C17.09 37.46 17.78 37.36 18.07 36.87L19.53 34.63L21 36.87C21.29 37.26 21.87 37.46 22.36 37.17C22.85 36.87 22.95 36.29 22.65 35.8L20.7 32.87L23.82 28.19L26.95 32.87L25 35.8C24.7 36.29 24.8 36.87 25.29 37.17C25.68 37.46 26.36 37.36 26.65 36.87L28.12 34.63L29.58 36.87C29.78 37.17 30.07 37.26 30.36 37.26C30.56 37.26 30.75 37.17 30.95 37.07C31.43 36.78 31.53 36.19 31.24 35.7L29.19 32.78ZM26.85 20L23.73 24.68L20.6 20L23.73 15.31L26.85 20ZM22.56 26.43L19.43 31.12L16.31 26.43L19.43 21.75L22.56 26.43ZM16.41 13.56L19.53 8.87L22.65 13.56L19.53 18.24L16.41 13.56ZM18.36 20L15.24 24.68L12.12 20L15.24 15.31L18.36 20Z" fill="#2B2929" fill-opacity="1.000000" fill-rule="nonzero"/>
	</g>
</svg>
