<svg width="40.000000" height="40.000000" viewBox="0 0 40 40" fill="none" xmlns="http://www.w3.org/2000/svg" xmlns:xlink="http://www.w3.org/1999/xlink">
	<desc>
			Created with Pixso.
	</desc>
	<defs>
		<clipPath id="clip2014_9623">
			<rect width="40.000000" height="40.000000" fill="white" fill-opacity="0"/>
		</clipPath>
	</defs>
	<rect width="40.000000" height="40.000000" fill="#FFFFFF" fill-opacity="0"/>
	<g clip-path="url(#clip2014_9623)">
		<path d="M37.48 11.68L36.02 11.68L36.02 8.58C36.02 6.54 34.38 5 32.44 5L22.56 5C21.5 5 20.53 5.48 19.85 6.16C19.17 5.48 18.2 5 17.14 5L7.36 5C5.32 5 3.68 6.64 3.68 8.58L3.68 11.68L2.22 11.68C0.96 11.68 0 12.74 0 14L0 23.2C0 26.01 2.03 28.43 4.74 28.92L3.87 33.57C3.87 33.86 3.87 34.05 4.06 34.24C4.26 34.44 4.45 34.63 4.64 34.63L4.84 34.63C5.32 34.63 5.71 34.34 5.81 33.86L6.68 28.92L33.22 28.92L34.09 33.86C34.18 34.34 34.57 34.63 35.06 34.63L35.25 34.63C35.54 34.63 35.73 34.44 35.83 34.24C35.93 34.05 36.02 33.76 36.02 33.57L35.25 28.82C37.96 28.24 40 25.92 40 23.11L40 14C39.7 12.74 38.74 11.68 37.48 11.68ZM1.84 14C1.84 13.81 2.03 13.61 2.22 13.61L4.84 13.61C5.03 13.61 5.22 13.81 5.22 14L5.22 21.56C5.22 22.82 6.29 23.88 7.55 23.88L18.59 23.88C19.08 23.88 19.56 23.69 19.95 23.4C20.33 23.69 20.82 23.88 21.3 23.88L32.34 23.88C33.6 23.88 34.67 22.82 34.67 21.56L34.67 14C34.67 13.81 34.86 13.61 35.06 13.61L37.57 13.61C37.77 13.61 37.96 13.81 37.96 14L37.96 23.2C37.96 25.43 36.22 27.17 33.99 27.17L5.9 27.17C3.68 27.17 1.93 25.43 1.93 23.2L1.93 14L1.84 14ZM7.36 6.84L17.23 6.84C18.2 6.84 18.98 7.61 18.98 8.58L18.98 16.81C18.88 16.81 18.69 16.81 18.59 16.81L7.45 16.81C7.36 16.81 7.16 16.81 7.07 16.81L7.07 14C7.07 13.03 6.48 12.16 5.61 11.87L5.61 8.58C5.61 7.61 6.39 6.84 7.36 6.84ZM22.56 6.84L32.44 6.84C33.41 6.84 34.18 7.61 34.18 8.58L34.18 11.87C33.31 12.16 32.73 13.03 32.73 14L32.73 16.81C32.63 16.81 32.44 16.81 32.34 16.81L21.21 16.81C21.11 16.81 20.91 16.81 20.82 16.81L20.82 8.58C20.82 7.61 21.59 6.84 22.56 6.84ZM20.82 19.04C20.82 18.84 21.01 18.65 21.21 18.65L32.25 18.65C32.44 18.65 32.63 18.84 32.63 19.04L32.63 21.56C32.63 21.75 32.44 21.94 32.25 21.94L21.21 21.94C21.01 21.94 20.82 21.75 20.82 21.56L20.82 19.04ZM18.49 18.65C18.69 18.65 18.88 18.84 18.88 19.04L18.88 21.56C18.88 21.75 18.69 21.94 18.49 21.94L7.45 21.94C7.26 21.94 7.07 21.75 7.07 21.56L7.07 19.04C7.07 18.84 7.26 18.65 7.45 18.65L18.49 18.65Z" fill="#2B2929" fill-opacity="1.000000" fill-rule="nonzero"/>
		<path d="M10.84 12.45L13.65 12.45C14.14 12.45 14.62 12.07 14.62 11.48C14.62 11 14.23 10.52 13.65 10.52L10.84 10.52C10.36 10.52 9.87 10.9 9.87 11.48C9.87 12.07 10.26 12.45 10.84 12.45Z" fill="#2B2929" fill-opacity="1.000000" fill-rule="nonzero"/>
		<path d="M26.05 12.45L28.86 12.45C29.34 12.45 29.83 12.07 29.83 11.48C29.83 11 29.44 10.52 28.86 10.52L26.05 10.52C25.56 10.52 25.08 10.9 25.08 11.48C25.08 12.07 25.56 12.45 26.05 12.45Z" fill="#2B2929" fill-opacity="1.000000" fill-rule="nonzero"/>
	</g>
</svg>
