<svg width="40.000000" height="40.000000" viewBox="0 0 40 40" fill="none" xmlns="http://www.w3.org/2000/svg" xmlns:xlink="http://www.w3.org/1999/xlink">
	<desc>
			Created with Pixso.
	</desc>
	<defs>
		<clipPath id="clip2014_9682">
			<rect width="40.000000" height="40.000000" fill="white" fill-opacity="0"/>
		</clipPath>
	</defs>
	<rect width="40.000000" height="40.000000" fill="#FFFFFF" fill-opacity="0"/>
	<g clip-path="url(#clip2014_9682)">
		<path d="M37.61 0L1.91 0C1.36 0 1 0.36 1 0.91L1 34.41C1 34.87 1.36 35.33 1.91 35.33L3.65 35.33L3.01 38.99C3.01 39.26 3.01 39.45 3.19 39.63C3.37 39.81 3.56 40 3.74 40L3.92 40C4.38 40 4.75 39.72 4.84 39.26L5.48 35.33L34.13 35.33L34.77 39.26C34.86 39.72 35.23 40 35.69 40L35.87 40C36.33 39.9 36.69 39.45 36.6 38.99L35.96 35.33L37.61 35.33C38.07 35.33 38.52 34.96 38.52 34.41L38.52 0.91C38.52 0.36 38.16 0 37.61 0ZM36.78 1.73L36.78 33.5L26.62 33.5L26.62 1.73L36.78 1.73ZM22.05 23.43L22.05 30.75L14.73 30.75L14.73 23.43L22.05 23.43ZM22.05 13.73L22.05 21.6L14.73 21.6L14.73 13.73L22.05 13.73ZM22.05 4.57L22.05 11.99L14.73 11.99L14.73 4.57L22.05 4.57ZM23.79 31.57L23.79 3.66C23.79 3.2 23.42 2.74 22.87 2.74L14.63 2.74L14.63 1.73L24.79 1.73L24.79 33.5L14.73 33.5L14.73 32.49L22.96 32.49C23.42 32.49 23.79 32.03 23.79 31.57ZM3.83 3.66L3.83 31.57C3.83 32.03 4.2 32.49 4.75 32.49L12.99 32.49L12.99 33.5L2.73 33.5L2.73 1.73L12.89 1.73L12.89 2.74L4.66 2.74C4.2 2.83 3.83 3.2 3.83 3.66ZM12.89 23.43L12.89 30.75L5.57 30.75L5.57 23.43L12.89 23.43ZM12.89 13.73L12.89 21.6L5.57 21.6L5.57 13.73L12.89 13.73ZM12.89 4.57L12.89 11.99L5.57 11.99L5.57 4.57L12.89 4.57Z" fill="#2B2929" fill-opacity="1.000000" fill-rule="nonzero"/>
		<path d="M11.43 18.85C12.07 18.85 12.62 18.3 12.62 17.66C12.62 17.02 12.07 16.47 11.43 16.47C10.79 16.47 10.24 17.02 10.24 17.66C10.24 18.3 10.79 18.85 11.43 18.85Z" fill="#2B2929" fill-opacity="1.000000" fill-rule="nonzero"/>
		<path d="M16.19 18.85C16.83 18.85 17.38 18.3 17.38 17.66C17.38 17.02 16.83 16.47 16.19 16.47C15.55 16.47 15 17.02 15 17.66C15 18.3 15.55 18.85 16.19 18.85Z" fill="#2B2929" fill-opacity="1.000000" fill-rule="nonzero"/>
	</g>
</svg>
