<svg width="24.000000" height="24.000000" viewBox="0 0 24 24" fill="none" xmlns="http://www.w3.org/2000/svg" xmlns:xlink="http://www.w3.org/1999/xlink">
	<desc>
			Created with Pixso.
	</desc>
	<defs>
		<clipPath id="clip44_206">
			<rect width="24.000000" height="24.000000" fill="white" fill-opacity="0"/>
		</clipPath>
	</defs>
	<rect width="24.000000" height="24.000000" fill="#FFFFFF" fill-opacity="0"/>
	<g clip-path="url(#clip44_206)">
		<path d="M20.48 3.51C15.8 -1.17 8.19 -1.17 3.51 3.51C-1.18 8.19 -1.18 15.8 3.51 20.48C5.85 22.82 8.92 23.99 12 23.99C15.07 23.99 18.14 22.82 20.48 20.48C25.17 15.8 25.17 8.19 20.48 3.51ZM7.72 5.64C8.17 5.2 8.76 4.95 9.38 4.95C10.01 4.95 10.6 5.2 11.05 5.64C11.49 6.09 11.73 6.68 11.73 7.3C11.73 7.93 11.49 8.52 11.05 8.97C10.6 9.41 10.01 9.65 9.38 9.65C8.76 9.65 8.17 9.41 7.72 8.97C7.28 8.52 7.04 7.93 7.04 7.3C7.04 6.68 7.28 6.09 7.72 5.64ZM8.12 16.98C7.97 17.13 7.77 17.21 7.56 17.21C7.36 17.21 7.16 17.13 7.01 16.98C6.71 16.67 6.71 16.18 7.01 15.87L15.87 7.01C16.18 6.71 16.67 6.71 16.98 7.01C17.28 7.32 17.28 7.81 16.98 8.12L8.12 16.98ZM16.79 17.83C16.35 18.28 15.76 18.52 15.13 18.52C14.5 18.52 13.91 18.28 13.47 17.83C13.02 17.39 12.78 16.8 12.78 16.17C12.78 15.54 13.02 14.95 13.47 14.51C13.91 14.07 14.5 13.82 15.13 13.82C15.76 13.82 16.35 14.07 16.79 14.51C17.23 14.95 17.48 15.54 17.48 16.17C17.48 16.8 17.23 17.39 16.79 17.83Z" fill="#FFBC57" fill-opacity="1.000000" fill-rule="nonzero"/>
	</g>
</svg>
