<svg width="40.000000" height="40.000000" viewBox="0 0 40 40" fill="none" xmlns="http://www.w3.org/2000/svg" xmlns:xlink="http://www.w3.org/1999/xlink">
	<desc>
			Created with Pixso.
	</desc>
	<defs>
		<clipPath id="clip2014_9632">
			<rect width="40.000000" height="40.000000" fill="white" fill-opacity="0"/>
		</clipPath>
	</defs>
	<rect width="40.000000" height="40.000000" fill="#FFFFFF" fill-opacity="0"/>
	<g clip-path="url(#clip2014_9632)">
		<path d="M31.78 0L7.87 0C7.39 0 7 0.39 7 0.87L7 34.34C7 34.82 7.39 35.21 7.87 35.21L9.63 35.21L9.04 38.82C9.04 39.02 9.04 39.31 9.24 39.51C9.43 39.7 9.63 39.8 9.82 39.9L9.92 40C10.41 40 10.8 39.7 10.8 39.21L11.48 35.31L28.17 35.31L28.85 39.21C28.95 39.7 29.34 40 29.73 40L29.92 40C30.12 40 30.41 39.8 30.51 39.6C30.6 39.41 30.7 39.12 30.7 38.92L30.12 35.31L31.87 35.31C32.36 35.31 32.75 34.92 32.75 34.43L32.75 0.87C32.65 0.39 32.26 0 31.78 0ZM18.9 1.85L18.9 33.56L8.85 33.56L8.85 1.85L18.9 1.85ZM30.8 1.85L30.8 33.56L20.75 33.56L20.75 1.85L30.8 1.85Z" fill="#2B2929" fill-opacity="1.000000" fill-rule="nonzero"/>
		<path d="M23.39 21.07C23.87 21.07 24.26 20.68 24.26 20.19L24.26 15.31C24.26 14.82 23.87 14.43 23.39 14.43C22.9 14.43 22.51 14.82 22.51 15.31L22.51 20.19C22.51 20.58 22.9 21.07 23.39 21.07Z" fill="#2B2929" fill-opacity="1.000000" fill-rule="nonzero"/>
		<path d="M16.26 21.07C16.75 21.07 17.14 20.68 17.14 20.19L17.14 15.31C17.14 14.82 16.75 14.43 16.26 14.43C15.78 14.43 15.39 14.82 15.39 15.31L15.39 20.19C15.39 20.58 15.78 21.07 16.26 21.07Z" fill="#2B2929" fill-opacity="1.000000" fill-rule="nonzero"/>
	</g>
</svg>
