<svg width="21.000000" height="20.000000" viewBox="0 0 21 20" fill="none" xmlns="http://www.w3.org/2000/svg" xmlns:xlink="http://www.w3.org/1999/xlink">
	<desc>
			Created with Pixso.
	</desc>
	<defs/>
	<path id="Vector" d="M20 7.64C20.1 7.14 19.7 6.54 19.2 6.54L13.5 5.74L10.9 0.54C10.8 0.34 10.7 0.24 10.5 0.14C10 -0.16 9.4 0.04 9.09 0.54L6.59 5.74L0.9 6.54C0.59 6.54 0.4 6.64 0.3 6.84C-0.1 7.24 -0.1 7.84 0.3 8.24L4.4 12.24L3.4 17.94C3.4 18.14 3.4 18.34 3.5 18.54C3.8 19.04 4.4 19.24 4.9 18.94L10 16.24L15.1 18.94C15.2 19.04 15.4 19.04 15.6 19.04C15.7 19.04 15.7 19.04 15.8 19.04C16.29 18.94 16.7 18.44 16.6 17.84L15.6 12.14L19.7 8.14C19.9 8.04 20 7.84 20 7.64Z" fill="#FFBC57" fill-opacity="1.000000" fill-rule="nonzero"/>
</svg>
