<svg width="40.000000" height="40.000000" viewBox="0 0 40 40" fill="none" xmlns="http://www.w3.org/2000/svg" xmlns:xlink="http://www.w3.org/1999/xlink">
	<desc>
			Created with Pixso.
	</desc>
	<defs>
		<clipPath id="clip2014_9669">
			<rect width="40.000000" height="40.000000" fill="white" fill-opacity="0"/>
		</clipPath>
	</defs>
	<rect width="40.000000" height="40.000000" fill="#FFFFFF" fill-opacity="0"/>
	<g clip-path="url(#clip2014_9669)">
		<path d="M21.68 38.63C21.68 39.38 21.07 40 20.31 40C19.56 40 18.95 39.38 18.95 38.63C18.95 37.87 19.56 37.26 20.31 37.26C21.07 37.26 21.68 37.87 21.68 38.63Z" fill="#2B2929" fill-opacity="1.000000" fill-rule="evenodd"/>
		<path d="M30.46 38.63C30.46 39.38 29.85 40 29.09 40C28.34 40 27.73 39.38 27.73 38.63C27.73 37.87 28.34 37.26 29.09 37.26C29.85 37.26 30.46 37.87 30.46 38.63Z" fill="#2B2929" fill-opacity="1.000000" fill-rule="evenodd"/>
		<path d="M12.9 38.63C12.9 39.38 12.29 40 11.53 40C10.78 40 10.17 39.38 10.17 38.63C10.17 37.87 10.78 37.26 11.53 37.26C12.29 37.26 12.9 37.87 12.9 38.63Z" fill="#2B2929" fill-opacity="1.000000" fill-rule="evenodd"/>
		<path d="M28.8 20.58C29.87 15.12 30.36 9.65 30.36 4.19C30.36 1.85 28.51 0 26.26 0L14.56 0C12.21 0 10.26 1.85 10.26 4.19C10.26 9.65 10.85 15.12 11.82 20.58C10.56 21.07 9.68 22.34 9.68 23.7L9.68 25.36C9.68 26.63 10.65 27.6 11.92 27.6L19.24 27.6L19.24 31.7C16.12 31.9 13.19 32.87 10.95 34.43C10.75 34.63 10.56 34.82 10.56 35.12C10.56 35.41 10.56 35.7 10.75 35.9C11.04 36.39 11.73 36.48 12.21 36.19C14.17 34.82 16.7 33.95 19.34 33.75L19.34 35.31C19.34 35.9 19.82 36.29 20.31 36.29C20.8 36.29 21.29 35.8 21.29 35.31L21.29 33.75C23.92 33.95 26.46 34.73 28.41 36.19C28.6 36.29 28.8 36.39 29 36.39C29.29 36.39 29.68 36.19 29.87 36C30.07 35.8 30.07 35.51 30.07 35.21C30.07 34.92 29.87 34.73 29.68 34.53C27.34 32.87 24.41 31.9 21.39 31.8L21.39 27.7L28.7 27.7C29.97 27.7 30.95 26.73 30.95 25.46L30.95 23.8C30.95 22.34 30.07 21.07 28.8 20.58ZM13.19 22.34L27.53 22.34C28.31 22.34 28.9 22.92 28.9 23.7L28.9 25.36C28.9 25.46 28.8 25.56 28.7 25.56L12.02 25.56C11.92 25.56 11.82 25.46 11.82 25.36L11.82 23.7C11.82 22.92 12.41 22.34 13.19 22.34ZM26.85 20.29L13.87 20.29C12.9 15.02 12.31 9.56 12.31 4.19C12.31 3.02 13.29 2.04 14.46 2.04L26.17 2.04C27.34 2.04 28.31 3.02 28.31 4.19C28.31 9.56 27.82 14.92 26.85 20.29Z" fill="#2B2929" fill-opacity="1.000000" fill-rule="nonzero"/>
		<path d="M10.75 17.36L10.75 14.73C10.75 13.85 9.97 13.07 9.09 13.07L6.65 13.07C5.78 13.07 5 13.85 5 14.73L5 17.36C5 18.92 6.26 20.29 7.92 20.29C9.48 20.29 10.75 18.92 10.75 17.36ZM8.7 15.12L8.7 17.46C8.7 17.95 8.31 18.34 7.82 18.34C7.34 18.34 6.95 17.95 6.95 17.46L6.95 15.12L8.7 15.12Z" fill="#2B2929" fill-opacity="1.000000" fill-rule="nonzero"/>
		<path d="M33.97 13.07L31.53 13.07C30.65 13.07 29.87 13.85 29.87 14.73L29.87 17.36C29.87 18.92 31.14 20.29 32.8 20.29C34.36 20.29 35.73 19.02 35.73 17.36L35.73 14.73C35.73 13.75 34.95 13.07 33.97 13.07ZM33.68 15.12L33.68 17.46C33.68 17.95 33.29 18.34 32.8 18.34C32.31 18.34 31.92 17.95 31.92 17.46L31.92 15.12L33.68 15.12Z" fill="#2B2929" fill-opacity="1.000000" fill-rule="nonzero"/>
		<path d="M20.31 7.51C19.73 7.51 19.34 8 19.34 8.48L19.34 17.65C19.34 18.24 19.82 18.63 20.31 18.63C20.8 18.63 21.29 18.14 21.29 17.65L21.29 8.58C21.39 8 20.9 7.51 20.31 7.51Z" fill="#2B2929" fill-opacity="1.000000" fill-rule="nonzero"/>
	</g>
</svg>
