<svg width="40.000000" height="40.000000" viewBox="0 0 40 40" fill="none" xmlns="http://www.w3.org/2000/svg" xmlns:xlink="http://www.w3.org/1999/xlink">
	<desc>
			Created with Pixso.
	</desc>
	<defs>
		<clipPath id="clip2014_9663">
			<rect width="40.000000" height="40.000000" fill="white" fill-opacity="0"/>
		</clipPath>
	</defs>
	<rect width="40.000000" height="40.000000" fill="#FFFFFF" fill-opacity="0"/>
	<g clip-path="url(#clip2014_9663)">
		<path d="M39.02 13.7L22.82 13.7C23.21 13.41 23.51 13.02 23.8 12.63C24.39 11.65 24.58 10.48 24.39 9.31C25.36 8.04 25.95 6.48 25.95 4.82C25.95 3.26 24.78 2 23.41 2C23.12 2 22.73 2.09 22.43 2.19C22.24 2.09 22.04 2 21.85 2L17.56 2C17.17 2 16.87 2.19 16.68 2.48C16.48 2.78 16.48 3.17 16.68 3.46L16.87 3.85C17.07 4.04 17.07 4.34 17.07 4.63C17.07 5.6 16.78 6.58 16.19 7.46C15.21 9.02 15.12 10.97 16.09 12.53C16.39 12.92 16.68 13.31 17.07 13.6L0.97 13.6C0.39 13.6 0 14.09 0 14.58C0 15.17 0.48 15.56 0.97 15.56L4.29 15.56L4.29 36.63C4.29 37.21 4.78 37.6 5.26 37.6C5.75 37.6 6.24 37.12 6.24 36.63L6.24 20.73L33.65 20.73L33.65 36.73C33.65 37.31 34.14 37.7 34.63 37.7C35.12 37.7 35.6 37.21 35.6 36.73L35.6 15.65L39.02 15.65C39.6 15.65 40 15.17 40 14.68C40 14.09 39.51 13.7 39.02 13.7ZM23.9 4.73C23.9 5.51 23.7 6.29 23.31 7.07C22.92 6.39 22.73 5.51 22.73 4.73C22.82 4.34 23.12 3.95 23.41 3.95C23.7 3.95 23.9 4.34 23.9 4.73ZM19.12 3.95L20.87 3.95L20.87 4.82C20.87 6.19 21.26 7.46 22.04 8.53C22.63 9.51 22.63 10.68 22.14 11.56C22.04 11.65 21.95 11.75 21.85 11.85L18.24 11.85C18.14 11.75 18.04 11.65 17.95 11.56C17.36 10.58 17.46 9.41 18.04 8.53C18.82 7.36 19.21 6 19.21 4.63C19.12 4.43 19.12 4.14 19.12 3.95ZM33.75 15.65L33.75 18.78L6.24 18.78L6.24 15.65L33.75 15.65Z" fill="#2B2929" fill-opacity="1.000000" fill-rule="nonzero"/>
	</g>
</svg>
