<svg width="40.000000" height="40.000000" viewBox="0 0 40 40" fill="none" xmlns="http://www.w3.org/2000/svg" xmlns:xlink="http://www.w3.org/1999/xlink">
	<desc>
			Created with Pixso.
	</desc>
	<defs>
		<clipPath id="clip2014_9654">
			<rect width="40.000000" height="40.000000" fill="white" fill-opacity="0"/>
		</clipPath>
	</defs>
	<rect width="40.000000" height="40.000000" fill="#FFFFFF" fill-opacity="0"/>
	<g clip-path="url(#clip2014_9654)">
		<path d="M35.92 4L4.07 4C3.49 4 3 4.49 3 5.07L3 25.22C3 25.8 3.49 26.3 4.07 26.3L9.3 26.3L7.8 34.93C7.72 35.51 8.05 36.09 8.63 36.17C9.21 36.25 9.79 35.84 9.88 35.34L11.45 26.3L28.54 26.3L30.11 35.34C30.2 35.84 30.61 36.25 31.19 36.25C31.27 36.25 31.27 36.25 31.36 36.25C31.94 36.17 32.35 35.59 32.19 35.01L30.69 26.39L35.92 26.39C36.5 26.39 37 25.89 37 25.31L37 5.07C37 4.49 36.5 4 35.92 4ZM34.84 16.19L34.84 24.15L5.15 24.15L5.15 16.19L34.84 16.19ZM34.84 6.15L34.84 14.11L5.15 14.11L5.15 6.15L34.84 6.15Z" fill="#2B2929" fill-opacity="1.000000" fill-rule="nonzero"/>
		<path d="M21.49 10.13C21.49 10.96 20.82 11.62 20 11.62C19.17 11.62 18.5 10.96 18.5 10.13C18.5 9.31 19.17 8.64 20 8.64C20.82 8.64 21.49 9.31 21.49 10.13Z" fill="#2B2929" fill-opacity="1.000000" fill-rule="evenodd"/>
		<path d="M20 21.66C20.82 21.66 21.49 21 21.49 20.17C21.49 19.34 20.82 18.67 20 18.67C19.17 18.67 18.5 19.34 18.5 20.17C18.5 21 19.17 21.66 20 21.66Z" fill="#2B2929" fill-opacity="1.000000" fill-rule="nonzero"/>
	</g>
</svg>
