<svg width="30.000000" height="30.000000" viewBox="0 0 30 30" fill="none" xmlns="http://www.w3.org/2000/svg" xmlns:xlink="http://www.w3.org/1999/xlink">
	<desc>
			Created with Pixso.
	</desc>
	<defs>
		<clipPath id="clip47_282">
			<rect id="viber" width="30.000000" height="30.000000" fill="white" fill-opacity="0"/>
		</clipPath>
	</defs>
	<g clip-path="url(#clip47_282)">
		<path id="Vector" d="M30 15C30 23.28 23.28 30 15 30C6.71 30 0 23.28 0 15C0 6.71 6.71 0 15 0C23.28 0 30 6.71 30 15Z" fill="#6F3FAA" fill-opacity="1.000000" fill-rule="evenodd"/>
		<path id="Vector" d="M22.93 10.54L22.93 10.52C22.52 8.9 20.72 7.16 19.06 6.8L19.04 6.79C16.36 6.28 13.63 6.28 10.95 6.79L10.93 6.8C9.27 7.16 7.47 8.9 7.06 10.52L7.06 10.54C6.56 12.8 6.56 15.09 7.06 17.36L7.06 17.38C7.45 18.93 9.12 20.59 10.72 21.04L10.72 22.85C10.72 23.51 11.52 23.83 11.97 23.36L13.8 21.45C14.2 21.47 14.6 21.49 15 21.49C16.35 21.49 17.7 21.36 19.04 21.1L19.06 21.1C20.72 20.74 22.52 19 22.93 17.38L22.93 17.36C23.43 15.09 23.43 12.8 22.93 10.54ZM21.48 17.03C21.21 18.09 19.84 19.4 18.75 19.64C17.32 19.92 15.88 20.03 14.45 19.99C14.42 19.99 14.39 20 14.37 20.02C14.17 20.23 13.03 21.4 13.03 21.4L11.61 22.86C11.51 22.96 11.32 22.89 11.32 22.74L11.32 19.74C11.32 19.7 11.29 19.65 11.24 19.64C11.24 19.64 11.24 19.64 11.24 19.64C10.15 19.4 8.78 18.09 8.51 17.03C8.06 14.98 8.06 12.91 8.51 10.87C8.78 9.81 10.15 8.49 11.24 8.25C13.73 7.78 16.26 7.78 18.75 8.25C19.84 8.49 21.21 9.81 21.48 10.87C21.93 12.91 21.93 14.98 21.48 17.03Z" fill="#FFFFFF" fill-opacity="1.000000" fill-rule="nonzero"/>
		<path id="Vector" d="M17.37 18.41C17.2 18.36 17.04 18.33 16.89 18.27C15.35 17.63 13.94 16.81 12.82 15.54C12.18 14.83 11.68 14.02 11.26 13.16C11.06 12.76 10.89 12.33 10.72 11.91C10.56 11.53 10.8 11.14 11.04 10.85C11.27 10.58 11.56 10.37 11.88 10.22C12.12 10.1 12.37 10.17 12.55 10.38C12.94 10.83 13.3 11.31 13.59 11.84C13.77 12.16 13.72 12.55 13.4 12.78C13.32 12.83 13.25 12.89 13.17 12.95C13.11 13.01 13.05 13.06 13 13.13C12.92 13.26 12.92 13.42 12.97 13.56C13.37 14.66 14.05 15.51 15.15 15.97C15.33 16.05 15.51 16.13 15.71 16.11C16.05 16.07 16.16 15.7 16.4 15.5C16.64 15.31 16.94 15.31 17.19 15.47C17.44 15.62 17.68 15.8 17.93 15.97C18.17 16.14 18.4 16.31 18.62 16.5C18.83 16.69 18.91 16.93 18.79 17.18C18.57 17.65 18.25 18.03 17.8 18.28C17.67 18.35 17.51 18.37 17.37 18.41Z" fill="#FFFFFF" fill-opacity="1.000000" fill-rule="nonzero"/>
		<path id="Vector" d="M15 9.69C17.01 9.74 18.66 11.08 19.01 13.07C19.07 13.4 19.1 13.75 19.12 14.09C19.13 14.24 19.05 14.38 18.9 14.38C18.74 14.38 18.66 14.25 18.65 14.1C18.63 13.81 18.62 13.53 18.58 13.24C18.37 11.75 17.18 10.51 15.68 10.24C15.46 10.2 15.23 10.19 15 10.17C14.86 10.15 14.67 10.14 14.64 9.96C14.61 9.82 14.74 9.7 14.88 9.69C14.92 9.69 14.96 9.69 15 9.69Z" fill="#FFFFFF" fill-opacity="1.000000" fill-rule="nonzero"/>
		<path id="Vector" d="M18.05 13.65C18.05 13.67 18.05 13.73 18.03 13.79C17.98 13.99 17.68 14.02 17.6 13.81C17.58 13.75 17.58 13.68 17.58 13.62C17.58 13.19 17.49 12.77 17.27 12.4C17.05 12.01 16.71 11.69 16.32 11.5C16.08 11.38 15.82 11.31 15.56 11.27C15.45 11.25 15.33 11.24 15.21 11.22C15.07 11.2 15 11.11 15.01 10.98C15.01 10.85 15.11 10.75 15.25 10.76C15.71 10.79 16.15 10.89 16.56 11.11C17.4 11.55 17.88 12.24 18.01 13.18C18.02 13.22 18.03 13.26 18.03 13.3C18.04 13.41 18.05 13.51 18.05 13.65Z" fill="#FFFFFF" fill-opacity="1.000000" fill-rule="nonzero"/>
		<path id="Vector" d="M16.8 13.6C16.64 13.6 16.55 13.51 16.53 13.36C16.52 13.25 16.51 13.14 16.48 13.03C16.43 12.83 16.32 12.64 16.15 12.51C16.07 12.45 15.97 12.41 15.88 12.38C15.75 12.34 15.62 12.35 15.5 12.32C15.37 12.29 15.29 12.18 15.32 12.06C15.33 11.94 15.45 11.85 15.57 11.86C16.35 11.92 16.91 12.32 16.99 13.24C16.99 13.31 17 13.37 16.98 13.44C16.96 13.54 16.88 13.59 16.8 13.6Z" fill="#FFFFFF" fill-opacity="1.000000" fill-rule="nonzero"/>
		<path id="Vector" d="" fill="#FFFFFF" fill-opacity="1.000000" fill-rule="nonzero"/>
		<path id="Vector" d="M15 9.69C15 9.69 15 9.69 15 9.69C15 9.69 15 9.69 15 9.69Z" fill="#FFFFFF" fill-opacity="1.000000" fill-rule="nonzero"/>
		<path id="Vector" d="M15 9.69C15 9.69 15 9.69 15 9.69C15.12 9.69 16.93 9.74 15 9.69Z" fill="#FFFFFF" fill-opacity="1.000000" fill-rule="nonzero"/>
		<path id="Vector" d="" fill="#FFFFFF" fill-opacity="1.000000" fill-rule="nonzero"/>
		<path id="Vector" d="M16.8 13.6C16.81 13.6 16.81 13.6 16.81 13.6C16.8 13.6 16.79 13.6 16.78 13.6C16.79 13.6 16.8 13.6 16.8 13.6Z" fill="#FFFFFF" fill-opacity="1.000000" fill-rule="nonzero"/>
		<path id="Vector" d="M16.8 13.6C16.8 13.6 16.79 13.6 16.78 13.6C16.75 13.6 16.71 13.6 16.8 13.6Z" fill="#FFFFFF" fill-opacity="1.000000" fill-rule="nonzero"/>
		<path id="Vector" d="M16.81 13.6C16.81 13.6 16.81 13.6 16.8 13.6C16.82 13.6 16.82 13.6 16.81 13.6Z" fill="#FFFFFF" fill-opacity="1.000000" fill-rule="nonzero"/>
	</g>
</svg>
