<svg width="80.000000" height="78.000000" viewBox="0 0 80 78" fill="none" xmlns="http://www.w3.org/2000/svg" xmlns:xlink="http://www.w3.org/1999/xlink">
	<desc>
			Created with Pixso.
	</desc>
	<defs/>
	<path id="Vector" d="M80 25.97C80 33.61 73.8 39.8 66.17 39.8C58.53 39.8 52.34 33.61 52.34 25.97C52.34 18.33 58.53 12.14 66.17 12.14C73.8 12.14 80 18.33 80 25.97Z" fill="#FFBC57" fill-opacity="1.000000" fill-rule="evenodd"/>
	<path id="Vector" d="M46.12 11.85C46.12 18.39 40.81 23.7 34.27 23.7C27.72 23.7 22.41 18.39 22.41 11.85C22.41 5.3 27.72 0 34.27 0C40.81 0 46.12 5.3 46.12 11.85Z" fill="#FFBC57" fill-opacity="1.000000" fill-rule="evenodd"/>
	<path id="Vector" d="M39.5 57.77C39.5 68.68 30.66 77.53 19.75 77.53C8.84 77.53 0 68.68 0 57.77C0 46.86 8.84 38.02 19.75 38.02C30.66 38.02 39.5 46.86 39.5 57.77Z" fill="#FFBC57" fill-opacity="1.000000" fill-rule="evenodd"/>
	<path id="Vector" d="M69.03 40.62L63.9 38.45L50.07 38.45C47.9 38.45 46.12 36.67 46.12 34.5L46.12 19.69L39.2 19.69L39.2 59.19L66.66 59.19C67.45 59.19 68.24 58.9 68.74 58.3L69.92 57.12C70.51 56.53 70.81 55.83 70.81 55.04L70.81 43.29C70.81 42.11 70.12 41.02 69.03 40.62Z" fill="#FFFFFF" fill-opacity="1.000000" fill-rule="nonzero"/>
	<path id="Vector" d="M63.1 40.62L57.97 38.45L50.07 38.45C47.9 38.45 46.12 36.67 46.12 34.5L46.12 19.69L39.2 19.69L39.2 59.19L60.74 59.19C61.52 59.19 62.32 58.9 62.81 58.3L64 57.12C64.59 56.53 64.88 55.83 64.88 55.04L64.88 43.29C64.88 42.11 64.19 41.02 63.1 40.62Z" fill="#FFFFFF" fill-opacity="1.000000" fill-rule="nonzero"/>
	<path id="Vector" d="M60.93 46.35L63.9 52.28L70.81 52.28L70.81 46.35L60.93 46.35Z" fill="#FFFFFF" fill-opacity="1.000000" fill-rule="nonzero"/>
	<path id="Vector" d="M60.93 46.35L62.91 50.3L66.86 50.3C67.45 50.3 67.85 49.91 67.85 49.32L67.85 46.35L60.93 46.35Z" fill="#FFFFFF" fill-opacity="1.000000" fill-rule="nonzero"/>
	<path id="Vector" d="M70.81 52.97L63.9 52.97C63.6 52.97 63.4 52.77 63.2 52.57L60.24 46.65C60.14 46.45 60.14 46.15 60.24 45.96C60.34 45.76 60.64 45.56 60.83 45.56L70.71 45.56C71.1 45.56 71.5 45.86 71.5 46.35L71.5 52.28C71.6 52.67 71.3 52.97 70.81 52.97ZM64.39 51.49L70.12 51.49L70.12 47.04L62.22 47.04L64.39 51.49Z" fill="#2B2929" fill-opacity="1.000000" fill-rule="nonzero"/>
	<path id="Vector" d="M50.07 38.45L63.9 38.45L56.29 22.95C55.3 20.97 53.23 19.69 50.96 19.69L46.12 19.69L46.12 34.5C46.12 36.67 47.9 38.45 50.07 38.45Z" fill="#FFFFFF" fill-opacity="1.000000" fill-rule="nonzero"/>
	<path id="Vector" d="M56.29 22.95C55.3 20.97 53.23 19.69 50.96 19.69L46.12 19.69C48.29 19.69 50.36 20.97 51.35 22.95L58.96 38.45L63.9 38.45L56.29 22.95Z" fill="#FFFFFF" fill-opacity="1.000000" fill-rule="nonzero"/>
	<path id="Vector" d="M63.9 39.14L50.07 39.14C47.5 39.14 45.33 37.07 45.33 34.5L45.33 19.69C45.33 19.29 45.63 18.9 46.12 18.9L50.96 18.9C53.53 18.9 55.8 20.28 56.98 22.65L64.59 38.16C64.69 38.35 64.69 38.65 64.59 38.85C64.39 39.04 64.19 39.14 63.9 39.14ZM46.91 20.38L46.91 34.5C46.91 36.28 48.39 37.66 50.17 37.66L62.81 37.66L55.7 23.24C54.81 21.46 53.03 20.38 51.06 20.38L46.91 20.38Z" fill="#2B2929" fill-opacity="1.000000" fill-rule="nonzero"/>
	<path id="Vector" d="M9.58 11.78C8.49 11.78 7.6 12.67 7.6 13.76L7.6 57.22C7.6 58.3 8.49 59.19 9.58 59.19L39.21 59.19L39.21 13.76C39.21 12.67 38.32 11.78 37.23 11.78L9.58 11.78Z" fill="#FFFFFF" fill-opacity="1.000000" fill-rule="nonzero"/>
	<path id="Vector" d="M9.58 11.78C8.49 11.78 7.6 12.67 7.6 13.76L7.6 54.25L31.3 54.25C32.39 54.25 33.28 53.36 33.28 52.28L33.28 11.78L9.58 11.78Z" fill="#FFFFFF" fill-opacity="1.000000" fill-rule="nonzero"/>
	<path id="Vector" d="M39.2 59.88L9.58 59.88C8.09 59.88 6.81 58.7 6.81 57.12L6.81 13.66C6.91 12.18 8.09 10.99 9.58 10.99L37.23 10.99C38.71 10.99 40 12.18 40 13.76L40 59.19C40 59.59 39.7 59.88 39.2 59.88ZM9.58 12.48C8.88 12.48 8.29 13.07 8.29 13.76L8.29 57.22C8.29 57.91 8.88 58.5 9.58 58.5L38.51 58.5L38.51 13.76C38.51 13.07 37.92 12.48 37.23 12.48L9.58 12.48Z" fill="#2B2929" fill-opacity="1.000000" fill-rule="nonzero"/>
	<path id="Vector" d="M66.66 59.88L39.21 59.88C38.81 59.88 38.41 59.59 38.41 59.09L38.41 19.59C38.41 19.19 38.71 18.8 39.21 18.8L46.12 18.8C46.51 18.8 46.91 19.09 46.91 19.59L46.91 34.4C46.91 36.18 48.39 37.56 50.17 37.56L64 37.56C64.09 37.56 64.19 37.56 64.29 37.66L69.43 39.83C70.81 40.43 71.7 41.71 71.7 43.19L71.7 54.85C71.7 55.83 71.3 56.72 70.61 57.51L69.43 58.7C68.54 59.49 67.65 59.88 66.66 59.88ZM40 58.4L66.66 58.4C67.25 58.4 67.85 58.2 68.24 57.71L69.43 56.53C69.82 56.13 70.12 55.54 70.12 54.95L70.12 43.29C70.12 42.4 69.62 41.61 68.74 41.22L63.8 39.04L50.07 39.04C47.5 39.04 45.33 36.97 45.33 34.4L45.33 20.38L39.9 20.38L39.9 58.4L40 58.4Z" fill="#2B2929" fill-opacity="1.000000" fill-rule="nonzero"/>
	<path id="Vector" d="M29.33 59.19C29.33 62.46 26.67 65.12 23.4 65.12C20.13 65.12 17.48 62.46 17.48 59.19C17.48 55.92 20.13 53.27 23.4 53.27C26.67 53.27 29.33 55.92 29.33 59.19Z" fill="#FFFFFF" fill-opacity="1.000000" fill-rule="evenodd"/>
	<path id="Vector" d="M26.56 54.06C27.16 54.95 27.45 56.03 27.45 57.12C27.45 60.38 24.78 63.04 21.53 63.04C20.44 63.04 19.35 62.75 18.46 62.16C19.55 63.83 21.33 65.02 23.5 65.02C26.76 65.02 29.43 62.35 29.43 59.09C29.33 57.02 28.24 55.14 26.56 54.06Z" fill="#FFFFFF" fill-opacity="1.000000" fill-rule="nonzero"/>
	<path id="Vector" d="M23.4 65.81C19.75 65.81 16.69 62.85 16.69 59.09C16.69 55.44 19.65 52.38 23.4 52.38C27.16 52.38 30.12 55.34 30.12 59.09C30.12 62.85 27.16 65.81 23.4 65.81ZM23.4 53.96C20.54 53.96 18.17 56.33 18.17 59.19C18.17 62.06 20.54 64.43 23.4 64.43C26.27 64.43 28.64 62.06 28.64 59.19C28.64 56.33 26.27 53.96 23.4 53.96Z" fill="#2B2929" fill-opacity="1.000000" fill-rule="nonzero"/>
	<path id="Vector" d="M25.38 59.19C25.38 60.28 24.49 61.17 23.4 61.17C22.31 61.17 21.43 60.28 21.43 59.19C21.43 58.1 22.31 57.22 23.4 57.22C24.49 57.22 25.38 58.1 25.38 59.19Z" fill="#FFFFFF" fill-opacity="1.000000" fill-rule="evenodd"/>
	<path id="Vector" d="M23.4 61.86C21.92 61.86 20.64 60.67 20.64 59.09C20.64 57.61 21.82 56.33 23.4 56.33C24.98 56.33 26.17 57.51 26.17 59.09C26.17 60.67 24.98 61.86 23.4 61.86ZM23.4 57.91C22.71 57.91 22.12 58.5 22.12 59.19C22.12 59.88 22.71 60.48 23.4 60.48C24.09 60.48 24.69 59.88 24.69 59.19C24.69 58.5 24.09 57.91 23.4 57.91Z" fill="#2B2929" fill-opacity="1.000000" fill-rule="nonzero"/>
	<path id="Vector" d="M60.93 59.19C60.93 62.46 58.28 65.12 55.01 65.12C51.73 65.12 49.08 62.46 49.08 59.19C49.08 55.92 51.73 53.27 55.01 53.27C58.28 53.27 60.93 55.92 60.93 59.19Z" fill="#FFFFFF" fill-opacity="1.000000" fill-rule="evenodd"/>
	<path id="Vector" d="M58.17 54.06C58.76 54.95 59.06 56.03 59.06 57.12C59.06 60.38 56.39 63.04 53.13 63.04C52.04 63.04 50.96 62.75 50.07 62.16C51.16 63.83 52.93 65.02 55.11 65.02C58.37 65.02 61.03 62.35 61.03 59.09C60.93 57.02 59.85 55.14 58.17 54.06Z" fill="#FFFFFF" fill-opacity="1.000000" fill-rule="nonzero"/>
	<path id="Vector" d="M55.01 65.81C51.35 65.81 48.29 62.85 48.29 59.09C48.29 55.44 51.25 52.38 55.01 52.38C58.66 52.38 61.72 55.34 61.72 59.09C61.72 62.85 58.76 65.81 55.01 65.81ZM55.01 53.96C52.14 53.96 49.77 56.33 49.77 59.19C49.77 62.06 52.14 64.43 55.01 64.43C57.87 64.43 60.24 62.06 60.24 59.19C60.24 56.33 57.87 53.96 55.01 53.96Z" fill="#2B2929" fill-opacity="1.000000" fill-rule="nonzero"/>
	<path id="Vector" d="M56.98 59.19C56.98 60.28 56.1 61.17 55.01 61.17C53.92 61.17 53.03 60.28 53.03 59.19C53.03 58.1 53.92 57.22 55.01 57.22C56.1 57.22 56.98 58.1 56.98 59.19Z" fill="#FFFFFF" fill-opacity="1.000000" fill-rule="evenodd"/>
	<path id="Vector" d="M55.01 61.86C53.52 61.86 52.24 60.67 52.24 59.09C52.24 57.61 53.43 56.33 55.01 56.33C56.49 56.33 57.77 57.51 57.77 59.09C57.77 60.67 56.59 61.86 55.01 61.86ZM55.01 57.91C54.32 57.91 53.72 58.5 53.72 59.19C53.72 59.88 54.32 60.48 55.01 60.48C55.7 60.48 56.29 59.88 56.29 59.19C56.29 58.5 55.7 57.91 55.01 57.91Z" fill="#2B2929" fill-opacity="1.000000" fill-rule="nonzero"/>
	<path id="Vector" d="M51.06 43.09L47.11 43.09C46.71 43.09 46.32 42.8 46.32 42.3C46.32 41.91 46.61 41.51 47.11 41.51L51.06 41.51C51.45 41.51 51.85 41.81 51.85 42.3C51.85 42.8 51.55 43.09 51.06 43.09Z" fill="#2B2929" fill-opacity="1.000000" fill-rule="nonzero"/>
	<path id="Vector" d="M34.27 37.17L12.54 37.17C12.14 37.17 11.75 36.87 11.75 36.38C11.75 35.98 12.05 35.59 12.54 35.59L34.27 35.59C34.66 35.59 35.06 35.88 35.06 36.38C35.06 36.87 34.76 37.17 34.27 37.17Z" fill="#FFBC57" fill-opacity="1.000000" fill-rule="nonzero"/>
	<path id="Vector" d="M34.27 43.09L12.54 43.09C12.14 43.09 11.75 42.8 11.75 42.3C11.75 41.91 12.05 41.51 12.54 41.51L34.27 41.51C34.66 41.51 35.06 41.81 35.06 42.3C35.06 42.8 34.76 43.09 34.27 43.09Z" fill="#FFBC57" fill-opacity="1.000000" fill-rule="nonzero"/>
	<path id="Vector" d="M34.27 49.02L12.54 49.02C12.14 49.02 11.75 48.72 11.75 48.23C11.75 47.83 12.05 47.44 12.54 47.44L34.27 47.44C34.66 47.44 35.06 47.74 35.06 48.23C35.06 48.72 34.76 49.02 34.27 49.02Z" fill="#FFBC57" fill-opacity="1.000000" fill-rule="nonzero"/>
	<path id="Vector" d="M34.27 31.24L12.54 31.24C12.14 31.24 11.75 30.95 11.75 30.45C11.75 30.06 12.05 29.66 12.54 29.66L34.27 29.66C34.66 29.66 35.06 29.96 35.06 30.45C35.06 30.95 34.76 31.24 34.27 31.24Z" fill="#FFBC57" fill-opacity="1.000000" fill-rule="nonzero"/>
	<path id="Vector" d="M34.27 25.32L12.54 25.32C12.14 25.32 11.75 25.02 11.75 24.53C11.75 24.13 12.05 23.74 12.54 23.74L34.27 23.74C34.66 23.74 35.06 24.03 35.06 24.53C35.06 25.02 34.76 25.32 34.27 25.32Z" fill="#2B2929" fill-opacity="1.000000" fill-rule="nonzero"/>
	<path id="Vector" d="M34.27 19.39L12.54 19.39C12.14 19.39 11.75 19.09 11.75 18.6C11.75 18.2 12.05 17.81 12.54 17.81L34.27 17.81C34.66 17.81 35.06 18.11 35.06 18.6C35.06 19.09 34.76 19.39 34.27 19.39Z" fill="#2B2929" fill-opacity="1.000000" fill-rule="nonzero"/>
</svg>
