<svg width="100.000000" height="100.000000" viewBox="0 0 100 100" fill="none" xmlns="http://www.w3.org/2000/svg" xmlns:xlink="http://www.w3.org/1999/xlink">
	<desc>
			Created with Pixso.
	</desc>
	<defs>
		<clipPath id="clip193_5089">
			<rect id="pay 4" width="100.000000" height="100.000000" fill="white" fill-opacity="0"/>
		</clipPath>
	</defs>
	<g clip-path="url(#clip193_5089)">
		<circle id="Ellipse 21" cx="50.000000" cy="50.000000" r="50.000000" fill="#FFBC57" fill-opacity="1.000000"/>
		<path id="Vector (Stroke)" d="M62.12 43.62C60.53 44.05 59.37 45.5 59.37 47.23L59.37 56.83L57.29 54.99C56.81 54.56 56.4 54.33 55.97 54.19C55.52 54.05 54.98 53.99 54.18 53.99C50.74 53.99 47.69 56.5 47.69 59.7C47.69 60.39 47.13 60.95 46.44 60.95C45.75 60.95 45.19 60.39 45.19 59.7C45.19 54.76 49.75 51.49 54.18 51.49C55.09 51.49 55.92 51.56 56.72 51.81C56.77 51.82 56.82 51.84 56.87 51.86L56.87 47.23C56.87 43.78 59.66 40.99 63.11 40.99L64.62 40.99L64.62 59.3C64.62 62.29 63.77 65.14 62.33 67.44C61.96 68.03 61.19 68.21 60.61 67.84C60.02 67.48 59.84 66.71 60.21 66.12C61.4 64.22 62.12 61.83 62.12 59.3L62.12 43.62Z" fill="#FFFFFF" fill-opacity="1.000000" fill-rule="evenodd"/>
		<path id="Vector (Stroke)" d="M36.99 51.62C37.68 51.62 38.24 52.18 38.24 52.87L38.24 61.4C38.24 63.06 38.59 64.56 39.27 65.79C39.6 66.4 39.38 67.16 38.77 67.49C38.16 67.82 37.4 67.59 37.07 66.99C36.17 65.33 35.74 63.41 35.74 61.4L35.74 52.87C35.74 52.18 36.3 51.62 36.99 51.62Z" fill="#FFFFFF" fill-opacity="1.000000" fill-rule="evenodd"/>
		<path id="Vector (Stroke)" d="M35.87 66.06L64.62 66.06L64.62 71.25C64.62 71.94 64.06 72.5 63.37 72.5C62.68 72.5 62.12 71.94 62.12 71.25L62.12 68.56L38.37 68.56L38.37 71.25C38.37 71.94 37.81 72.5 37.12 72.5C36.43 72.5 35.87 71.94 35.87 71.25L35.87 66.06Z" fill="#FFFFFF" fill-opacity="1.000000" fill-rule="evenodd"/>
		<path id="Vector (Stroke)" d="M28 29.25C28 28.55 28.56 28 29.25 28L71.25 28C71.93 28 72.5 28.55 72.5 29.25L72.5 52.87C72.5 53.56 71.93 54.12 71.25 54.12L63.37 54.12C62.68 54.12 62.12 53.56 62.12 52.87C62.12 52.18 62.68 51.62 63.37 51.62L70 51.62L70 30.5L30.5 30.5L30.5 51.62L58.12 51.62C58.81 51.62 59.37 52.18 59.37 52.87C59.37 53.56 58.81 54.12 58.12 54.12L29.25 54.12C28.56 54.12 28 53.56 28 52.87L28 29.25Z" fill="#FFFFFF" fill-opacity="1.000000" fill-rule="evenodd"/>
		<path id="Vector (Stroke)" d="M49.59 35.75C46.29 35.75 43.62 38.42 43.62 41.71C43.62 45.01 46.29 47.68 49.59 47.68C52.89 47.68 55.56 45.01 55.56 41.71C55.56 38.42 52.89 35.75 49.59 35.75ZM41.12 41.71C41.12 37.04 44.91 33.25 49.59 33.25C54.27 33.25 58.06 37.04 58.06 41.71C58.06 46.39 54.27 50.18 49.59 50.18C44.91 50.18 41.12 46.39 41.12 41.71Z" fill="#FFFFFF" fill-opacity="1.000000" fill-rule="evenodd"/>
		<path id="Vector (Stroke)" d="M64.16 30.49C64.85 30.49 65.41 31.05 65.41 31.74C65.41 33.41 66.68 34.69 68.36 34.69C69.05 34.69 69.61 35.25 69.61 35.94C69.61 36.63 69.05 37.19 68.36 37.19C65.3 37.19 62.91 34.79 62.91 31.74C62.91 31.05 63.47 30.49 64.16 30.49Z" fill="#FFFFFF" fill-opacity="1.000000" fill-rule="evenodd"/>
		<path id="Vector (Stroke)" d="M30.62 45.91C30.62 45.22 31.18 44.66 31.87 44.66C34.87 44.66 37.45 47.01 37.45 50.11C37.45 50.8 36.89 51.36 36.2 51.36C35.51 51.36 34.95 50.8 34.95 50.11C34.95 48.49 33.59 47.16 31.87 47.16C31.18 47.16 30.62 46.6 30.62 45.91Z" fill="#FFFFFF" fill-opacity="1.000000" fill-rule="evenodd"/>
		<path id="Vector (Stroke)" d="M36.07 30.62C36.76 30.62 37.32 31.18 37.32 31.87C37.32 34.84 34.74 37.19 31.87 37.19C31.18 37.19 30.62 36.63 30.62 35.94C30.62 35.25 31.18 34.69 31.87 34.69C33.46 34.69 34.82 33.36 34.82 31.87C34.82 31.18 35.38 30.62 36.07 30.62Z" fill="#FFFFFF" fill-opacity="1.000000" fill-rule="evenodd"/>
		<path id="Vector (Stroke)" d="M62.78 50.11C62.78 47.01 65.35 44.66 68.36 44.66C69.05 44.66 69.61 45.22 69.61 45.91C69.61 46.6 69.05 47.16 68.36 47.16C66.64 47.16 65.28 48.49 65.28 50.11C65.28 50.8 64.72 51.36 64.03 51.36C63.34 51.36 62.78 50.8 62.78 50.11Z" fill="#FFFFFF" fill-opacity="1.000000" fill-rule="evenodd"/>
	</g>
</svg>
