<svg width="100.000000" height="100.000000" viewBox="0 0 100 100" fill="none" xmlns="http://www.w3.org/2000/svg" xmlns:xlink="http://www.w3.org/1999/xlink">
	<desc>
			Created with Pixso.
	</desc>
	<defs>
		<clipPath id="clip187_4612">
			<rect id="pay 1" width="100.000000" height="100.000000" fill="white" fill-opacity="0"/>
		</clipPath>
	</defs>
	<g clip-path="url(#clip187_4612)">
		<circle id="Ellipse 21" cx="50.000000" cy="50.000000" r="50.000000" fill="#FFBC57" fill-opacity="1.000000"/>
		<path id="Vector" d="M71.26 33.04L58.88 33.04L58.88 29.66C58.88 27.6 57.2 25.94 55.15 25.94L28.72 25.94C26.66 25.94 25 27.61 25 29.66L25 70.33C25 72.39 26.67 74.05 28.72 74.05L55.15 74.05C57.2 74.05 58.88 72.38 58.88 70.33L58.88 65.27L71.26 65.27C73.32 65.27 75 63.59 75 61.55L75 36.77C74.99 34.71 73.31 33.04 71.26 33.04ZM67.59 35.53L67.59 62.77L65.19 62.77L65.19 35.53L67.59 35.53ZM56.38 70.32C56.38 70.99 55.83 71.54 55.15 71.54L28.72 71.54C28.04 71.54 27.49 70.99 27.49 70.32L27.49 29.66C27.49 28.99 28.04 28.44 28.72 28.44L55.15 28.44C55.82 28.44 56.38 28.99 56.38 29.66L56.38 70.32ZM58.88 35.53L62.71 35.53L62.71 62.77L58.88 62.77L58.88 35.53ZM72.49 61.54C72.49 62.21 71.94 62.76 71.25 62.76L70.09 62.76L70.09 35.53L71.25 35.53C71.93 35.53 72.49 36.08 72.49 36.76L72.49 61.54Z" fill="#FFFFFF" fill-opacity="1.000000" fill-rule="nonzero"/>
		<path id="Vector" d="M34.78 48.24L49.08 48.24C50.83 48.24 52.25 46.82 52.25 45.06L52.25 35.72C52.25 33.96 50.83 32.54 49.08 32.54L34.78 32.54C33.03 32.54 31.6 33.96 31.6 35.72L31.6 45.06C31.6 46.82 33.03 48.24 34.78 48.24ZM34.1 35.72C34.1 35.34 34.41 35.03 34.78 35.03L49.08 35.03C49.46 35.03 49.76 35.35 49.76 35.72L49.76 45.06C49.76 45.45 49.45 45.75 49.08 45.75L34.78 45.75C34.4 45.75 34.1 45.44 34.1 45.06L34.1 35.72Z" fill="#FFFFFF" fill-opacity="1.000000" fill-rule="nonzero"/>
		<path id="Vector" d="M34.5 53.42L32.85 53.42C32.16 53.42 31.6 53.98 31.6 54.67C31.6 55.35 32.16 55.91 32.85 55.91L34.5 55.91C35.19 55.91 35.75 55.35 35.75 54.67C35.75 53.98 35.19 53.42 34.5 53.42Z" fill="#FFFFFF" fill-opacity="1.000000" fill-rule="nonzero"/>
		<path id="Vector" d="M42.76 53.42L41.1 53.42C40.42 53.42 39.86 53.98 39.86 54.67C39.86 55.35 40.42 55.91 41.1 55.91L42.76 55.91C43.44 55.91 44 55.35 44 54.67C44 53.98 43.44 53.42 42.76 53.42Z" fill="#FFFFFF" fill-opacity="1.000000" fill-rule="nonzero"/>
		<path id="Vector" d="M51.02 53.42L49.37 53.42C48.68 53.42 48.12 53.98 48.12 54.67C48.12 55.35 48.68 55.91 49.37 55.91L51.02 55.91C51.71 55.91 52.27 55.35 52.27 54.67C52.27 53.98 51.71 53.42 51.02 53.42Z" fill="#FFFFFF" fill-opacity="1.000000" fill-rule="nonzero"/>
		<path id="Vector" d="M34.5 59.05L32.85 59.05C32.16 59.05 31.6 59.61 31.6 60.3C31.6 60.99 32.16 61.55 32.85 61.55L34.5 61.55C35.19 61.55 35.75 60.99 35.75 60.3C35.75 59.61 35.19 59.05 34.5 59.05Z" fill="#FFFFFF" fill-opacity="1.000000" fill-rule="nonzero"/>
		<path id="Vector" d="M42.76 59.05L41.1 59.05C40.42 59.05 39.86 59.61 39.86 60.3C39.86 60.99 40.42 61.55 41.1 61.55L42.76 61.55C43.44 61.55 44 60.99 44 60.3C44 59.61 43.44 59.05 42.76 59.05Z" fill="#FFFFFF" fill-opacity="1.000000" fill-rule="nonzero"/>
		<path id="Vector" d="M51.02 59.05L49.37 59.05C48.68 59.05 48.12 59.61 48.12 60.3C48.12 60.99 48.68 61.55 49.37 61.55L51.02 61.55C51.71 61.55 52.27 60.99 52.27 60.3C52.27 59.61 51.71 59.05 51.02 59.05Z" fill="#FFFFFF" fill-opacity="1.000000" fill-rule="nonzero"/>
		<path id="Vector" d="M34.5 64.69L32.85 64.69C32.16 64.69 31.6 65.25 31.6 65.93C31.6 66.62 32.16 67.18 32.85 67.18L34.5 67.18C35.19 67.18 35.75 66.62 35.75 65.93C35.75 65.25 35.19 64.69 34.5 64.69Z" fill="#FFFFFF" fill-opacity="1.000000" fill-rule="nonzero"/>
		<path id="Vector" d="M42.76 64.69L41.1 64.69C40.42 64.69 39.86 65.25 39.86 65.93C39.86 66.62 40.42 67.18 41.1 67.18L42.76 67.18C43.44 67.18 44 66.62 44 65.93C44 65.25 43.44 64.69 42.76 64.69Z" fill="#FFFFFF" fill-opacity="1.000000" fill-rule="nonzero"/>
		<path id="Vector" d="M51.02 64.69L49.37 64.69C48.68 64.69 48.12 65.25 48.12 65.93C48.12 66.62 48.68 67.18 49.37 67.18L51.02 67.18C51.71 67.18 52.27 66.62 52.27 65.93C52.27 65.25 51.71 64.69 51.02 64.69Z" fill="#FFFFFF" fill-opacity="1.000000" fill-rule="nonzero"/>
	</g>
</svg>
