<svg width="100.000000" height="100.000000" viewBox="0 0 100 100" fill="none" xmlns="http://www.w3.org/2000/svg" xmlns:xlink="http://www.w3.org/1999/xlink">
	<desc>
			Created with Pixso.
	</desc>
	<defs>
		<clipPath id="clip193_5079">
			<rect id="pay 2" width="100.000000" height="100.000000" fill="white" fill-opacity="0"/>
		</clipPath>
	</defs>
	<g clip-path="url(#clip193_5079)">
		<circle id="Ellipse 21" cx="50.000000" cy="50.000000" r="50.000000" fill="#FFBC57" fill-opacity="1.000000"/>
		<path id="Vector (Stroke)" d="M28.12 28.5C27.18 28.5 26.5 29.19 26.5 30.12L26.5 51.87C26.5 52.96 27.21 53.5 27.75 53.5L30.25 53.5C30.93 53.5 31.5 54.05 31.5 54.75C31.5 55.44 30.93 56 30.25 56L27.75 56C25.53 56 24 54.03 24 51.87L24 30.12C24 27.8 25.81 26 28.12 26L63.62 26C65.93 26 67.75 27.8 67.75 30.12L67.75 41C67.75 41.69 67.18 42.25 66.5 42.25C65.81 42.25 65.25 41.69 65.25 41L65.25 30.12C65.25 29.19 64.56 28.5 63.62 28.5L28.12 28.5Z" fill="#FFFFFF" fill-opacity="1.000000" fill-rule="evenodd"/>
		<path id="Vector (Stroke)" d="M24 33.5C24 32.8 24.56 32.25 25.25 32.25L66.5 32.25C67.18 32.25 67.75 32.8 67.75 33.5L67.75 38.5C67.75 39.19 67.18 39.75 66.5 39.75L25.25 39.75C24.56 39.75 24 39.19 24 38.5L24 33.5ZM26.5 34.75L26.5 37.25L65.25 37.25L65.25 34.75L26.5 34.75Z" fill="#FFFFFF" fill-opacity="1.000000" fill-rule="evenodd"/>
		<path id="Vector (Stroke)" d="M36.87 46C35.93 46 35.25 46.69 35.25 47.62L35.25 69.37C35.25 70.3 35.93 71 36.87 71L72.25 71C73.21 71 74 70.15 74 69.37L74 47.62C74 46.69 73.31 46 72.37 46L36.87 46ZM32.75 47.62C32.75 45.3 34.56 43.5 36.87 43.5L72.37 43.5C74.68 43.5 76.5 45.3 76.5 47.62L76.5 69.37C76.5 71.59 74.53 73.5 72.25 73.5L36.87 73.5C34.56 73.5 32.75 71.69 32.75 69.37L32.75 47.62Z" fill="#FFFFFF" fill-opacity="1.000000" fill-rule="evenodd"/>
		<path id="Vector (Stroke)" d="M39 66C39 65.3 39.56 64.75 40.25 64.75L46.5 64.75C47.18 64.75 47.75 65.3 47.75 66C47.75 66.69 47.18 67.25 46.5 67.25L40.25 67.25C39.56 67.25 39 66.69 39 66Z" fill="#FFFFFF" fill-opacity="1.000000" fill-rule="evenodd"/>
		<path id="Vector (Stroke)" d="M50.25 66C50.25 65.3 50.81 64.75 51.5 64.75L57.75 64.75C58.43 64.75 59 65.3 59 66C59 66.69 58.43 67.25 57.75 67.25L51.5 67.25C50.81 67.25 50.25 66.69 50.25 66Z" fill="#FFFFFF" fill-opacity="1.000000" fill-rule="evenodd"/>
		<path id="Vector (Stroke)" d="M61.5 66C61.5 65.3 62.06 64.75 62.75 64.75L69 64.75C69.68 64.75 70.25 65.3 70.25 66C70.25 66.69 69.68 67.25 69 67.25L62.75 67.25C62.06 67.25 61.5 66.69 61.5 66Z" fill="#FFFFFF" fill-opacity="1.000000" fill-rule="evenodd"/>
		<path id="Vector (Stroke)" d="M65.87 53.5C64.83 53.5 64 54.33 64 55.37C64 56.41 64.83 57.25 65.87 57.25C66.91 57.25 67.75 56.41 67.75 55.37C67.75 54.33 66.91 53.5 65.87 53.5ZM61.5 55.37C61.5 52.95 63.45 51 65.87 51C68.29 51 70.25 52.95 70.25 55.37C70.25 57.79 68.29 59.75 65.87 59.75C63.45 59.75 61.5 57.79 61.5 55.37Z" fill="#FFFFFF" fill-opacity="1.000000" fill-rule="evenodd"/>
	</g>
</svg>
