<svg width="100.000000" height="100.000000" viewBox="0 0 100 100" fill="none" xmlns="http://www.w3.org/2000/svg" xmlns:xlink="http://www.w3.org/1999/xlink">
	<desc>
			Created with Pixso.
	</desc>
	<defs>
		<clipPath id="clip193_5084">
			<rect id="pay 3" width="100.000000" height="100.000000" fill="white" fill-opacity="0"/>
		</clipPath>
	</defs>
	<g clip-path="url(#clip193_5084)">
		<circle id="Ellipse 21" cx="50.000000" cy="50.000000" r="50.000000" fill="#FFBC57" fill-opacity="1.000000"/>
		<path id="Vector (Stroke)" d="M63.49 24.18C63.86 24.41 64.09 24.81 64.09 25.25L64.09 47.62C64.09 48.32 63.53 48.87 62.84 48.87C62.15 48.87 61.59 48.32 61.59 47.62L61.59 27.29L58.01 29.12C57.65 29.31 57.22 29.31 56.86 29.12L52.18 26.66L47.49 29.12C47.13 29.31 46.69 29.31 46.33 29.12L41.65 26.66L36.96 29.12C36.59 29.31 36.15 29.31 35.79 29.11L32.5 27.34L32.5 67.89L35.91 66.01C36.28 65.81 36.74 65.81 37.11 66.01L41.78 68.58L46.44 66.01C47.05 65.68 47.81 65.9 48.14 66.51C48.47 67.11 48.25 67.87 47.65 68.2L42.38 71.1C42 71.31 41.55 71.31 41.17 71.1L36.51 68.53L31.85 71.1C31.46 71.31 30.99 71.31 30.61 71.08C30.23 70.86 30 70.45 30 70L30 25.25C30 24.81 30.23 24.4 30.6 24.17C30.98 23.95 31.45 23.94 31.84 24.14L36.39 26.59L41.06 24.14C41.43 23.95 41.86 23.95 42.23 24.14L46.91 26.6L51.6 24.14C51.96 23.95 52.39 23.95 52.76 24.14L57.45 26.6L62.27 24.13C62.66 23.93 63.12 23.95 63.49 24.18Z" fill="#FFFFFF" fill-opacity="1.000000" fill-rule="evenodd"/>
		<path id="Vector (Stroke)" d="M41.84 37.09C41.84 36.4 42.4 35.84 43.09 35.84L56.26 35.84C56.95 35.84 57.51 36.4 57.51 37.09C57.51 37.78 56.95 38.34 56.26 38.34L43.09 38.34C42.4 38.34 41.84 37.78 41.84 37.09Z" fill="#FFFFFF" fill-opacity="1.000000" fill-rule="evenodd"/>
		<path id="Vector (Stroke)" d="M35.26 50.26C35.26 49.57 35.82 49.01 36.51 49.01L52.31 49.01C53 49.01 53.56 49.57 53.56 50.26C53.56 50.95 53 51.51 52.31 51.51L36.51 51.51C35.82 51.51 35.26 50.95 35.26 50.26Z" fill="#FFFFFF" fill-opacity="1.000000" fill-rule="evenodd"/>
		<path id="Vector (Stroke)" d="M35.26 55.52C35.26 54.83 35.82 54.27 36.51 54.27L45.73 54.27C46.42 54.27 46.98 54.83 46.98 55.52C46.98 56.21 46.42 56.77 45.73 56.77L36.51 56.77C35.82 56.77 35.26 56.21 35.26 55.52Z" fill="#FFFFFF" fill-opacity="1.000000" fill-rule="evenodd"/>
		<path id="Vector (Stroke)" d="M41.84 42.36C41.84 41.67 42.4 41.11 43.09 41.11L52.31 41.11C53 41.11 53.56 41.67 53.56 42.36C53.56 43.05 53 43.61 52.31 43.61L43.09 43.61C42.4 43.61 41.84 43.05 41.84 42.36Z" fill="#FFFFFF" fill-opacity="1.000000" fill-rule="evenodd"/>
		<path id="Vector (Stroke)" d="M35.26 37.09C35.26 36.4 35.82 35.84 36.51 35.84L39.14 35.84C39.83 35.84 40.39 36.4 40.39 37.09C40.39 37.78 39.83 38.34 39.14 38.34L36.51 38.34C35.82 38.34 35.26 37.78 35.26 37.09Z" fill="#FFFFFF" fill-opacity="1.000000" fill-rule="evenodd"/>
		<path id="Vector (Stroke)" d="M35.26 42.36C35.26 41.67 35.82 41.11 36.51 41.11L39.14 41.11C39.83 41.11 40.39 41.67 40.39 42.36C40.39 43.05 39.83 43.61 39.14 43.61L36.51 43.61C35.82 43.61 35.26 43.05 35.26 42.36Z" fill="#FFFFFF" fill-opacity="1.000000" fill-rule="evenodd"/>
		<path id="Vector (Stroke)" d="M61.52 52.82C55.67 52.82 50.92 57.57 50.92 63.42C50.92 69.28 55.67 74.02 61.52 74.02C67.38 74.02 72.12 69.28 72.12 63.42C72.12 57.57 67.38 52.82 61.52 52.82ZM48.42 63.42C48.42 56.19 54.29 50.32 61.52 50.32C68.76 50.32 74.62 56.19 74.62 63.42C74.62 70.66 68.76 76.52 61.52 76.52C54.29 76.52 48.42 70.66 48.42 63.42Z" fill="#FFFFFF" fill-opacity="1.000000" fill-rule="evenodd"/>
		<path id="Vector (Stroke)" d="M60.21 59.41C59.45 59.41 58.82 60.03 58.82 60.79C58.82 61.55 59.45 62.17 60.21 62.17L62.84 62.17C64.98 62.17 66.72 63.92 66.72 66.06C66.72 68.19 64.98 69.94 62.84 69.94L57.57 69.94C56.88 69.94 56.32 69.38 56.32 68.69C56.32 68 56.88 67.44 57.57 67.44L62.84 67.44C63.6 67.44 64.22 66.81 64.22 66.06C64.22 65.3 63.6 64.67 62.84 64.67L60.21 64.67C58.07 64.67 56.32 62.93 56.32 60.79C56.32 58.65 58.07 56.91 60.21 56.91L65.47 56.91C66.16 56.91 66.72 57.47 66.72 58.16C66.72 58.85 66.16 59.41 65.47 59.41L60.21 59.41Z" fill="#FFFFFF" fill-opacity="1.000000" fill-rule="evenodd"/>
		<path id="Vector (Stroke)" d="M66.85 63.42C66.85 62.73 67.41 62.17 68.1 62.17L70.74 62.17C71.43 62.17 71.99 62.73 71.99 63.42C71.99 64.11 71.43 64.67 70.74 64.67L68.1 64.67C67.41 64.67 66.85 64.11 66.85 63.42Z" fill="#FFFFFF" fill-opacity="1.000000" fill-rule="evenodd"/>
		<path id="Vector (Stroke)" d="M51.06 63.42C51.06 62.73 51.62 62.17 52.31 62.17L54.94 62.17C55.63 62.17 56.19 62.73 56.19 63.42C56.19 64.11 55.63 64.67 54.94 64.67L52.31 64.67C51.62 64.67 51.06 64.11 51.06 63.42Z" fill="#FFFFFF" fill-opacity="1.000000" fill-rule="evenodd"/>
	</g>
</svg>
