<svg width="80.000000" height="80.000000" viewBox="0 0 80 80" fill="none" xmlns="http://www.w3.org/2000/svg" xmlns:xlink="http://www.w3.org/1999/xlink">
	<desc>
			Created with Pixso.
	</desc>
	<defs>
		<clipPath id="clip15_1892">
			<rect width="80.000000" height="80.000000" fill="white" fill-opacity="0"/>
		</clipPath>
	</defs>
	<rect width="80.000000" height="80.000000" fill="#FFFFFF" fill-opacity="0"/>
	<g clip-path="url(#clip15_1892)">
		<path d="M52.4 63.5C52.4 71.23 46.13 77.5 38.4 77.5C30.66 77.5 24.4 71.23 24.4 63.5C24.4 55.76 30.66 49.5 38.4 49.5C46.13 49.5 52.4 55.76 52.4 63.5Z" fill="#FFBC57" fill-opacity="1.000000" fill-rule="evenodd"/>
		<path d="M25 26.5C25 33.12 19.62 38.5 13 38.5C6.37 38.5 1 33.12 1 26.5C1 19.87 6.37 14.5 13 14.5C19.62 14.5 25 19.87 25 26.5Z" fill="#FFBC57" fill-opacity="1.000000" fill-rule="evenodd"/>
		<path d="M79.59 29C79.59 40.04 70.64 49 59.59 49C48.55 49 39.59 40.04 39.59 29C39.59 17.95 48.55 9 59.59 9C70.64 9 79.59 17.95 79.59 29Z" fill="#FFBC57" fill-opacity="1.000000" fill-rule="evenodd"/>
		<path d="M70.8 35.2L42.8 25.2L14.8 35.2L42.8 45.2L70.8 35.2Z" fill="#FFFFFF" fill-opacity="1.000000" fill-rule="nonzero"/>
		<path d="M37.8 27L14.8 35.2L37.8 43.5L37.8 27Z" fill="#FFFFFF" fill-opacity="1.000000" fill-rule="nonzero"/>
		<path d="M65 37.29L42.8 29.39L42.8 45.2L65 37.29Z" fill="#FFFFFF" fill-opacity="1.000000" fill-rule="nonzero"/>
		<path d="M42.8 46C42.69 46 42.59 46 42.5 46L14.5 36C14.19 35.89 14 35.59 14 35.29C14 35 14.19 34.7 14.5 34.59L42.5 24.59C42.69 24.5 42.8 24.5 43 24.59L71 34.59C71.3 34.7 71.5 35 71.5 35.29C71.5 35.59 71.3 35.89 71 36L43 46C42.9 46 42.8 46 42.8 46ZM17 35.2L42.8 44.39L68.59 35.2L42.8 26L17 35.2Z" fill="#2B2929" fill-opacity="1.000000" fill-rule="nonzero"/>
		<path d="M38.8 18.2L10.8 28.2L14.8 35.2L42.8 25.2L38.8 18.2Z" fill="#FFFFFF" fill-opacity="1.000000" fill-rule="nonzero"/>
		<path d="M42.8 25.2L38.8 18.2L32.5 20.5L33.8 22.8C34.4 23.89 33.9 25.3 32.7 25.7L13.3 32.59L14.8 35.2L42.8 25.2Z" fill="#FFFFFF" fill-opacity="1.000000" fill-rule="nonzero"/>
		<path d="M14.8 36C14.5 36 14.3 35.89 14.09 35.6L10.09 28.6C10 28.39 10 28.2 10.09 28C10.2 27.8 10.3 27.6 10.59 27.6L38.59 17.6C38.9 17.5 39.3 17.6 39.5 17.89L43.5 24.89C43.59 25.1 43.59 25.3 43.59 25.5C43.5 25.7 43.4 25.89 43.09 25.89L15 36C14.9 36 14.8 36 14.8 36ZM11.9 28.7L15.09 34.39L41.7 24.89L38.5 19.2L11.9 28.7Z" fill="#2B2929" fill-opacity="1.000000" fill-rule="nonzero"/>
		<path d="M46.8 18.2L74.8 28.2L70.8 35.2L42.8 25.2L46.8 18.2Z" fill="#FFFFFF" fill-opacity="1.000000" fill-rule="nonzero"/>
		<path d="M70.79 36C70.69 36 70.59 36 70.5 36L42.5 26C42.29 25.89 42.09 25.79 42 25.59C41.89 25.39 41.89 25.2 42.09 25L46.09 18C46.29 17.7 46.69 17.5 47 17.7L75 27.7C75.19 27.79 75.39 27.89 75.5 28.09C75.59 28.29 75.59 28.5 75.39 28.7L71.39 35.7C71.29 35.89 71 36 70.79 36ZM43.89 24.79L70.5 34.29L73.69 28.59L47.09 19.09L43.89 24.79Z" fill="#2B2929" fill-opacity="1.000000" fill-rule="nonzero"/>
		<path d="M42.8 70.19L14.8 60.2L14.8 35.2L42.8 45.2L42.8 70.19Z" fill="#FFFFFF" fill-opacity="1.000000" fill-rule="nonzero"/>
		<path d="M36.4 63.8L14.8 56L14.8 35.2L37.8 43.39L37.8 62.8C37.8 63.5 37.1 64 36.4 63.8Z" fill="#FFFFFF" fill-opacity="1.000000" fill-rule="nonzero"/>
		<path d="M42.8 71C42.69 71 42.59 71 42.5 71L14.5 61C14.19 60.89 14 60.6 14 60.3L14 35.3C14 35.1 14.09 34.8 14.3 34.7C14.5 34.6 14.8 34.5 15 34.6L43 44.6C43.3 44.7 43.5 45 43.5 45.3L43.5 70.3C43.5 70.5 43.4 70.8 43.19 70.89C43.09 71 42.9 71 42.8 71ZM15.5 59.7L42 69.19L42 45.8L15.5 36.3L15.5 59.7Z" fill="#2B2929" fill-opacity="1.000000" fill-rule="nonzero"/>
		<path d="M38.8 52.2L10.8 42.2L14.8 35.2L42.8 45.2L38.8 52.2Z" fill="#FFFFFF" fill-opacity="1.000000" fill-rule="nonzero"/>
		<path d="M34.19 47.7L12.19 39.8L14.79 35.2L38.39 43.59L36.59 46.7C36.09 47.59 35.09 48 34.19 47.7Z" fill="#FFFFFF" fill-opacity="1.000000" fill-rule="nonzero"/>
		<path d="M38.8 53C38.69 53 38.59 53 38.5 53L10.5 43C10.3 42.9 10.09 42.8 10 42.6C10 42.3 10 42.1 10.09 41.9L14.09 34.9C14.3 34.6 14.69 34.4 15 34.6L43 44.6C43.19 44.7 43.4 44.8 43.5 45C43.59 45.2 43.59 45.4 43.4 45.6L39.4 52.6C39.3 52.9 39 53 38.8 53ZM11.9 41.8L38.5 51.3L41.69 45.6L15.09 36.1L11.9 41.8Z" fill="#2B2929" fill-opacity="1.000000" fill-rule="nonzero"/>
		<path d="M42.8 70.19L70.8 60.2L70.8 35.2L42.8 45.2L42.8 70.19Z" fill="#FFFFFF" fill-opacity="1.000000" fill-rule="nonzero"/>
		<path d="M42.8 65.8L65.5 57.7C66.3 57.39 66.8 56.7 66.8 55.8L66.8 36.7L42.8 45.3L42.8 65.8Z" fill="#FFFFFF" fill-opacity="1.000000" fill-rule="nonzero"/>
		<path d="M42.79 71C42.59 71 42.5 71 42.4 70.89C42.19 70.8 42.09 70.5 42.09 70.3L42.09 45.3C42.09 45 42.29 44.7 42.59 44.6L70.59 34.6C70.79 34.5 71.09 34.6 71.29 34.7C71.5 34.8 71.59 35.1 71.59 35.3L71.59 60.3C71.59 60.6 71.4 60.89 71.09 61L43 71C42.9 71 42.79 71 42.79 71ZM43.5 45.8L43.5 69.19L70 59.7L70 36.3L43.5 45.8Z" fill="#2B2929" fill-opacity="1.000000" fill-rule="nonzero"/>
		<path d="M46.8 52.2L74.8 42.2L70.8 35.2L42.8 45.2L46.8 52.2Z" fill="#FFFFFF" fill-opacity="1.000000" fill-rule="nonzero"/>
		<path d="M45.3 49.6L66.5 42C67.7 41.6 68.2 40.2 67.6 39.1L66.3 36.8L42.8 45.2L45.3 49.6Z" fill="#FFFFFF" fill-opacity="1.000000" fill-rule="nonzero"/>
		<path d="M46.8 53C46.5 53 46.3 52.89 46.09 52.6L42.09 45.6C42 45.39 42 45.2 42.09 45C42.2 44.8 42.3 44.6 42.59 44.6L70.59 34.6C70.9 34.5 71.3 34.6 71.5 34.89L75.5 41.89C75.59 42.1 75.59 42.3 75.59 42.5C75.5 42.7 75.4 42.89 75.09 42.89L47 53C46.9 53 46.8 53 46.8 53ZM43.9 45.7L47.09 51.39L73.7 41.89L70.5 36.2L43.9 45.7Z" fill="#2B2929" fill-opacity="1.000000" fill-rule="nonzero"/>
		<path d="M48.8 19.5L48.8 39.8L36.8 39.8L36.8 19.5L28.8 19.5L42.8 5.19L56.7 19.5L48.8 19.5Z" fill="#FFFFFF" fill-opacity="1.000000" fill-rule="nonzero"/>
		<path d="M43.3 39L37.5 39L37.5 19.5C37.5 19.1 37.19 18.7 36.69 18.7L30.5 18.7L42.8 6.3L46 9.6C46.09 9.69 46.19 9.69 46.3 9.6L47 8.8C47.09 8.69 47.09 8.6 47 8.5L43.3 4.69C43.19 4.6 43 4.5 42.8 4.5C42.59 4.5 42.4 4.6 42.3 4.69L28.19 19C28 19.2 27.9 19.5 28 19.79C28.09 20.1 28.4 20.29 28.69 20.29L36 20.29L36 39.8C36 40.2 36.3 40.6 36.8 40.6L43.3 40.6C43.4 40.6 43.5 40.5 43.5 40.39L43.5 39.3C43.5 39.1 43.4 39 43.3 39Z" fill="#FFBC57" fill-opacity="1.000000" fill-rule="nonzero"/>
		<path d="M48 9.89L47.19 10.7C47.09 10.8 47.09 10.89 47.19 11L54.9 18.79L48.69 18.79C48.3 18.79 47.9 19.09 47.9 19.59L47.9 39L45.09 39C45 39 45 39.09 45 39.2L45 40.3C45 40.39 45.09 40.5 45.19 40.5L48.8 40.5C49.19 40.5 49.59 40.2 49.59 39.7L49.59 20.29L56.8 20.29C57.09 20.29 57.4 20.09 57.5 19.79C57.59 19.5 57.59 19.2 57.3 19L48.4 9.89C48.3 9.8 48.09 9.8 48 9.89Z" fill="#2B2929" fill-opacity="1.000000" fill-rule="nonzero"/>
	</g>
</svg>
