<svg width="80.000000" height="80.000000" viewBox="0 0 80 80" fill="none" xmlns="http://www.w3.org/2000/svg" xmlns:xlink="http://www.w3.org/1999/xlink">
	<desc>
			Created with Pixso.
	</desc>
	<defs>
		<clipPath id="clip15_1833">
			<rect width="80.000000" height="80.000000" fill="white" fill-opacity="0"/>
		</clipPath>
	</defs>
	<rect width="80.000000" height="80.000000" fill="#FFFFFF" fill-opacity="0"/>
	<g clip-path="url(#clip15_1833)">
		<path d="M77.13 26.03C77.13 34.21 70.49 40.84 62.31 40.84C54.13 40.84 47.5 34.21 47.5 26.03C47.5 17.84 54.13 11.21 62.31 11.21C70.49 11.21 77.13 17.84 77.13 26.03Z" fill="#FFBC57" fill-opacity="1.000000" fill-rule="evenodd"/>
		<path d="M34.38 12.69C34.38 19.71 28.69 25.39 21.68 25.39C14.66 25.39 8.98 19.71 8.98 12.69C8.98 5.68 14.66 0 21.68 0C28.69 0 34.38 5.68 34.38 12.69Z" fill="#FFBC57" fill-opacity="1.000000" fill-rule="evenodd"/>
		<path d="M44.32 58.83C44.32 70.52 34.85 80 23.16 80C11.47 80 2 70.52 2 58.83C2 47.14 11.47 37.67 23.16 37.67C34.85 37.67 44.32 47.14 44.32 58.83Z" fill="#FFBC57" fill-opacity="1.000000" fill-rule="evenodd"/>
		<path d="M39.35 23.38C32.37 24.23 26.65 29.84 25.7 36.71C25.17 40.42 25.91 43.91 27.6 46.87L25.49 55.02L33.64 53.01C36.6 54.7 40.09 55.44 43.79 54.92C50.78 53.86 56.28 48.25 57.13 41.26C58.4 30.79 49.72 22.11 39.35 23.38Z" fill="#FFFFFF" fill-opacity="1.000000" fill-rule="nonzero"/>
		<path d="M41.36 55.87C38.61 55.87 35.96 55.23 33.53 53.86L25.7 55.76C25.38 55.87 25.17 55.76 24.96 55.55C24.75 55.34 24.64 55.02 24.75 54.81L26.65 46.98C24.96 43.8 24.32 40.21 24.85 36.61C25.91 29.2 31.84 23.49 39.24 22.53C44.43 21.9 49.51 23.59 53.11 27.3C56.81 31 58.5 35.97 57.87 41.16C56.92 48.57 51.2 54.49 43.79 55.55C43.05 55.76 42.21 55.87 41.36 55.87ZM33.64 52.16C33.74 52.16 33.95 52.16 34.06 52.27C37.02 53.96 40.3 54.49 43.69 54.07C50.35 53.12 55.54 47.72 56.39 41.05C56.92 36.4 55.43 31.74 52.05 28.46C48.77 25.18 44.11 23.59 39.46 24.12C32.79 24.97 27.39 30.15 26.44 36.82C25.91 40.21 26.55 43.49 28.24 46.45C28.34 46.66 28.34 46.87 28.34 46.98L26.65 53.96L33.53 52.27C33.53 52.16 33.64 52.16 33.64 52.16Z" fill="#2B2929" fill-opacity="1.000000" fill-rule="nonzero"/>
		<path d="M41.36 44.33C40.94 44.33 40.51 44.02 40.51 43.49L40.51 42.85C40.51 40.31 42 39.15 43.16 38.3C44.22 37.56 44.96 36.93 44.96 35.45C44.96 33.75 43.9 32.38 42.42 31.95C41.25 31.64 39.99 31.85 39.03 32.48C38.08 33.22 37.55 34.28 37.55 35.45C37.55 35.87 37.23 36.29 36.7 36.29C36.28 36.29 35.86 35.97 35.86 35.45C35.86 33.75 36.7 32.16 37.98 31.21C39.35 30.15 41.04 29.94 42.74 30.37C44.96 31 46.44 33.01 46.44 35.45C46.44 37.77 45.07 38.73 43.9 39.57C42.84 40.42 41.89 41.05 41.89 42.85L41.89 43.49C42.21 44.02 41.89 44.33 41.36 44.33Z" fill="#FFBC57" fill-opacity="1.000000" fill-rule="nonzero"/>
		<path d="M42.1 47.4C41.68 46.98 41.04 46.98 40.62 47.4C40.41 47.61 40.3 47.83 40.3 48.14C40.3 48.46 40.41 48.67 40.62 48.88C40.83 49.1 41.04 49.2 41.36 49.2C41.68 49.2 41.89 49.1 42.1 48.88C42.31 48.67 42.42 48.46 42.42 48.14C42.42 47.83 42.31 47.51 42.1 47.4Z" fill="#FFBC57" fill-opacity="1.000000" fill-rule="nonzero"/>
		<path d="M41.36 70.89C40.94 70.89 40.51 70.58 40.51 70.05C40.51 69.62 40.83 69.2 41.36 69.2C57.87 69.2 71.31 55.76 71.31 39.25C71.31 22.96 57.87 9.52 41.36 9.52C24.96 9.52 11.52 22.96 11.52 39.36C11.52 39.89 11.2 40.21 10.67 40.21C10.25 40.21 9.83 39.89 9.83 39.36C9.83 22.01 23.9 7.83 41.25 7.83C58.61 7.83 72.89 22.01 72.89 39.36C72.89 56.71 58.71 70.89 41.36 70.89Z" fill="#2B2929" fill-opacity="1.000000" fill-rule="nonzero"/>
		<path d="M44.53 73.22L38.18 73.22C35.86 73.22 33.95 71.32 33.95 68.99C33.95 66.66 35.86 64.76 38.18 64.76L44.53 64.76C46.86 64.76 48.77 66.66 48.77 68.99C48.77 71.42 46.97 73.22 44.53 73.22Z" fill="#FFFFFF" fill-opacity="1.000000" fill-rule="nonzero"/>
		<path d="M44.53 74.07L38.19 74.07C35.43 74.07 33.11 71.85 33.11 68.99C33.11 66.24 35.33 63.91 38.19 63.91L44.53 63.91C47.29 63.91 49.61 66.13 49.61 68.99C49.61 71.85 47.39 74.07 44.53 74.07ZM38.19 65.6C36.28 65.6 34.69 67.19 34.69 69.1C34.69 71 36.28 72.59 38.19 72.59L44.53 72.59C46.44 72.59 48.03 71 48.03 69.1C48.03 67.19 46.44 65.6 44.53 65.6L38.19 65.6Z" fill="#2B2929" fill-opacity="1.000000" fill-rule="nonzero"/>
		<path d="M15.96 51C11.31 51 7.5 47.19 7.5 42.54L7.5 36.19C7.5 31.53 11.31 27.72 15.96 27.72C17.13 27.72 18.08 28.67 18.08 29.84L18.08 48.88C18.08 50.15 17.13 51 15.96 51Z" fill="#FFFFFF" fill-opacity="1.000000" fill-rule="nonzero"/>
		<path d="M15.96 51.85C10.88 51.85 6.65 47.72 6.65 42.53L6.65 36.19C6.65 31.11 10.78 26.87 15.96 26.87C17.55 26.87 18.93 28.14 18.93 29.84L18.93 48.88C18.93 50.58 17.66 51.85 15.96 51.85ZM15.96 28.57C11.73 28.57 8.24 32.06 8.24 36.29L8.24 42.64C8.24 46.87 11.73 50.37 15.96 50.37C16.7 50.37 17.34 49.73 17.34 48.99L17.34 29.94C17.34 29.2 16.7 28.57 15.96 28.57Z" fill="#2B2929" fill-opacity="1.000000" fill-rule="nonzero"/>
		<path d="M12.79 46.56C12.37 46.56 11.94 46.24 11.94 45.71L11.94 33.01C11.94 32.59 12.26 32.16 12.79 32.16C13.21 32.16 13.64 32.48 13.64 33.01L13.64 45.71C13.64 46.24 13.32 46.56 12.79 46.56Z" fill="#2B2929" fill-opacity="1.000000" fill-rule="nonzero"/>
		<path d="M66.76 51C65.59 51 64.64 50.05 64.64 48.88L64.64 29.84C64.64 28.67 65.59 27.72 66.76 27.72C71.41 27.72 75.22 31.53 75.22 36.19L75.22 42.54C75.22 47.3 71.52 51 66.76 51Z" fill="#FFFFFF" fill-opacity="1.000000" fill-rule="nonzero"/>
		<path d="M66.76 51.85C65.17 51.85 63.9 50.58 63.9 48.88L63.9 29.84C63.9 28.25 65.17 26.87 66.76 26.87C71.83 26.87 76.07 31 76.07 36.19L76.07 42.53C76.07 47.72 71.94 51.85 66.76 51.85ZM66.76 28.57C66.02 28.57 65.49 29.2 65.49 29.94L65.49 48.99C65.49 49.73 66.12 50.37 66.76 50.37C70.99 50.37 74.48 46.87 74.48 42.64L74.48 36.29C74.48 31.95 70.99 28.57 66.76 28.57Z" fill="#2B2929" fill-opacity="1.000000" fill-rule="nonzero"/>
		<path d="M69.93 46.56C69.51 46.56 69.08 46.24 69.08 45.71L69.08 33.01C69.08 32.59 69.4 32.16 69.93 32.16C70.35 32.16 70.78 32.48 70.78 33.01L70.78 45.71C70.78 46.24 70.46 46.56 69.93 46.56Z" fill="#2B2929" fill-opacity="1.000000" fill-rule="nonzero"/>
		<path d="M23.48 18.51C23.26 18.62 22.95 18.83 22.63 18.94C23.05 18.83 23.26 18.73 23.48 18.51Z" fill="#FFBC57" fill-opacity="1.000000" fill-rule="nonzero"/>
		<path d="M41.36 5.5C32.9 5.5 25.17 8.57 19.24 13.75C18.19 14.6 18.19 16.19 19.14 17.14L20.41 18.41C21.25 19.25 22.63 19.25 23.58 18.51C28.34 14.39 34.59 11.95 41.47 11.95C48.24 11.95 54.59 14.39 59.35 18.51C60.3 19.25 61.68 19.25 62.52 18.41L63.79 17.14C64.75 16.19 64.75 14.6 63.69 13.75C57.66 8.67 49.83 5.5 41.36 5.5Z" fill="#FFFFFF" fill-opacity="1.000000" fill-rule="nonzero"/>
		<path d="M60.83 19.89C60.09 19.89 59.35 19.68 58.82 19.15C53.95 14.92 47.81 12.69 41.36 12.69C35.01 12.69 28.87 15.02 24 19.15C22.74 20.21 20.94 20.21 19.77 19.04L18.5 17.77C17.87 17.14 17.55 16.29 17.55 15.45C17.55 14.6 17.97 13.75 18.61 13.22C24.85 7.83 32.89 4.76 41.25 4.76C49.61 4.76 57.66 7.72 63.9 13.22C64.53 13.75 64.96 14.6 64.96 15.45C64.96 16.29 64.64 17.14 64 17.77L62.74 19.04C62.42 19.57 61.57 19.89 60.83 19.89ZM41.36 11.11C48.13 11.11 54.59 13.54 59.77 17.88C60.41 18.41 61.25 18.41 61.89 17.77L63.16 16.5C63.48 16.19 63.58 15.76 63.58 15.34C63.58 14.92 63.37 14.49 63.05 14.28C57.02 9.2 49.3 6.34 41.36 6.34C33.42 6.34 25.7 9.2 19.77 14.39C19.45 14.7 19.24 15.02 19.24 15.45C19.24 15.87 19.35 16.29 19.67 16.61L20.94 17.88C21.47 18.41 22.42 18.51 23.05 17.98C28.13 13.54 34.69 11.11 41.36 11.11Z" fill="#2B2929" fill-opacity="1.000000" fill-rule="nonzero"/>
	</g>
</svg>
