<svg width="80.000000" height="80.000000" viewBox="0 0 80 80" fill="none" xmlns="http://www.w3.org/2000/svg" xmlns:xlink="http://www.w3.org/1999/xlink">
	<desc>
			Created with Pixso.
	</desc>
	<defs>
		<clipPath id="clip15_1789">
			<rect width="80.000000" height="80.000000" fill="white" fill-opacity="0"/>
		</clipPath>
	</defs>
	<rect width="80.000000" height="80.000000" fill="#FFFFFF" fill-opacity="0"/>
	<g clip-path="url(#clip15_1789)">
		<path d="M27.92 59.85C27.92 67.56 21.67 73.81 13.96 73.81C6.25 73.81 0 67.56 0 59.85C0 52.14 6.25 45.88 13.96 45.88C21.67 45.88 27.92 52.14 27.92 59.85Z" fill="#FFBC57" fill-opacity="1.000000" fill-rule="evenodd"/>
		<path d="M48.17 12.97C48.17 19.58 42.82 24.94 36.21 24.94C29.59 24.94 24.24 19.58 24.24 12.97C24.24 6.35 29.59 1 36.21 1C42.82 1 48.17 6.35 48.17 12.97Z" fill="#FFBC57" fill-opacity="1.000000" fill-rule="evenodd"/>
		<path d="M80 58.85C80 69.87 71.06 78.8 60.04 78.8C49.03 78.8 40.09 69.87 40.09 58.85C40.09 47.83 49.03 38.9 60.04 38.9C71.06 38.9 80 47.83 80 58.85Z" fill="#FFBC57" fill-opacity="1.000000" fill-rule="evenodd"/>
		<path d="M73.11 41.79C73.11 59.42 58.82 73.71 41.19 73.71C23.56 73.71 9.27 59.42 9.27 41.79C9.27 24.16 23.56 9.87 41.19 9.87C58.82 9.87 73.11 24.16 73.11 41.79Z" fill="#FFFFFF" fill-opacity="1.000000" fill-rule="evenodd"/>
		<path d="M41.19 74.41C23.14 74.41 8.47 59.75 8.47 41.69C8.47 23.64 23.14 9.07 41.19 9.07C59.25 9.07 73.81 23.74 73.81 41.79C73.81 59.85 59.15 74.41 41.19 74.41ZM41.19 10.57C23.93 10.57 9.97 24.54 9.97 41.79C9.97 58.95 23.93 73.01 41.19 73.01C58.35 73.01 72.41 59.05 72.41 41.79C72.31 24.54 58.35 10.57 41.19 10.57Z" fill="#2B2929" fill-opacity="1.000000" fill-rule="nonzero"/>
		<path d="M40.59 29.82L34.31 25.63C30.22 22.94 24.83 23.54 21.54 27.13L16.25 32.82C15.26 33.91 14.76 35.31 14.96 36.81L18.95 68.23C19.15 69.82 20.64 71.02 22.24 70.82L43.99 68.13C45.58 67.93 46.78 66.43 46.58 64.84L42.69 33.41C42.59 31.92 41.79 30.62 40.59 29.82Z" fill="#FFFFFF" fill-opacity="1.000000" fill-rule="nonzero"/>
		<path d="M21.94 71.52C21.14 71.52 20.34 71.22 19.65 70.72C18.85 70.12 18.35 69.22 18.25 68.23L14.36 36.91C14.16 35.21 14.66 33.51 15.86 32.32L21.14 26.63C24.73 22.74 30.52 22.04 34.91 25.04L41.19 29.22C42.59 30.12 43.49 31.62 43.69 33.31L47.58 64.74C47.68 65.73 47.48 66.73 46.78 67.53C46.18 68.33 45.28 68.83 44.29 68.93L22.54 71.62C22.24 71.52 22.04 71.52 21.94 71.52ZM28.82 24.64C26.33 24.64 23.94 25.63 22.14 27.63L16.85 33.31C16.06 34.21 15.66 35.51 15.76 36.71L19.65 68.03C19.75 68.63 20.05 69.12 20.54 69.52C21.04 69.92 21.64 70.02 22.24 70.02L43.99 67.33C44.58 67.23 45.08 66.93 45.48 66.43C45.88 65.93 45.98 65.33 45.98 64.74L42.09 33.31C41.89 32.12 41.29 31.02 40.3 30.32L33.91 26.23C32.41 25.23 30.62 24.64 28.82 24.64Z" fill="#2B2929" fill-opacity="1.000000" fill-rule="nonzero"/>
		<path d="M46.08 20.05L38.9 17.75C34.31 16.26 29.22 18.35 27.03 22.74L23.54 29.62C22.94 30.92 22.94 32.52 23.54 33.81L35.91 62.94C36.6 64.44 38.3 65.13 39.8 64.54L60.04 55.86C61.54 55.26 62.24 53.46 61.64 51.97L49.17 22.84C48.57 21.54 47.48 20.55 46.08 20.05Z" fill="#FFFFFF" fill-opacity="1.000000" fill-rule="nonzero"/>
		<path d="M38.6 65.43C37.1 65.43 35.81 64.54 35.11 63.14L22.84 34.11C22.14 32.52 22.24 30.82 22.94 29.32L26.43 22.44C28.82 17.75 34.21 15.46 39.2 17.06L46.38 19.35C47.98 19.85 49.27 21.05 49.87 22.54L62.24 51.67C63.04 53.56 62.14 55.76 60.25 56.56L40.09 65.13C39.6 65.33 39.1 65.43 38.6 65.43ZM35.91 18.05C32.51 18.05 29.42 19.95 27.83 23.14L24.33 30.02C23.74 31.12 23.74 32.42 24.24 33.61L36.6 62.64C37.1 63.74 38.4 64.34 39.6 63.84L59.75 55.26C60.84 54.76 61.44 53.46 60.94 52.27L48.48 23.14C47.98 22.04 47.08 21.14 45.88 20.75L38.7 18.45C37.8 18.15 36.8 18.05 35.91 18.05Z" fill="#2B2929" fill-opacity="1.000000" fill-rule="nonzero"/>
		<path d="M35.81 32.42C35.11 32.42 34.51 32.32 33.81 32.02C32.51 31.52 31.52 30.52 30.92 29.22C30.32 27.93 30.32 26.53 30.92 25.23C31.42 23.94 32.41 22.94 33.71 22.34C35.01 21.74 36.41 21.74 37.7 22.34C39 22.84 40 23.84 40.59 25.13C41.19 26.43 41.19 27.83 40.59 29.12C40.09 30.42 39.1 31.42 37.8 32.02C37.2 32.22 36.5 32.42 35.81 32.42ZM35.81 23.44C35.31 23.44 34.81 23.54 34.31 23.74C33.41 24.14 32.71 24.84 32.32 25.73C31.92 26.63 31.92 27.63 32.32 28.63C32.71 29.52 33.41 30.22 34.31 30.62C35.21 31.02 36.21 31.02 37.2 30.62C38.1 30.22 38.8 29.52 39.2 28.63C39.6 27.73 39.6 26.73 39.2 25.73C38.8 24.84 38.1 24.14 37.1 23.74C36.8 23.54 36.31 23.44 35.81 23.44Z" fill="#2B2929" fill-opacity="1.000000" fill-rule="nonzero"/>
		<path d="M37.4 28.43C36.2 28.43 35.41 27.83 35.01 27.33C34.11 26.23 34.01 24.54 34.61 22.44C34.71 22.04 35.11 21.84 35.51 21.94C35.91 22.04 36.1 22.44 36 22.84C35.51 24.34 35.61 25.73 36.1 26.33C36.4 26.73 36.9 26.83 37.5 26.83C39.9 26.63 43.29 23.54 44.88 20.05C46.08 17.55 45.88 15.86 45.38 15.16C45.08 14.76 44.58 14.56 43.99 14.56C42.49 14.66 40.49 15.96 38.8 17.95C38.5 18.25 38.1 18.35 37.7 18.05C37.4 17.75 37.3 17.35 37.6 16.95C39.6 14.66 41.89 13.16 43.89 12.96C45.08 12.87 46.08 13.26 46.68 14.16C47.68 15.56 47.48 17.95 46.28 20.55C44.38 24.64 40.59 28.03 37.6 28.23C37.6 28.43 37.5 28.43 37.4 28.43Z" fill="#2B2929" fill-opacity="1.000000" fill-rule="nonzero"/>
		<path d="M39.7 58.55C39.6 58.55 39.5 58.55 39.4 58.45C39 58.25 38.8 57.85 39 57.45L47.98 35.21C48.17 34.81 48.57 34.61 48.97 34.81C49.37 35.01 49.57 35.41 49.37 35.81L40.39 58.05C40.29 58.35 40 58.55 39.7 58.55Z" fill="#FFBC57" fill-opacity="1.000000" fill-rule="nonzero"/>
		<path d="M39.8 42.69C40.49 44.19 39.7 45.98 38.2 46.68C36.7 47.38 34.91 46.58 34.21 45.08C33.51 43.59 34.31 41.79 35.81 41.09C37.4 40.4 39.2 41.09 39.8 42.69Z" fill="#FFFFFF" fill-opacity="1.000000" fill-rule="nonzero"/>
		<path d="M37 47.58C36.5 47.58 36 47.48 35.61 47.28C34.71 46.88 33.91 46.18 33.51 45.28C32.71 43.39 33.61 41.19 35.51 40.3C37.4 39.5 39.6 40.4 40.49 42.29C40.89 43.19 40.89 44.29 40.49 45.18C40.09 46.08 39.4 46.88 38.5 47.28C38 47.48 37.5 47.58 37 47.58ZM37 41.59C36.7 41.59 36.4 41.69 36.1 41.79C34.91 42.29 34.41 43.59 34.91 44.79C35.11 45.38 35.61 45.78 36.1 45.98C36.7 46.18 37.3 46.18 37.8 45.98C38.4 45.78 38.8 45.28 39 44.79C39.2 44.19 39.2 43.59 39 43.09C38.7 42.09 37.9 41.59 37 41.59Z" fill="#FFBC57" fill-opacity="1.000000" fill-rule="nonzero"/>
		<path d="M54.06 48.38C54.76 49.87 53.96 51.67 52.46 52.37C50.97 53.07 49.17 52.27 48.47 50.77C47.77 49.27 48.57 47.48 50.07 46.78C51.66 46.18 53.46 46.88 54.06 48.38Z" fill="#FFFFFF" fill-opacity="1.000000" fill-rule="nonzero"/>
		<path d="M51.27 53.36C49.77 53.36 48.37 52.47 47.77 51.07C46.98 49.17 47.87 46.98 49.77 46.08C51.66 45.28 53.86 46.18 54.76 48.08C55.56 49.97 54.66 52.17 52.76 53.06C52.26 53.26 51.76 53.36 51.27 53.36ZM51.27 47.28C50.97 47.28 50.67 47.38 50.37 47.48C49.17 47.98 48.67 49.27 49.17 50.47C49.67 51.67 50.97 52.17 52.16 51.67C53.36 51.17 53.86 49.87 53.36 48.68C53.06 47.88 52.16 47.28 51.27 47.28Z" fill="#FFBC57" fill-opacity="1.000000" fill-rule="nonzero"/>
		<path d="M22.34 54.96C21.94 54.96 21.64 54.66 21.64 54.26L19.85 39.6C19.75 39.2 20.05 38.8 20.54 38.8C20.94 38.7 21.34 39 21.34 39.5L23.14 54.16C23.14 54.56 22.84 54.86 22.34 54.96Z" fill="#2B2929" fill-opacity="1.000000" fill-rule="nonzero"/>
		<path d="M23.44 63.44C23.04 63.44 22.74 63.14 22.74 62.74L22.24 58.75C22.14 58.35 22.44 57.95 22.94 57.95C23.34 57.95 23.74 58.15 23.74 58.65L24.23 62.64C24.13 62.94 23.93 63.34 23.44 63.44Z" fill="#2B2929" fill-opacity="1.000000" fill-rule="nonzero"/>
	</g>
</svg>
