<svg width="100.000000" height="100.000000" viewBox="0 0 100 100" fill="none" xmlns="http://www.w3.org/2000/svg" xmlns:xlink="http://www.w3.org/1999/xlink">
	<desc>
			Created with Pixso.
	</desc>
	<defs>
		<clipPath id="clip193_5251">
			<rect id="pay 5" width="100.000000" height="100.000000" fill="white" fill-opacity="0"/>
		</clipPath>
	</defs>
	<g clip-path="url(#clip193_5251)">
		<circle id="Ellipse 21" cx="50.000000" cy="50.000000" r="50.000000" fill="#FFBC57" fill-opacity="1.000000"/>
		<path id="Vector" d="M89.76 42.92L89.2 41.58L85.26 39.23L80.27 39.27L77.55 36L74.41 37.27L71.91 36.32L70.17 36.9L66.91 31.21L64.61 31.01L63.05 24.94L56.81 24L55.59 25.55L50.38 25.49L48.71 27.93L48.54 30.97L46.91 29.3L43.58 29.87L42.71 28.17L36.62 28.69L28.14 25.07L23.37 24.8L19.8 28L21.2 32.94L14 39.43L14.51 42.98L13.14 42.38L11 45.37L14.49 49.75L21.15 51.02L22.59 52.67L28.32 51.36L29.03 49.96L34.48 48.66L40.3 52.17L41.28 55.32L43.19 56.81L43.09 59.32L44.61 62.22L41.28 63.15L40.04 65.45L36.67 68.46L38.94 70.52L45.46 66.9L48.64 62.84L50.45 61.67L54 61.12L53.47 62.44L53.31 62.69L55.33 65.07L61.63 65.1L61.95 66.49L56.52 69.53L61.38 71.94L61.42 73.55L60.53 75.46L62.2 76.56L65.01 75.55L71.1 71.61L74.91 71.78L75.48 69.36L73.38 69.23L70.35 70.42L68.04 67.62L63.05 64.49L69.16 64.06L69.23 64.1L71.99 61.36L79.5 58.09L82.37 57.83L82.75 54.44L85.69 52.56L88.93 52.45L89.71 49.44L88.31 45.4L89.76 42.92Z" fill="#FFFFFF" fill-opacity="1.000000" fill-rule="nonzero"/>
	</g>
</svg>
