<svg width="32.000000" height="32.000000" viewBox="0 0 32 32" fill="none" xmlns="http://www.w3.org/2000/svg" xmlns:xlink="http://www.w3.org/1999/xlink">
	<desc>
			Created with Pixso.
	</desc>
	<defs>
		<clipPath id="clip213_14810">
			<rect id="mark" width="32.000000" height="32.000000" fill="white" fill-opacity="0"/>
		</clipPath>
	</defs>
	<rect id="mark" width="32.000000" height="32.000000" fill="#FFFFFF" fill-opacity="0"/>
	<g clip-path="url(#clip213_14810)">
		<path id="Vector" d="M19.62 11.72L13.9 17.45L11.7 15.25C11.58 15.11 11.43 15 11.27 14.92C11.1 14.84 10.92 14.79 10.74 14.78C10.55 14.78 10.37 14.81 10.2 14.87C10.03 14.94 9.87 15.04 9.75 15.17C9.61 15.3 9.51 15.46 9.44 15.63C9.38 15.8 9.35 15.98 9.35 16.17C9.36 16.35 9.41 16.53 9.49 16.7C9.57 16.86 9.68 17.01 9.82 17.13L12.95 20.27C13.08 20.4 13.23 20.5 13.39 20.56C13.55 20.63 13.73 20.66 13.9 20.66C14.25 20.66 14.58 20.52 14.83 20.27L21.5 13.61C21.62 13.48 21.72 13.34 21.79 13.17C21.86 13.01 21.89 12.84 21.89 12.66C21.89 12.49 21.86 12.31 21.79 12.15C21.72 11.99 21.62 11.84 21.5 11.72C21.25 11.47 20.91 11.33 20.56 11.33C20.21 11.33 19.87 11.47 19.62 11.72ZM15.99 2.66C13.35 2.66 10.78 3.44 8.58 4.91C6.39 6.37 4.68 8.46 3.67 10.89C2.66 13.33 2.4 16.01 2.92 18.6C3.43 21.18 4.7 23.56 6.57 25.42C8.43 27.29 10.8 28.56 13.39 29.07C15.98 29.59 18.66 29.32 21.1 28.31C23.53 27.3 25.61 25.6 27.08 23.4C28.54 21.21 29.33 18.63 29.33 16C29.33 14.24 28.98 12.51 28.31 10.89C27.64 9.27 26.66 7.8 25.42 6.57C24.18 5.33 22.71 4.35 21.1 3.68C19.48 3.01 17.75 2.66 15.99 2.66ZM15.99 26.66C13.88 26.66 11.82 26.04 10.07 24.86C8.31 23.69 6.94 22.03 6.14 20.08C5.33 18.13 5.12 15.98 5.53 13.91C5.94 11.84 6.96 9.94 8.45 8.45C9.94 6.96 11.84 5.94 13.91 5.53C15.98 5.12 18.12 5.33 20.07 6.14C22.02 6.95 23.69 8.31 24.86 10.07C26.03 11.82 26.66 13.89 26.66 16C26.66 18.82 25.53 21.54 23.53 23.54C21.53 25.54 18.82 26.66 15.99 26.66Z" fill="#FFBC57" fill-opacity="1.000000" fill-rule="nonzero"/>
	</g>
</svg>
